<?xml version="1.0" encoding="utf-8"?>
<!-- Generator: Adobe Illustrator 23.1.0, SVG Export Plug-In . SVG Version: 6.00 Build 0)  -->
<svg version="1.1" id="Слой_1" xmlns="http://www.w3.org/2000/svg" xmlns:xlink="http://www.w3.org/1999/xlink" x="0px" y="0px"
	 viewBox="0 0 144 2732.4" style="enable-background:new 0 0 144 2732.4;" xml:space="preserve">
<style type="text/css">
	
		.st0{clip-path:url(#SVGID_2_);fill:none;stroke:#CD0000;stroke-width:0.24;stroke-linecap:round;stroke-linejoin:bevel;stroke-miterlimit:10;}
</style>
<g>
	<defs>
		<rect id="SVGID_1_" x="0" width="144" height="2732.4"/>
	</defs>
	<clipPath id="SVGID_2_">
		<use xlink:href="#SVGID_1_"  style="overflow:visible;"/>
	</clipPath>
	<polyline class="st0" points="108.24,2678.4 111.12,2678.4 108.72,2678.16 111.6,2677.68 110.88,2677.44 107.28,2677.44 
		111.6,2676.96 109.44,2676.96 110.16,2676.72 110.4,2676.24 108.96,2676.24 107.52,2676 110.16,2676 111.12,2675.52 
		112.32,2675.28 112.56,2675.28 110.16,2674.8 111.6,2674.8 108.24,2674.56 105.12,2674.08 111.6,2674.08 108.72,2673.84 
		109.68,2673.84 109.44,2673.36 112.32,2673.12 113.28,2673.12 113.04,2672.64 108.96,2672.4 108.96,2671.92 109.44,2671.92 
		108,2671.68 102.48,2671.68 108.96,2671.2 112.32,2670.96 108.72,2670.96 109.44,2670.48 109.68,2670.48 109.68,2670.24 
		108.96,2669.76 108.72,2669.76 108.96,2669.52 107.52,2669.52 107.52,2669.04 109.68,2668.8 109.44,2668.8 106.8,2668.32 
		111.6,2668.32 111.12,2668.08 107.52,2667.6 108.72,2667.6 108,2667.36 107.52,2667.36 108,2666.88 106.8,2666.64 114.48,2666.64 
		106.08,2666.16 111.6,2666.16 106.56,2665.92 108.96,2665.44 110.16,2665.44 108.24,2665.2 114,2665.2 112.32,2664.72 
		108.96,2664.48 108,2664.48 110.88,2664 108,2664 110.88,2663.28 110.16,2663.28 106.8,2663.04 111.84,2663.04 106.8,2662.56 
		106.8,2662.32 110.16,2662.32 108.24,2661.84 113.28,2661.84 108,2661.6 111.12,2661.12 109.44,2661.12 109.44,2660.88 
		106.56,2660.88 110.88,2660.4 106.56,2660.16 108.96,2660.16 111.84,2659.68 110.16,2659.68 106.8,2659.44 106.08,2658.96 
		109.68,2658.96 107.28,2658.72 110.88,2658.72 109.44,2658.24 110.16,2658 108.24,2658 110.88,2657.52 107.28,2657.52 
		110.16,2657.28 108,2656.8 109.44,2656.8 106.08,2656.56 110.16,2656.56 108.96,2656.08 113.28,2655.84 110.4,2655.84 
		107.52,2655.36 116.16,2655.36 110.88,2655.12 110.4,2654.64 108.24,2654.64 106.8,2654.4 110.4,2654.4 111.6,2653.92 
		112.32,2653.68 113.04,2653.68 113.76,2653.2 116.16,2653.2 113.76,2652.96 111.6,2652.48 113.04,2652.48 110.88,2652.24 
		109.44,2652.24 110.16,2651.76 108.24,2651.52 109.44,2651.52 108.96,2651.04 110.16,2651.04 109.68,2650.8 107.52,2650.32 
		108.96,2650.32 111.6,2650.08 108,2650.08 108.24,2649.6 106.08,2649.36 107.28,2649.36 108.72,2648.88 112.32,2648.88 
		110.88,2648.64 105.36,2648.16 108.72,2648.16 109.44,2647.92 114.48,2647.44 115.92,2647.2 110.4,2647.2 109.44,2646.72 
		111.6,2646.72 105.36,2646.48 111.84,2646 110.16,2646 109.68,2645.76 108.96,2645.76 108,2645.28 111.12,2645.04 109.44,2645.04 
		108.24,2644.56 108.96,2644.56 109.68,2644.32 108.24,2643.84 111.12,2643.84 114,2643.6 111.84,2643.6 112.56,2643.12 
		107.28,2642.88 113.04,2642.88 108.72,2642.4 108.24,2642.4 111.84,2642.16 113.04,2641.68 109.44,2641.68 109.68,2641.44 
		111.6,2641.44 110.4,2640.96 108.72,2640.72 106.8,2640.72 110.88,2640.24 108.72,2640.24 113.04,2640 110.88,2639.52 
		110.4,2639.52 109.68,2639.28 113.04,2639.28 107.52,2638.8 108.24,2638.56 111.84,2638.56 110.4,2638.08 109.44,2638.08 
		110.88,2637.84 105.84,2637.36 110.4,2637.36 110.88,2637.12 108.96,2637.12 111.12,2636.64 110.88,2636.4 108.96,2636.4 
		108.72,2635.92 110.88,2635.92 108,2635.68 111.84,2635.2 109.68,2635.2 111.6,2634.96 108,2634.96 106.8,2634.48 110.16,2634.24 
		105.84,2634.24 106.8,2633.76 110.16,2633.76 108,2633.52 108.96,2633.04 110.16,2633.04 113.04,2632.8 107.28,2632.8 
		109.44,2632.32 104.4,2632.08 108.72,2632.08 110.16,2631.6 112.56,2631.6 111.12,2631.36 111.12,2630.88 109.44,2630.88 
		106.56,2630.64 112.56,2630.64 108.72,2630.16 110.4,2629.92 109.68,2629.92 109.68,2629.44 108.72,2629.44 105.36,2629.2 
		108,2628.72 106.8,2628.72 109.44,2628.48 108.24,2628.48 109.68,2628 105.84,2627.76 108.72,2627.76 105.12,2627.28 
		105.84,2627.28 108.72,2627.04 107.52,2626.56 105.12,2626.56 109.68,2626.32 108.96,2626.32 110.16,2625.84 108.24,2625.6 
		107.52,2625.12 106.8,2625.12 106.56,2624.88 108.72,2624.4 106.56,2624.4 106.56,2624.16 112.56,2624.16 107.52,2623.68 
		103.68,2623.44 105.36,2623.44 108,2622.96 111.6,2622.96 108.96,2622.72 109.44,2622.24 106.8,2622.24 107.52,2622 
		110.88,2621.52 107.28,2621.28 108,2621.28 108.72,2620.8 110.16,2620.8 107.28,2620.56 110.16,2620.08 107.52,2620.08 
		108.24,2619.84 105.36,2619.84 108.24,2619.36 108,2619.12 105.84,2619.12 110.16,2618.64 110.4,2618.64 108.24,2618.4 
		108.72,2617.92 108,2617.92 110.16,2617.68 106.8,2617.68 108,2617.2 107.28,2616.96 106.56,2616.96 108.96,2616.48 
		105.84,2616.48 107.52,2616.24 108.72,2615.76 110.16,2615.76 109.44,2615.52 110.4,2615.52 109.44,2615.04 106.56,2614.8 
		108.24,2614.8 107.52,2614.32 107.28,2614.32 105.84,2614.08 103.92,2613.6 105.12,2613.6 106.08,2613.36 109.44,2613.36 
		105.84,2612.88 106.56,2612.64 104.4,2612.64 108.72,2612.16 106.56,2612.16 105.84,2611.92 109.68,2611.44 110.16,2611.44 
		108.24,2611.2 107.52,2611.2 106.08,2610.72 102.24,2610.48 108,2610.48 109.68,2610 106.08,2610 105.12,2609.76 106.8,2609.28 
		108.96,2609.28 106.08,2609.04 106.8,2609.04 106.8,2608.56 108.96,2608.32 107.52,2608.32 109.44,2607.84 107.52,2607.84 
		108.72,2607.6 110.88,2607.12 107.52,2607.12 108.72,2606.88 110.4,2606.88 106.8,2606.4 110.16,2606.16 114,2605.68 
		105.36,2605.68 105.84,2605.44 105.36,2604.96 103.68,2604.96 106.56,2604.72 105.36,2604.72 105.84,2604.24 105.12,2604 
		106.08,2604 108,2603.52 105.84,2603.52 106.08,2603.28 106.8,2602.8 105.36,2602.8 108,2602.56 104.64,2602.56 103.2,2602.08 
		107.28,2601.84 107.52,2601.84 106.08,2601.36 101.76,2601.36 102.96,2601.12 105.84,2600.64 103.92,2600.64 102.96,2600.4 
		107.28,2600.4 105.84,2599.92 105.36,2599.68 106.56,2599.68 108.24,2599.2 110.16,2599.2 105.84,2598.96 104.4,2598.48 
		108.72,2598.48 104.4,2598.24 107.28,2598.24 101.76,2597.76 108.96,2597.52 110.16,2597.52 105.12,2597.04 108,2596.8 
		103.2,2596.32 106.8,2596.32 107.28,2596.08 108.96,2595.6 104.4,2595.36 103.92,2595.36 106.08,2594.88 102.24,2594.88 
		108.72,2594.64 105.36,2594.16 103.92,2594.16 106.8,2593.92 102.96,2593.92 105.12,2593.44 107.52,2593.2 106.08,2593.2 
		106.08,2592.72 105.36,2592.72 105.12,2592.48 102.96,2592 106.56,2592 104.4,2591.76 103.68,2591.76 112.32,2591.28 
		104.64,2591.04 104.4,2591.04 108.72,2590.56 105.12,2590.56 106.8,2590.32 104.64,2589.84 103.68,2589.84 106.8,2589.6 
		106.08,2589.6 106.08,2589.12 101.76,2588.88 108,2588.88 105.12,2588.4 104.64,2588.4 105.84,2588.16 102.48,2587.68 
		103.2,2587.68 103.68,2587.44 102.96,2587.44 103.2,2586.96 105.84,2586.72 103.68,2586.24 102.96,2586.24 103.2,2586 
		105.12,2585.52 101.52,2585.52 102.24,2585.28 107.28,2585.28 105.12,2584.8 106.56,2584.56 106.08,2584.56 103.68,2584.08 
		106.8,2584.08 103.68,2583.84 109.44,2583.36 106.8,2583.36 108.24,2583.12 106.8,2583.12 108.72,2582.64 108.24,2582.4 
		103.2,2582.4 104.64,2581.92 103.92,2581.92 106.56,2581.68 106.56,2581.2 103.68,2581.2 107.28,2580.96 105.12,2580.96 
		105.36,2580.48 105.12,2580.24 106.08,2580.24 106.08,2579.76 106.8,2579.52 107.52,2579.04 105.12,2579.04 108.96,2578.8 
		104.64,2578.8 106.08,2578.32 104.4,2578.08 107.28,2578.08 108.24,2577.6 106.8,2577.6 105.36,2577.36 104.64,2576.88 
		108.24,2576.88 108.24,2576.64 104.64,2576.64 106.08,2576.16 105.36,2575.92 105.84,2575.92 106.08,2575.44 108.24,2575.44 
		104.4,2575.2 102.48,2574.72 105.84,2574.72 103.2,2574.48 104.4,2574.48 105.84,2574 107.28,2573.76 108.24,2573.76 
		102.48,2573.28 109.68,2573.28 104.4,2573.04 111.6,2572.56 103.68,2572.56 107.52,2572.32 109.68,2572.32 108.96,2571.84 
		106.8,2571.6 109.44,2571.6 106.56,2571.12 104.4,2571.12 102.96,2570.88 104.4,2570.4 108,2570.4 108,2570.16 104.64,2570.16 
		108.96,2569.68 106.8,2569.44 110.16,2569.44 108.96,2568.96 108.24,2568.96 105.36,2568.72 103.92,2568.24 105.12,2568.24 
		107.52,2568 102.48,2568 108.96,2567.52 106.8,2567.28 101.76,2567.28 108.72,2566.8 106.8,2566.8 106.56,2566.56 105.12,2566.08 
		106.8,2566.08 103.68,2565.84 109.68,2565.84 101.04,2565.36 104.64,2565.12 108,2565.12 112.56,2564.64 108.24,2564.64 
		112.32,2564.4 109.68,2563.92 103.2,2563.92 105.36,2563.68 106.8,2563.68 107.52,2563.2 103.92,2562.96 107.28,2562.96 
		101.76,2562.48 102.48,2562.48 107.52,2562.24 102.24,2561.76 107.28,2561.76 105.12,2561.52 103.2,2561.52 105.12,2561.04 
		108,2560.8 106.56,2560.8 108.24,2560.32 105.84,2560.32 108.24,2560.08 106.56,2559.6 104.4,2559.6 108.96,2559.36 103.2,2559.36 
		109.68,2558.88 102.96,2558.64 105.36,2558.64 103.92,2558.16 108.72,2558.16 102.96,2557.92 100.8,2557.44 103.2,2557.44 
		100.32,2557.2 104.4,2557.2 100.32,2556.72 100.32,2556.48 101.04,2556.48 98.64,2556 102.96,2556 103.92,2555.76 100.8,2555.28 
		105.84,2555.28 105.36,2555.04 103.2,2555.04 105.84,2554.56 105.36,2554.32 101.04,2554.32 102.48,2553.84 102.24,2553.84 
		101.52,2553.6 102.24,2553.12 105.12,2553.12 103.92,2552.88 106.8,2552.88 100.08,2552.4 105.36,2552.16 107.28,2552.16 
		101.52,2551.68 102.96,2551.68 107.52,2551.44 110.16,2550.96 108.72,2550.96 106.8,2550.72 105.12,2550.72 105.12,2550.24 
		110.16,2550 105.12,2550 107.52,2549.52 105.12,2549.52 110.16,2549.28 107.28,2548.8 106.56,2548.8 108,2548.56 107.28,2548.56 
		109.68,2548.08 114,2547.84 103.2,2547.84 105.84,2547.36 106.8,2547.36 103.68,2547.12 109.44,2546.64 102.48,2546.64 
		101.52,2546.4 94.32,2545.92 98.88,2545.68 103.68,2545.68 105.84,2545.2 106.08,2545.2 103.2,2544.96 99.36,2544.48 
		105.12,2544.48 101.52,2544.24 108.96,2544.24 106.56,2543.76 105.84,2543.52 105.12,2543.52 100.8,2543.04 96.48,2543.04 
		105.12,2542.8 103.92,2542.32 100.8,2542.32 101.52,2542.08 100.32,2542.08 113.76,2541.6 111.12,2541.36 108.24,2541.36 
		102.48,2540.88 103.68,2540.88 108.72,2540.64 111.84,2540.16 111.12,2540.16 108.24,2539.92 123.36,2539.44 102.48,2539.2 
		113.28,2539.2 104.4,2538.72 103.92,2538.72 102.24,2538.48 106.8,2538 102.96,2538 100.8,2537.76 96,2537.76 108.24,2537.28 
		110.88,2537.04 106.08,2537.04 106.56,2536.56 108.72,2536.56 107.28,2536.32 107.28,2535.84 108.24,2535.84 115.92,2535.6 
		113.76,2535.6 116.88,2535.12 113.04,2534.88 112.32,2534.88 106.08,2534.4 108.72,2534.4 109.68,2534.16 105.36,2533.68 
		109.44,2533.68 106.8,2533.44 103.92,2533.44 108.72,2532.96 106.08,2532.72 107.28,2532.72 104.4,2532.24 106.08,2532.24 
		103.68,2532 107.28,2531.52 104.64,2531.52 106.08,2531.28 111.12,2531.28 106.8,2530.56 109.44,2530.56 108.72,2529.84 
		109.68,2529.36 111.84,2529.36 109.44,2529.12 110.16,2529.12 105.84,2528.64 106.56,2528.4 106.8,2528.4 104.4,2527.92 
		101.04,2527.92 113.28,2527.68 108.72,2527.2 108.24,2527.2 107.52,2526.96 110.88,2526.96 107.52,2526.48 108.96,2526.24 
		104.64,2526.24 107.52,2525.76 106.08,2525.76 103.68,2525.52 103.68,2525.04 104.64,2525.04 105.84,2524.8 108.96,2524.32 
		106.56,2524.08 108.24,2524.08 105.84,2523.6 106.8,2523.6 106.08,2523.36 107.28,2522.88 110.16,2522.88 102.24,2522.64 
		103.68,2522.64 105.84,2522.16 108.96,2521.92 105.84,2521.92 105.36,2521.44 106.56,2521.2 102.96,2520.72 102.48,2520.72 
		106.08,2520.48 103.68,2520.48 103.68,2520 101.52,2519.76 100.8,2519.76 105.12,2519.28 102.48,2519.28 103.92,2519.04 
		102.48,2518.56 105.84,2518.56 104.64,2518.32 104.4,2518.32 103.2,2517.84 102.48,2517.6 102.24,2517.6 102.48,2517.12 
		104.64,2517.12 104.64,2516.88 103.2,2516.4 105.36,2516.4 105.36,2516.16 106.08,2516.16 104.64,2515.68 105.12,2515.44 
		105.36,2515.44 102.96,2514.96 107.28,2514.96 105.84,2514.72 108.72,2514.24 115.44,2514.24 117.6,2514 120.48,2514 
		104.4,2513.52 98.16,2513.28 106.8,2513.28 106.56,2512.8 105.36,2512.8 104.4,2512.56 107.52,2512.08 103.2,2512.08 
		99.36,2511.84 104.64,2511.84 100.8,2511.36 96.72,2511.12 106.08,2511.12 100.32,2510.64 113.76,2510.64 106.56,2510.4 
		105.36,2509.92 108.24,2509.92 134.16,2509.68 118.32,2509.68 123.36,2509.2 96.72,2508.96 101.52,2508.96 97.44,2508.48 
		98.88,2508.48 104.64,2508.24 128.16,2507.76 108.24,2507.76 114,2507.52 112.32,2507.52 108.96,2507.04 108.24,2506.8 
		112.56,2506.8 113.04,2506.32 105.84,2506.32 103.2,2506.08 105.36,2505.6 101.04,2505.6 103.92,2505.36 105.12,2504.88 
		106.8,2504.64 96.48,2504.64 111.6,2504.16 105.12,2504.16 103.2,2503.92 105.12,2503.44 103.92,2503.44 107.28,2503.2 
		104.4,2503.2 105.84,2502.72 101.76,2502.48 100.8,2502.48 108.72,2502 105.12,2502 106.8,2501.76 106.8,2501.28 105.84,2501.28 
		109.44,2501.04 108,2501.04 101.52,2500.56 107.28,2500.32 103.92,2500.32 106.08,2499.84 103.2,2499.84 106.08,2499.6 
		101.04,2499.12 100.32,2499.12 108.96,2498.88 107.52,2498.88 107.52,2498.4 108.96,2498.16 106.8,2498.16 109.68,2497.68 
		108.96,2497.68 107.52,2497.44 98.64,2496.96 110.16,2496.96 107.28,2496.72 108,2496.72 108.72,2496.24 108.96,2496 109.44,2496 
		104.64,2495.52 102.96,2495.52 101.52,2495.28 102.96,2494.8 98.16,2494.8 101.04,2494.56 99.36,2494.56 105.36,2494.08 
		105.12,2493.84 101.76,2493.84 108.72,2493.36 109.68,2493.36 106.08,2493.12 110.4,2492.64 104.64,2492.4 103.2,2492.4 
		101.76,2491.92 102.96,2491.68 103.2,2491.68 104.4,2491.2 103.92,2491.2 106.08,2490.96 103.92,2490.48 100.08,2490.48 
		98.64,2490.24 98.88,2490.24 96,2489.76 96.72,2489.52 99.36,2489.52 98.88,2489.04 97.44,2489.04 97.92,2488.8 100.8,2488.32 
		102.48,2488.32 99.6,2488.08 101.04,2488.08 98.64,2487.6 96.48,2487.36 100.8,2487.36 102.24,2486.88 100.8,2486.88 
		101.04,2486.64 100.08,2486.16 103.2,2486.16 103.2,2485.92 96.72,2485.92 98.88,2485.44 101.04,2485.2 96.48,2485.2 
		102.96,2484.72 101.04,2484.72 101.52,2484.48 88.08,2484 102.48,2484 103.92,2483.76 97.92,2483.76 98.64,2483.28 98.16,2483.04 
		102.48,2483.04 102.24,2482.56 98.64,2482.56 103.92,2482.32 101.04,2481.84 102.96,2481.84 99.6,2481.6 101.76,2481.6 
		103.68,2481.12 101.76,2480.88 98.88,2480.88 101.76,2480.4 100.32,2480.4 101.52,2480.16 98.88,2479.68 100.8,2479.68 
		100.32,2479.44 98.64,2479.44 101.76,2478.96 102.24,2478.72 102.24,2478.24 101.52,2478.24 100.08,2478 100.08,2477.52 
		98.16,2477.52 99.36,2477.28 96,2477.28 97.2,2476.8 99.6,2476.56 102.96,2476.56 100.32,2476.08 102.24,2476.08 105.36,2475.84 
		101.04,2475.36 103.2,2475.36 103.2,2475.12 100.8,2475.12 101.04,2474.64 103.68,2474.4 102.24,2474.4 103.92,2473.92 
		104.4,2473.92 100.32,2473.68 104.64,2473.2 103.92,2472.96 104.64,2472.96 103.68,2472.48 106.56,2472.24 117.6,2472.24 
		122.64,2471.76 123.12,2471.76 125.28,2471.52 116.88,2471.04 100.8,2471.04 106.56,2470.8 104.64,2470.8 103.2,2470.32 
		100.8,2470.08 101.04,2470.08 97.2,2469.6 100.32,2469.6 101.52,2469.36 102.96,2468.88 105.36,2468.88 103.2,2468.64 
		104.64,2468.64 104.64,2468.16 105.12,2467.92 103.92,2467.92 104.4,2467.44 101.04,2467.44 103.92,2467.2 103.68,2466.72 
		105.12,2466.48 104.4,2466.48 103.68,2466 101.76,2465.76 101.04,2465.76 106.08,2465.28 99.36,2465.28 100.08,2465.04 
		98.88,2464.56 96.72,2464.56 93.6,2464.32 83.76,2464.32 85.2,2463.84 88.8,2463.6 89.52,2463.6 89.52,2463.12 88.8,2463.12 
		94.32,2462.88 103.92,2462.4 113.04,2462.4 109.44,2462.16 106.08,2462.16 99.6,2461.68 97.44,2461.44 100.8,2461.44 
		102.48,2460.96 101.04,2460.96 102.48,2460.24 100.08,2460.24 100.08,2460 99.6,2460 99.6,2459.52 99.36,2459.28 102.24,2459.28 
		103.68,2458.8 102.24,2458.56 101.04,2458.08 102.24,2458.08 101.04,2457.84 105.12,2457.84 107.52,2457.36 102.96,2457.12 
		103.2,2457.12 102.24,2456.64 101.04,2456.64 100.8,2456.4 100.8,2455.92 103.68,2455.92 100.8,2455.68 102.96,2455.68 
		100.32,2455.2 99.6,2454.96 100.32,2454.96 106.8,2454.48 101.04,2454.48 101.76,2454.24 99.36,2453.76 100.08,2453.52 
		101.52,2453.52 101.76,2453.04 101.76,2452.8 103.2,2452.8 106.56,2452.32 109.44,2452.32 103.92,2452.08 105.36,2451.6 
		102.96,2451.6 103.2,2451.36 103.68,2451.36 103.92,2450.88 103.92,2450.64 103.68,2450.64 98.88,2450.16 101.04,2449.92 
		101.76,2449.44 101.04,2449.44 102.96,2449.2 100.32,2449.2 103.68,2448.72 102.48,2448.48 103.2,2448.48 100.32,2448 102.96,2448 
		101.76,2447.76 98.16,2447.28 103.2,2447.28 98.64,2447.04 100.08,2447.04 97.2,2446.56 96.48,2446.32 106.08,2446.32 
		107.52,2445.84 101.76,2445.84 99.6,2445.6 96.72,2445.12 102.24,2444.88 107.28,2444.88 111.12,2444.4 118.32,2444.16 
		112.56,2444.16 110.88,2443.68 103.2,2443.68 100.8,2443.44 100.8,2442.96 103.92,2442.96 102.96,2442.72 103.68,2442.24 
		100.08,2442 101.52,2442 106.56,2441.52 113.04,2441.52 107.52,2441.28 101.04,2440.8 102.24,2440.8 102.24,2440.56 103.2,2440.56 
		102.24,2440.08 101.52,2439.84 100.8,2439.84 100.8,2439.36 103.2,2439.36 101.76,2439.12 100.08,2438.64 100.8,2438.64 
		100.08,2438.4 103.2,2438.4 100.8,2437.92 100.8,2437.68 103.92,2437.68 102.24,2437.2 104.4,2437.2 101.52,2436.96 
		105.84,2436.48 103.92,2436.48 110.16,2436.24 110.88,2436.24 111.6,2435.76 104.4,2435.52 101.04,2435.52 98.64,2435.04 
		97.44,2435.04 98.88,2434.8 97.44,2434.32 97.2,2434.32 98.16,2434.08 93.84,2434.08 95.28,2433.6 94.56,2433.36 97.92,2433.36 
		92.4,2432.88 95.04,2432.88 98.64,2432.64 98.16,2432.16 101.52,2432.16 98.16,2431.92 97.92,2431.92 98.64,2431.44 100.08,2431.2 
		96.72,2431.2 98.64,2430.72 99.36,2430.72 96,2430.48 95.28,2430 95.04,2430 92.88,2429.76 94.56,2429.76 96,2429.28 
		94.32,2429.04 96.48,2429.04 97.44,2428.56 100.08,2428.56 102.24,2428.32 100.8,2427.84 99.6,2427.6 98.88,2427.6 97.44,2427.12 
		99.6,2426.88 101.04,2426.88 102.48,2426.4 103.92,2426.4 104.4,2426.16 101.52,2425.68 99.36,2425.68 101.04,2425.44 
		101.76,2425.44 100.08,2424.96 101.52,2424.72 100.8,2424.72 103.68,2424.24 108,2424.24 108.24,2424 107.52,2423.52 
		106.8,2423.52 103.2,2423.28 102.48,2423.28 99.36,2422.8 103.2,2422.56 105.12,2422.56 107.28,2422.08 106.8,2422.08 
		104.4,2421.84 102.48,2421.36 100.8,2421.12 100.08,2421.12 104.4,2420.64 100.32,2420.4 102.24,2420.4 102.48,2419.92 
		102.96,2419.92 100.08,2419.68 95.04,2419.2 91.68,2419.2 100.08,2418.96 101.76,2418.96 105.36,2418.48 103.68,2418.24 
		100.08,2418.24 98.64,2417.76 98.88,2417.76 97.92,2417.52 101.52,2417.04 101.76,2417.04 102.96,2416.8 102.48,2416.8 
		102.96,2416.32 102.96,2416.08 102.24,2416.08 101.04,2415.6 99.6,2415.6 99.6,2415.36 99.36,2414.88 97.92,2414.88 
		100.32,2414.64 101.76,2414.64 101.52,2414.16 102.48,2413.92 109.68,2413.92 109.44,2413.44 110.16,2413.44 108.24,2413.2 
		105.84,2412.72 108.72,2412.72 106.56,2412.48 102.48,2412.48 103.2,2412 103.2,2411.76 102.24,2411.76 102.48,2411.28 
		103.92,2411.28 108.24,2411.04 104.4,2410.56 101.04,2410.56 103.2,2410.32 102.48,2410.32 103.2,2409.84 105.36,2409.6 
		107.52,2409.6 108.72,2409.12 105.36,2409.12 101.76,2408.88 102.96,2408.4 99.6,2408.4 100.32,2408.16 103.68,2408.16 
		103.2,2407.68 106.56,2407.44 108.24,2407.44 107.52,2406.96 107.28,2406.96 105.84,2406.72 105.36,2406.24 102.24,2406.24 
		105.36,2406 103.68,2406 103.92,2405.52 107.28,2405.28 102.96,2405.28 103.68,2404.8 105.36,2404.8 104.64,2404.56 
		107.28,2404.08 105.84,2404.08 105.36,2403.84 103.92,2403.84 100.32,2403.36 102.24,2403.12 108.72,2403.12 110.88,2402.64 
		113.28,2402.64 115.44,2402.4 110.16,2401.92 102.96,2401.92 95.76,2401.68 97.92,2401.68 85.92,2401.2 85.2,2400.96 86.4,2400.96 
		87.36,2400.48 85.92,2400.48 90,2400.24 88.56,2399.76 85.68,2399.76 88.56,2399.52 92.88,2399.04 88.08,2398.8 87.12,2398.8 
		85.92,2398.32 86.4,2398.32 87.12,2398.08 87.36,2397.6 87.84,2397.6 87.36,2397.36 87.12,2397.36 88.56,2396.88 87.12,2396.64 
		88.8,2396.16 89.28,2396.16 94.56,2395.92 104.4,2395.44 114.48,2395.44 118.32,2395.2 116.16,2395.2 109.68,2394.72 
		103.68,2394.48 100.32,2394.48 97.92,2394 96,2394 98.88,2393.76 103.68,2393.28 108,2393.28 111.6,2393.04 105.36,2393.04 
		108.24,2392.56 105.36,2392.32 108,2392.32 103.2,2391.84 105.36,2391.84 102.24,2391.6 100.08,2391.12 98.88,2391.12 
		108.96,2390.88 102.24,2390.88 101.52,2390.4 96.72,2390.16 96,2390.16 96.72,2389.68 103.92,2389.44 102.24,2388.96 
		106.56,2388.96 105.84,2388.72 101.76,2388.72 103.2,2388.24 99.6,2388 102.48,2388 105.84,2387.52 104.4,2387.52 110.4,2387.28 
		108.24,2386.8 110.16,2386.8 106.56,2386.56 103.2,2386.56 102.96,2386.08 100.8,2385.84 108,2385.84 103.68,2385.36 
		106.8,2385.36 106.56,2385.12 104.4,2384.64 103.68,2384.64 101.52,2384.4 101.76,2384.4 100.8,2383.92 102.48,2383.68 
		101.04,2383.68 99.36,2383.2 101.04,2383.2 102.24,2382.96 112.32,2382.48 106.56,2382.48 106.56,2382.24 98.64,2382.24 
		101.52,2381.76 100.08,2381.52 101.04,2381.52 102.24,2381.04 100.8,2381.04 98.64,2380.8 96.72,2380.32 96.48,2380.32 
		98.16,2380.08 99.36,2380.08 98.88,2379.6 98.88,2379.36 100.08,2379.36 98.88,2378.88 101.76,2378.88 101.04,2378.64 
		101.52,2378.16 106.08,2378.16 106.08,2377.92 106.56,2377.92 106.56,2377.44 107.28,2377.2 105.84,2377.2 105.84,2376.72 
		108,2376.72 113.28,2376.48 114,2376 116.64,2376 113.28,2375.76 104.4,2375.76 100.8,2375.28 100.32,2375.04 99.6,2374.56 
		99.36,2374.56 100.32,2374.32 101.52,2373.84 98.64,2373.84 97.92,2373.6 98.64,2373.6 101.04,2373.12 98.64,2372.88 
		98.16,2372.88 101.52,2372.4 99.36,2372.4 103.68,2372.16 101.52,2371.68 100.32,2371.68 98.88,2371.44 100.08,2371.44 
		96.48,2370.96 98.88,2370.72 98.64,2370.72 106.08,2370.24 105.12,2370.24 108,2370 106.8,2369.52 104.4,2369.52 100.08,2369.28 
		97.2,2369.28 99.6,2368.8 97.2,2368.56 99.6,2368.56 98.88,2368.08 97.92,2368.08 99.6,2367.84 100.32,2367.36 97.92,2367.36 
		99.36,2367.12 100.32,2367.12 100.8,2366.64 100.32,2366.4 100.08,2366.4 101.76,2365.92 102.24,2365.92 102.96,2365.68 
		102.48,2365.2 108,2365.2 104.4,2364.96 103.2,2364.96 104.4,2364.48 102.24,2364.24 102.48,2364.24 99.6,2363.76 101.52,2363.76 
		101.76,2363.52 101.76,2363.04 103.2,2363.04 102.96,2362.8 100.8,2362.8 99.6,2362.32 100.8,2362.08 99.36,2362.08 100.32,2361.6 
		100.08,2361.6 98.88,2361.36 98.16,2360.88 96.48,2360.88 99.36,2360.64 97.2,2360.64 96.48,2360.16 97.44,2359.92 98.64,2359.92 
		96.72,2359.44 98.16,2359.44 100.08,2359.2 97.92,2358.72 106.56,2358.72 102.24,2358.48 94.32,2358.48 100.08,2358 97.2,2357.76 
		98.88,2357.76 98.16,2357.28 100.08,2357.28 104.4,2357.04 103.68,2356.56 100.8,2356.56 101.52,2356.32 100.8,2356.32 96,2355.84 
		100.8,2355.6 98.88,2355.6 98.88,2355.12 107.52,2355.12 107.28,2354.88 100.08,2354.4 105.84,2354.4 102.48,2354.16 
		98.88,2354.16 97.2,2353.68 102.24,2353.44 98.64,2353.44 97.92,2352.96 103.2,2352.96 99.36,2352.72 100.08,2352.24 
		98.64,2352.24 100.8,2352 102.24,2352 99.36,2351.52 100.32,2351.28 99.6,2351.28 100.32,2350.8 102.24,2350.8 98.16,2350.56 
		101.04,2350.08 97.92,2350.08 100.08,2349.84 99.36,2349.84 101.52,2349.36 100.32,2349.12 101.04,2349.12 101.76,2348.64 
		97.92,2348.64 100.08,2348.4 102.24,2347.92 97.2,2347.92 100.8,2347.68 98.88,2347.68 103.92,2347.2 101.76,2346.96 
		105.36,2346.96 106.08,2346.48 106.8,2346.48 102.96,2346.24 101.04,2345.76 101.52,2345.76 101.52,2345.52 103.68,2345.52 
		103.92,2345.04 111.6,2344.8 106.56,2344.8 101.52,2344.32 99.36,2344.32 97.2,2344.08 99.36,2343.6 98.64,2343.6 99.36,2343.36 
		101.52,2343.36 96,2342.88 96.72,2342.64 98.88,2342.64 100.08,2342.16 100.32,2342.16 98.16,2341.92 99.36,2341.44 96.72,2341.44 
		99.6,2341.2 96.48,2341.2 95.28,2340.72 97.44,2340.48 101.04,2340.48 97.44,2340 97.2,2340 98.16,2339.76 98.88,2339.28 
		97.92,2339.28 104.4,2339.04 105.36,2339.04 106.56,2338.56 111.6,2338.32 100.8,2338.32 103.2,2337.84 99.36,2337.84 
		98.88,2337.6 101.52,2337.12 101.04,2337.12 100.08,2336.88 99.6,2336.88 101.04,2336.4 102.48,2336.16 97.92,2336.16 
		100.08,2335.68 99.6,2335.68 99.6,2335.44 98.88,2334.96 97.92,2334.96 98.64,2334.72 99.36,2334.72 97.2,2334.24 98.88,2334 
		97.2,2334 97.2,2333.52 99.6,2333.52 98.64,2333.28 98.16,2332.8 98.88,2332.8 97.92,2332.56 98.64,2332.56 98.88,2332.08 
		98.64,2331.84 96.48,2331.84 95.76,2331.36 97.44,2331.36 97.2,2331.12 96,2330.64 98.16,2330.64 96,2330.4 97.92,2330.4 
		96.72,2329.92 94.56,2329.2 97.2,2329.2 97.2,2328.96 97.44,2328.48 95.76,2328.48 95.28,2328.24 96,2328.24 98.16,2327.76 
		103.68,2327.52 105.12,2327.52 110.4,2327.04 90.72,2327.04 99.36,2326.8 92.88,2326.32 99.36,2326.32 102.24,2326.08 
		97.2,2326.08 96.48,2325.6 101.04,2325.36 96.48,2325.36 95.76,2324.88 93.84,2324.88 96.72,2324.64 97.2,2324.16 93.84,2324.16 
		91.68,2323.92 96.48,2323.92 99.36,2323.44 95.04,2323.2 95.76,2323.2 98.64,2322.72 92.4,2322.72 96.72,2322 95.76,2322 
		96,2321.76 96.72,2321.76 97.2,2321.28 96.48,2321.04 96,2320.56 96.48,2320.56 95.04,2320.32 95.28,2319.84 96.72,2319.84 
		95.28,2319.6 101.52,2319.6 96.48,2319.12 94.32,2318.88 97.44,2318.88 100.8,2318.4 96.72,2318.4 96,2318.16 95.76,2317.68 
		98.88,2317.68 97.92,2317.44 96.48,2317.44 97.2,2316.96 98.64,2316.72 95.76,2316.72 99.36,2316.24 98.64,2316.24 97.92,2316 
		96,2315.52 97.92,2315.52 97.44,2315.28 97.92,2315.28 98.16,2314.8 98.64,2314.56 96,2314.08 97.44,2314.08 96,2313.84 
		105.12,2313.36 97.2,2313.36 98.88,2313.12 99.36,2313.12 99.36,2312.64 98.64,2312.4 97.92,2312.4 98.64,2311.92 96.72,2311.92 
		100.08,2311.68 98.64,2311.2 96,2311.2 97.92,2310.96 98.88,2310.96 99.36,2310.48 98.88,2310.24 98.16,2310.24 97.2,2309.76 
		98.64,2309.52 96.72,2309.04 95.04,2309.04 98.64,2308.8 97.44,2308.8 98.64,2308.32 96.72,2308.08 96.48,2308.08 96.48,2307.6 
		97.2,2307.6 100.32,2307.36 96.72,2306.88 97.44,2306.88 98.88,2306.64 101.76,2306.64 98.16,2306.16 97.2,2305.92 101.76,2305.92 
		101.04,2305.44 100.32,2305.44 99.6,2305.2 99.36,2304.72 100.8,2304.72 99.6,2304.48 98.88,2304.48 96.48,2304 96.48,2303.76 
		99.6,2303.76 102.24,2303.28 98.16,2303.28 101.76,2303.04 100.32,2302.56 99.36,2302.56 98.16,2302.32 98.88,2302.32 
		100.08,2301.84 96.48,2301.12 100.08,2301.12 100.08,2300.88 97.2,2300.4 98.64,2300.4 99.36,2300.16 100.32,2300.16 
		101.52,2299.68 97.92,2299.44 102.48,2299.44 102.48,2298.96 101.52,2298.96 100.32,2298.72 101.04,2298.24 105.12,2298.24 
		102.48,2298 102.24,2298 103.68,2297.52 106.8,2297.28 103.2,2297.28 101.04,2296.8 102.96,2296.8 103.2,2296.56 101.76,2296.08 
		102.24,2296.08 100.8,2295.84 104.4,2295.84 108.72,2295.36 102.24,2295.12 102.96,2295.12 102.24,2294.64 99.36,2294.64 
		101.52,2294.4 101.76,2293.92 99.6,2293.92 103.2,2293.68 100.8,2293.68 100.08,2293.2 98.64,2292.96 96,2292.96 97.2,2292.48 
		100.32,2292.48 101.04,2292.24 100.32,2291.76 101.04,2291.52 101.76,2291.52 103.68,2291.04 100.32,2290.8 96,2290.8 
		99.36,2290.32 96.72,2290.32 97.92,2290.08 97.44,2289.6 99.36,2289.6 100.8,2289.36 101.52,2289.36 98.64,2288.88 98.64,2288.64 
		95.28,2288.64 100.8,2288.16 104.4,2288.16 103.92,2287.92 99.36,2287.44 104.64,2287.44 102.48,2287.2 101.04,2287.2 
		103.2,2286.72 101.52,2286.48 100.32,2286.48 103.68,2286 112.32,2286 109.68,2285.76 105.84,2285.28 106.08,2285.28 
		111.12,2285.04 107.52,2285.04 113.04,2284.56 106.56,2284.32 98.16,2284.32 101.04,2283.84 99.36,2283.84 99.6,2283.6 
		101.76,2283.12 102.48,2283.12 102.48,2282.88 106.08,2282.88 109.44,2282.4 103.68,2282.16 99.36,2282.16 100.32,2281.68 
		103.2,2281.44 101.04,2280.96 103.92,2280.96 102.96,2280.72 102.48,2280.72 105.36,2280.24 103.2,2280 103.68,2280 
		103.68,2279.52 105.12,2279.52 101.76,2279.28 102.96,2278.8 103.2,2278.8 99.6,2278.56 100.32,2278.56 98.88,2278.08 
		99.6,2277.84 96.72,2277.84 98.88,2277.36 93.6,2277.36 100.8,2277.12 95.76,2276.64 103.92,2276.64 101.04,2276.4 102.24,2276.4 
		101.52,2275.92 96.48,2275.68 98.16,2275.68 98.88,2275.2 97.2,2275.2 95.76,2274.96 97.92,2274.48 96.72,2274.48 97.2,2274.24 
		97.44,2274.24 99.36,2273.76 100.08,2273.52 97.2,2273.04 99.6,2273.04 98.88,2272.8 95.76,2272.32 97.2,2272.32 103.92,2272.08 
		104.4,2272.08 104.4,2271.6 97.44,2271.36 95.04,2271.36 93.84,2270.88 95.28,2270.88 96.72,2270.64 99.36,2270.16 96,2270.16 
		99.6,2269.92 97.92,2269.92 99.36,2269.44 97.2,2269.2 96.48,2268.72 98.64,2268.72 98.16,2268.48 99.36,2268 96.72,2268 
		97.2,2267.76 98.88,2267.76 96,2267.28 100.08,2267.04 96.72,2267.04 95.76,2266.56 96.48,2266.56 98.64,2266.32 95.76,2265.84 
		96.72,2265.84 97.44,2265.6 99.6,2265.6 96.72,2265.12 96,2264.88 99.36,2264.88 97.2,2264.4 99.6,2264.4 96.48,2264.16 
		95.76,2263.68 97.44,2263.68 97.44,2263.44 98.16,2263.44 99.36,2262.96 98.88,2262.72 98.64,2262.72 98.16,2262.24 97.92,2262.24 
		96.48,2262 100.32,2261.52 97.2,2261.52 99.6,2261.28 98.16,2261.28 98.64,2260.8 97.92,2260.56 98.64,2260.56 97.92,2260.08 
		98.16,2260.08 97.44,2259.84 97.92,2259.36 96.72,2259.36 100.8,2259.12 96.48,2259.12 97.44,2258.64 95.76,2258.4 99.6,2258.4 
		97.44,2257.92 96.48,2257.92 97.2,2257.68 96.72,2257.2 96.48,2257.2 95.28,2256.96 98.64,2256.96 97.92,2256.48 98.64,2256.24 
		96.48,2256.24 98.16,2255.76 100.32,2255.76 99.36,2255.52 96.72,2255.04 98.88,2254.8 98.64,2254.8 97.92,2254.32 96.48,2254.08 
		104.4,2254.08 107.28,2253.6 108.24,2253.6 105.12,2253.36 100.32,2252.88 101.76,2252.88 100.32,2252.64 102.24,2252.64 
		103.68,2252.16 102.48,2251.92 98.88,2251.92 98.16,2251.44 98.88,2251.44 96.48,2251.2 97.92,2250.72 99.6,2250.72 
		100.08,2250.48 97.2,2250.48 102.24,2250 99.36,2249.76 98.64,2249.76 97.92,2249.28 100.08,2249.28 98.64,2249.04 100.08,2248.56 
		100.32,2248.32 102.96,2248.32 102.24,2247.84 100.8,2247.6 99.36,2247.6 98.88,2247.12 97.44,2247.12 101.04,2246.88 
		107.52,2246.4 105.12,2246.4 106.8,2246.16 101.76,2246.16 98.64,2245.68 99.6,2245.44 97.44,2245.44 101.04,2244.96 97.2,2244.96 
		99.36,2244.72 99.36,2244.24 98.16,2244.24 106.56,2244 101.52,2244 105.84,2243.52 103.92,2243.28 99.6,2243.28 98.64,2242.8 
		96.72,2242.8 97.44,2242.56 101.76,2242.08 97.92,2242.08 103.68,2241.84 98.16,2241.84 98.16,2241.36 97.92,2241.12 
		100.08,2241.12 97.44,2240.64 99.36,2240.64 99.36,2240.4 98.64,2239.92 97.2,2239.92 96.72,2239.68 96,2239.68 98.88,2239.2 
		96,2238.96 97.2,2238.96 97.44,2238.48 99.36,2238.48 96.72,2238.24 97.92,2237.76 98.64,2237.52 98.16,2237.52 97.92,2237.04 
		96,2236.8 97.92,2236.8 97.92,2236.32 99.6,2236.32 99.6,2236.08 100.08,2235.6 96,2235.6 100.32,2235.36 97.2,2235.36 
		100.32,2234.88 98.16,2234.64 95.28,2234.64 98.88,2234.16 97.92,2234.16 97.92,2233.92 97.2,2233.2 101.04,2233.2 105.84,2232.72 
		114,2232.48 108.24,2232.48 109.68,2232 101.76,2232 99.6,2231.76 97.92,2231.28 97.44,2231.28 96.72,2231.04 98.88,2231.04 
		97.92,2230.56 99.6,2230.32 96.72,2229.84 98.88,2229.84 98.16,2229.6 100.8,2229.12 95.76,2229.12 99.36,2228.88 97.44,2228.88 
		93.84,2228.4 97.44,2228.16 98.16,2228.16 97.2,2227.68 95.76,2227.68 96.72,2227.44 96.72,2226.96 97.2,2226.96 98.88,2226.72 
		96.72,2226.72 100.32,2226.24 107.52,2226 106.08,2226 105.84,2225.52 96.48,2225.52 95.76,2225.28 97.2,2224.8 96.72,2224.8 
		97.44,2224.56 97.2,2224.56 97.44,2224.08 96,2223.84 95.28,2223.36 97.2,2223.36 96.72,2223.12 96.48,2222.64 97.92,2222.64 
		98.64,2222.4 96.72,2222.4 96.72,2221.92 97.44,2221.68 98.16,2221.68 96.48,2221.2 98.16,2221.2 96.72,2220.96 97.2,2220.48 
		97.44,2220.48 98.16,2220.24 97.44,2220.24 97.2,2219.76 97.2,2219.52 97.44,2219.52 98.88,2219.04 96.48,2219.04 96.48,2218.8 
		98.16,2218.32 110.88,2218.32 104.4,2218.08 97.44,2218.08 95.28,2217.6 96.48,2217.36 95.04,2217.36 96.48,2216.88 98.16,2216.88 
		97.44,2216.64 97.2,2216.16 93.84,2216.16 97.92,2215.92 99.36,2215.92 96.72,2215.44 86.4,2215.2 101.04,2215.2 94.32,2214.72 
		95.28,2214.72 96.48,2214.48 92.4,2214 100.8,2214 99.36,2213.76 95.76,2213.76 97.92,2213.28 95.28,2213.04 97.2,2213.04 
		95.28,2212.56 96.48,2212.56 96.72,2212.32 96,2211.84 94.32,2211.84 95.76,2211.6 95.28,2211.6 93.12,2211.12 92.4,2210.88 
		96,2210.88 95.28,2210.4 96,2210.4 95.28,2210.16 92.4,2209.68 101.76,2209.68 93.12,2209.44 96,2209.44 95.76,2208.96 96,2208.72 
		95.04,2208.72 96.48,2208.24 95.04,2208.24 93.12,2208 94.56,2207.52 95.04,2207.52 95.04,2207.28 94.32,2207.28 94.56,2206.8 
		92.88,2206.56 93.12,2206.56 91.68,2206.08 93.6,2206.08 91.68,2205.84 95.28,2205.36 94.32,2205.36 95.76,2205.12 95.04,2205.12 
		95.04,2204.64 93.6,2204.4 95.28,2204.4 97.44,2203.92 95.28,2203.92 93.6,2203.68 90.72,2203.2 94.56,2203.2 94.56,2202.96 
		94.32,2202.96 93.6,2202.24 92.16,2202.24 95.28,2201.76 93.84,2201.76 97.92,2201.52 97.2,2201.04 96.72,2201.04 95.28,2200.8 
		95.04,2200.8 95.28,2200.32 96,2200.08 98.16,2200.08 102.24,2199.6 96.48,2199.6 94.32,2199.36 98.16,2198.88 98.16,2198.64 
		97.44,2198.64 96,2198.16 96.72,2197.92 97.92,2197.92 95.28,2197.44 94.56,2197.44 92.4,2197.2 95.04,2196.72 96,2196.72 
		93.12,2196.48 94.56,2196.48 93.6,2196 93.84,2195.76 92.88,2195.28 93.84,2195.28 93.12,2195.04 95.04,2194.56 95.76,2194.56 
		96.72,2194.32 94.56,2194.32 93.6,2193.84 96,2193.6 95.04,2193.6 97.2,2193.12 96.48,2193.12 92.4,2192.88 96.48,2192.4 
		96,2192.4 96,2192.16 95.04,2192.16 95.28,2191.68 96.72,2191.44 102.24,2191.44 107.28,2190.96 103.92,2190.96 95.04,2190.72 
		94.56,2190.24 96.48,2190.24 95.04,2190 94.56,2190 97.2,2189.52 92.16,2189.28 94.56,2189.28 98.16,2188.8 95.04,2188.8 
		95.04,2188.56 94.32,2188.08 96,2187.84 94.56,2187.84 96,2187.36 106.8,2187.12 100.08,2187.12 97.44,2186.64 94.32,2186.64 
		92.4,2186.4 92.4,2185.92 91.68,2185.92 91.44,2185.68 90.24,2185.68 89.28,2185.2 95.76,2184.96 97.92,2184.96 95.76,2184.48 
		96.48,2184.48 96.72,2184.24 95.76,2183.76 97.2,2183.76 96,2183.52 96.72,2183.52 96,2183.04 96.48,2182.8 95.28,2182.8 
		96,2182.32 95.76,2182.32 96.72,2182.08 92.88,2181.6 97.92,2181.6 95.76,2181.36 92.88,2181.36 94.32,2180.88 94.56,2180.64 
		96.48,2180.64 94.56,2180.16 93.84,2180.16 94.56,2179.92 93.6,2179.44 93.12,2179.44 91.44,2179.2 94.56,2179.2 95.76,2178.72 
		95.04,2178.48 93.6,2178.48 95.04,2178 93.6,2178 99.36,2177.76 102.96,2177.28 99.6,2177.28 96.72,2177.04 97.44,2177.04 
		94.56,2176.56 97.2,2176.32 99.6,2176.32 115.44,2175.84 104.4,2175.84 97.92,2175.6 97.2,2175.12 96,2175.12 93.84,2174.88 
		97.92,2174.88 96.48,2174.4 92.4,2174.16 93.6,2174.16 95.04,2173.68 94.56,2173.68 97.2,2173.44 99.6,2172.96 100.32,2172.96 
		95.28,2172.72 96.48,2172.72 95.28,2172.24 92.4,2172 95.28,2171.52 93.6,2171.52 91.68,2171.28 93.12,2170.8 93.84,2170.8 
		95.28,2170.56 94.56,2170.56 96,2170.08 94.32,2169.84 95.04,2169.84 96.48,2169.36 93.84,2169.36 93.84,2169.12 96,2168.64 
		93.12,2168.64 94.56,2168.4 96.72,2168.4 96.48,2167.92 97.2,2167.68 95.76,2167.68 95.28,2167.2 94.56,2167.2 95.76,2166.96 
		94.32,2166.48 97.44,2166.48 95.76,2166.24 94.32,2166.24 96,2165.76 96,2165.52 95.04,2165.52 93.6,2165.04 96.48,2165.04 
		95.28,2164.8 93.84,2164.32 92.88,2164.32 94.32,2164.08 95.76,2163.6 98.16,2163.36 93.12,2163.36 102.48,2162.88 95.04,2162.88 
		96,2162.64 92.88,2162.16 95.04,2162.16 97.2,2161.92 105.12,2161.92 101.76,2161.44 98.64,2161.2 96.72,2161.2 98.64,2160.72 
		93.12,2160.72 92.16,2160.48 94.56,2160 93.6,2160 92.4,2159.76 93.12,2159.76 93.84,2159.28 93.12,2159.04 94.32,2159.04 
		93.12,2158.56 93.6,2158.56 93.12,2158.32 94.32,2157.84 95.76,2157.84 95.04,2157.6 93.84,2157.6 93.84,2157.12 92.16,2156.88 
		96,2156.88 96.48,2156.4 94.56,2156.4 95.76,2156.16 95.28,2155.68 95.76,2155.68 96.72,2155.44 92.88,2155.44 94.56,2154.96 
		95.28,2154.72 98.16,2154.72 93.12,2154.24 95.04,2154.24 92.4,2154 95.04,2153.52 93.12,2153.52 94.56,2153.28 94.32,2153.28 
		93.84,2152.8 93.12,2152.56 95.28,2152.56 95.76,2152.08 94.32,2152.08 94.32,2151.36 97.44,2151.36 93.84,2151.12 92.88,2151.12 
		97.92,2150.64 97.92,2150.4 101.52,2150.4 96.48,2149.92 96,2149.92 98.88,2149.68 98.64,2149.2 95.28,2149.2 97.2,2148.96 
		113.28,2148.96 96.48,2148.48 102.24,2148.24 97.2,2148.24 95.76,2147.76 95.04,2147.76 91.44,2147.52 94.32,2147.04 
		93.84,2147.04 93.6,2146.8 95.04,2146.32 93.12,2146.08 93.6,2146.08 94.56,2145.6 92.88,2145.6 94.56,2145.36 96,2144.88 
		95.76,2144.88 94.32,2144.64 93.84,2144.64 97.44,2144.16 94.56,2143.92 96.72,2143.92 94.56,2143.44 97.2,2143.44 95.28,2143.2 
		94.56,2142.72 93.6,2142.72 92.88,2142.48 100.32,2142.48 97.92,2142 100.8,2141.76 95.28,2141.76 95.04,2141.28 95.28,2141.28 
		92.4,2141.04 98.16,2140.56 96.72,2140.56 94.56,2140.32 95.76,2140.32 92.16,2139.84 93.84,2139.6 95.04,2139.6 94.32,2139.12 
		95.28,2139.12 96,2138.88 96.48,2138.4 105.12,2138.4 103.68,2138.16 107.52,2138.16 95.76,2137.68 97.44,2137.44 93.84,2137.44 
		95.76,2136.96 115.2,2136.96 100.32,2136.72 94.32,2136.24 96,2136.24 96,2136 93.84,2136 105.12,2135.52 100.8,2135.28 
		97.44,2135.28 92.88,2134.8 96.48,2134.8 94.56,2134.56 92.16,2134.08 94.56,2134.08 95.04,2133.84 94.32,2133.84 93.12,2133.36 
		93.12,2133.12 97.2,2133.12 96.72,2132.64 96,2132.64 94.32,2132.4 92.88,2131.92 90.24,2131.92 91.68,2131.68 95.04,2131.68 
		92.4,2131.2 93.84,2130.96 92.88,2130.96 93.6,2130.48 91.68,2130.48 93.84,2130.24 91.68,2129.76 92.16,2129.76 93.6,2129.52 
		91.44,2129.52 90.24,2129.04 90.72,2128.8 92.88,2128.8 92.4,2128.32 93.6,2128.08 90.72,2127.6 91.44,2127.6 91.44,2127.36 
		91.68,2127.36 92.88,2126.88 90.24,2126.64 91.68,2126.64 92.88,2126.16 93.6,2126.16 94.32,2125.92 94.56,2125.44 95.28,2125.44 
		93.12,2125.2 93.6,2125.2 94.56,2124.72 92.16,2124.48 93.84,2124.48 92.16,2124 93.84,2124 95.76,2123.76 95.04,2123.28 
		94.32,2123.28 93.12,2123.04 92.88,2123.04 94.56,2122.56 92.4,2122.32 92.88,2121.84 93.6,2121.84 92.88,2121.6 96.72,2121.12 
		92.88,2121.12 92.16,2120.88 90.96,2120.88 94.32,2120.4 93.6,2120.16 92.4,2120.16 93.6,2119.68 93.12,2119.68 93.12,2119.44 
		91.44,2118.96 92.88,2118.96 93.6,2118.72 94.56,2118.72 96.48,2118.24 95.76,2118 93.12,2118 95.04,2117.52 94.32,2117.52 
		92.4,2117.28 92.88,2116.8 96.72,2116.8 95.28,2116.56 95.04,2116.56 90.72,2116.08 93.6,2115.84 96.72,2115.84 122.64,2115.36 
		105.12,2115.36 94.56,2115.12 94.56,2114.64 92.16,2114.64 93.12,2114.4 92.88,2114.4 93.84,2113.92 93.84,2113.68 94.32,2113.68 
		93.12,2113.2 94.32,2113.2 95.04,2112.96 100.08,2112.48 89.28,2112.48 96.48,2112.24 92.88,2112.24 92.88,2111.76 91.68,2111.52 
		93.6,2111.52 93.12,2111.04 92.16,2111.04 100.08,2110.8 92.4,2110.32 99.36,2110.32 93.12,2110.08 92.88,2110.08 94.32,2109.6 
		94.56,2109.36 92.88,2109.36 91.68,2108.88 97.92,2108.88 92.88,2108.64 92.88,2108.16 93.12,2108.16 95.04,2107.92 92.88,2107.92 
		95.04,2107.44 93.84,2107.2 91.68,2107.2 98.88,2106.72 93.84,2106.72 94.32,2106.48 99.36,2106 124.08,2106 96.48,2105.76 
		89.28,2105.76 93.6,2105.28 93.6,2105.04 92.16,2105.04 92.88,2104.56 93.84,2104.56 95.28,2104.32 94.32,2103.84 97.92,2103.6 
		95.28,2103.6 91.68,2103.12 94.56,2102.88 91.44,2102.88 94.56,2102.4 93.84,2102.4 95.28,2102.16 95.04,2101.68 93.6,2101.68 
		93.12,2101.44 95.04,2101.44 93.84,2100.96 93.84,2100.72 95.04,2100.72 94.56,2100.24 97.44,2100.24 95.76,2100 97.44,2099.52 
		94.56,2099.52 95.28,2099.28 98.88,2099.28 104.64,2098.8 96.48,2098.56 93.12,2098.56 94.32,2098.08 97.92,2098.08 97.44,2097.84 
		97.2,2097.36 95.04,2097.36 95.76,2097.12 97.2,2097.12 92.16,2096.64 96.72,2096.4 90.72,2096.4 92.88,2095.92 94.32,2095.92 
		98.16,2095.68 100.8,2095.2 90.72,2095.2 97.92,2094.96 108.24,2094.96 91.68,2094.48 102.48,2094.24 94.32,2094.24 98.88,2093.76 
		93.12,2093.76 101.76,2093.52 95.04,2093.04 94.32,2093.04 93.6,2092.8 95.28,2092.8 92.88,2092.32 93.6,2092.08 94.56,2092.08 
		97.2,2091.6 94.32,2091.6 100.32,2091.36 105.36,2090.88 103.68,2090.88 102.24,2090.64 93.6,2090.64 93.84,2090.16 95.76,2089.92 
		95.04,2089.92 92.16,2089.44 95.04,2089.44 93.12,2089.2 93.6,2088.72 90.96,2088.72 92.4,2088.48 93.12,2088 92.4,2087.76 
		91.68,2087.76 94.56,2087.28 96.72,2087.28 92.16,2087.04 97.44,2086.56 94.32,2086.56 94.32,2086.32 92.16,2086.32 93.6,2085.6 
		92.4,2085.6 92.16,2085.12 95.28,2085.12 93.6,2084.88 93.84,2084.4 94.56,2084.4 101.76,2084.16 96,2084.16 97.44,2083.68 
		96.48,2083.44 94.32,2083.44 91.68,2082.96 93.12,2082.96 93.12,2082.72 94.56,2082.24 92.88,2082.24 92.4,2082 94.32,2082 
		91.44,2081.52 92.16,2081.28 90.24,2080.8 95.28,2080.8 92.4,2080.56 93.12,2080.08 93.84,2080.08 91.44,2079.84 92.4,2079.84 
		93.84,2079.36 94.32,2079.12 91.68,2078.64 92.4,2078.64 93.12,2078.4 90.96,2077.92 96,2077.92 90.96,2077.68 91.44,2077.68 
		93.84,2077.2 93.6,2076.96 93.12,2076.96 93.6,2076.48 93.84,2076.48 90,2076.24 93.84,2075.76 93.12,2075.76 97.2,2075.52 
		93.84,2075.52 91.68,2075.04 92.4,2074.8 95.04,2074.8 90,2074.32 90.24,2074.32 92.88,2074.08 108.24,2073.6 98.64,2073.6 
		119.04,2073.36 95.28,2073.36 92.4,2072.88 93.84,2072.64 94.56,2072.64 91.44,2072.16 95.04,2072.16 95.76,2071.92 94.32,2071.44 
		96.48,2071.44 93.84,2071.2 98.88,2071.2 92.88,2070.72 94.56,2070.48 92.4,2070.48 92.4,2070 93.12,2070 90.24,2069.76 
		92.16,2069.28 93.84,2069.28 92.88,2069.04 94.32,2069.04 92.16,2068.56 93.6,2068.32 92.16,2068.32 93.12,2067.84 93.6,2067.84 
		94.32,2067.12 94.56,2067.12 96,2066.88 97.2,2066.88 92.16,2066.16 90.24,2066.16 91.44,2065.68 91.68,2065.68 90.96,2065.44 
		91.44,2064.96 92.88,2064.96 93.12,2064.72 92.16,2064.72 92.16,2064.24 90,2064 91.44,2064 90.96,2063.52 88.56,2063.52 
		91.68,2063.28 93.6,2062.8 93.12,2062.8 91.44,2062.56 92.88,2062.56 92.88,2062.08 92.16,2061.84 91.44,2061.84 91.68,2061.36 
		92.16,2061.36 92.16,2061.12 93.12,2060.64 92.4,2060.64 92.88,2060.4 92.16,2060.4 93.6,2059.92 91.68,2059.68 94.56,2059.68 
		92.16,2059.2 93.12,2059.2 95.28,2058.96 93.12,2058.48 92.16,2058.48 92.88,2058.24 91.68,2058.24 93.12,2057.76 93.6,2057.52 
		93.84,2057.52 93.12,2057.04 92.16,2057.04 93.6,2056.8 93.12,2056.32 93.84,2056.08 93.6,2056.08 92.16,2055.6 92.88,2055.36 
		92.4,2055.36 90.96,2054.64 91.68,2054.16 93.84,2054.16 93.12,2053.92 92.4,2053.92 91.44,2053.44 94.32,2053.2 91.68,2053.2 
		92.16,2052.72 90.24,2052.72 91.44,2052.48 92.88,2052 92.4,2052 90.96,2051.76 89.28,2051.76 90,2051.28 90.24,2051.04 
		90,2051.04 90.72,2050.56 88.8,2050.56 88.56,2050.32 90.24,2049.84 92.16,2049.84 92.4,2049.6 90.96,2049.6 93.84,2048.88 
		96,2048.88 90.24,2048.4 90.96,2048.4 90,2048.16 90.24,2047.68 95.76,2047.68 99.6,2047.44 94.56,2047.44 96,2046.96 
		86.64,2046.72 93.12,2046.72 92.88,2046.24 90.72,2046.24 90,2046 91.68,2045.52 92.16,2045.52 97.44,2045.28 98.16,2045.28 
		97.44,2044.8 98.88,2044.56 95.28,2044.56 94.56,2044.08 92.4,2044.08 91.44,2043.84 92.16,2043.36 90.96,2043.36 90.96,2043.12 
		91.68,2043.12 89.52,2042.64 90.24,2042.4 89.28,2042.4 91.68,2041.92 89.52,2041.92 91.44,2041.68 93.12,2041.2 93.6,2041.2 
		93.12,2040.96 91.44,2040.48 92.4,2040.24 89.28,2040.24 91.44,2039.76 90.72,2039.76 90.24,2039.52 90,2039.04 91.68,2039.04 
		91.44,2038.8 91.68,2038.32 91.44,2038.08 90.24,2038.08 93.84,2037.6 90.72,2037.6 90.96,2037.36 91.68,2036.88 87.36,2036.88 
		91.68,2036.64 91.44,2036.64 90.72,2036.16 89.52,2035.92 88.8,2035.92 89.52,2035.44 90,2035.44 92.16,2035.2 88.8,2034.72 
		90.24,2034.72 90.24,2034.48 91.68,2034.48 92.4,2034 87.36,2033.76 96.72,2033.76 95.76,2033.28 93.6,2033.28 95.04,2033.04 
		90.72,2032.56 93.6,2032.56 95.28,2032.32 92.4,2032.32 92.88,2031.84 90.24,2031.6 91.44,2031.6 91.44,2031.12 90.96,2031.12 
		94.56,2030.88 92.16,2030.4 94.32,2030.4 91.68,2030.16 90.24,2030.16 94.32,2029.68 92.4,2029.44 92.16,2029.44 93.84,2028.96 
		92.16,2028.96 93.6,2028.72 90.24,2028.24 92.88,2028.24 93.6,2028 92.4,2028 92.4,2027.52 89.28,2027.28 91.44,2027.28 
		88.08,2026.8 89.52,2026.8 92.16,2026.56 91.68,2026.08 85.2,2026.08 73.44,2025.84 85.2,2025.84 94.32,2025.36 92.16,2025.12 
		92.4,2025.12 90,2024.64 92.88,2024.64 92.88,2024.4 90.72,2023.92 92.16,2023.92 90.96,2023.68 93.84,2023.68 88.8,2023.2 
		92.16,2022.96 93.12,2022.96 90.96,2022.48 91.68,2022.48 90.96,2022.24 96.72,2021.76 113.04,2021.76 104.64,2021.52 
		100.32,2021.52 93.6,2021.04 92.16,2020.8 91.44,2020.8 90.72,2020.32 91.68,2020.08 89.28,2019.6 92.16,2019.6 90.72,2019.36 
		88.08,2019.36 89.28,2018.88 96.72,2018.64 88.56,2018.64 94.56,2018.16 93.12,2018.16 94.32,2017.92 94.32,2017.44 92.16,2017.44 
		92.88,2017.2 93.6,2017.2 91.44,2016.48 93.12,2016.48 94.56,2016 90.72,2016 91.68,2015.76 94.32,2015.28 93.6,2015.28 
		91.44,2015.04 90.96,2015.04 91.44,2014.56 89.28,2014.32 92.88,2014.32 91.68,2013.84 91.44,2013.84 92.88,2013.6 93.6,2013.12 
		91.68,2013.12 88.56,2012.88 92.16,2012.88 92.88,2012.4 89.28,2012.16 93.12,2012.16 91.68,2011.68 92.16,2011.68 89.52,2011.44 
		87.12,2010.96 98.16,2010.96 96.72,2010.72 91.68,2010.72 91.68,2010.24 93.12,2010 92.16,2010 93.12,2009.52 93.84,2009.52 
		93.6,2009.28 91.68,2008.8 93.12,2008.8 92.88,2008.56 90.24,2008.56 93.6,2008.08 92.16,2007.84 93.84,2007.36 91.68,2007.36 
		93.6,2007.12 93.6,2006.64 91.44,2006.64 94.32,2006.4 92.88,2006.4 92.16,2005.92 92.16,2005.68 91.68,2005.68 93.12,2005.2 
		90.96,2005.2 90.96,2004.96 90.24,2004.48 91.44,2004.48 92.16,2004.24 90.96,2003.76 92.88,2003.52 91.68,2003.52 92.16,2003.04 
		91.44,2003.04 92.16,2002.8 97.2,2002.32 95.76,2002.32 92.16,2002.08 91.44,2001.6 89.28,2001.36 90.24,2001.36 88.8,2000.88 
		90.24,2000.88 88.8,2000.64 89.28,2000.16 88.8,2000.16 88.8,1999.92 90,1999.92 88.56,1999.44 88.08,1999.2 93.6,1999.2 
		90.24,1998.72 92.4,1998.72 89.52,1998.48 92.16,1998 92.88,1997.76 90.96,1997.76 90.24,1997.28 92.88,1997.04 91.44,1997.04 
		91.44,1996.56 93.84,1996.56 92.4,1996.32 92.4,1995.84 91.68,1995.84 94.56,1995.6 90.96,1995.6 94.32,1995.12 92.16,1994.88 
		98.88,1994.88 146.88,1994.4 137.04,1994.4 121.2,1994.16 108.24,1993.68 93.12,1993.68 89.52,1993.44 90.96,1993.44 
		89.52,1992.72 90.24,1992.72 88.08,1992.24 89.52,1992.24 87.12,1992 87.84,1991.52 88.56,1991.52 86.4,1991.28 90.72,1991.28 
		90.24,1990.8 89.28,1990.56 88.56,1990.56 90,1990.08 87.12,1990.08 91.68,1989.84 88.08,1989.36 90.96,1989.36 90.96,1989.12 
		88.8,1989.12 89.52,1988.64 92.16,1988.4 89.52,1988.4 89.52,1987.92 91.68,1987.92 92.16,1987.68 90,1987.2 89.28,1987.2 
		89.28,1986.96 92.4,1986.96 88.8,1986.48 88.8,1986.24 89.28,1986.24 90,1985.76 90.24,1985.76 88.08,1985.52 90.24,1985.04 
		88.8,1985.04 89.52,1984.8 88.8,1984.8 88.8,1984.32 90,1984.08 87.84,1984.08 88.56,1983.6 90,1983.36 91.68,1982.88 
		88.56,1982.88 90,1982.64 88.8,1982.64 89.52,1982.16 93.12,1981.92 91.68,1981.92 93.84,1981.44 90.24,1981.44 89.52,1981.2 
		90.24,1980.72 90.96,1980.72 90,1980.48 91.44,1980.48 92.4,1980 92.16,1979.76 91.68,1979.76 90.24,1979.28 90,1979.28 
		91.68,1979.04 92.4,1978.56 90.96,1978.56 90.72,1978.32 91.44,1978.32 92.88,1977.84 91.68,1977.6 90.96,1977.6 90.72,1977.12 
		90.96,1977.12 90.72,1976.88 90,1976.4 91.44,1976.16 90.24,1976.16 88.08,1975.68 91.68,1975.44 90.72,1975.44 90.72,1974.96 
		88.08,1974.96 88.08,1974.72 89.28,1974.24 102.24,1974 85.92,1974 100.32,1973.52 89.28,1973.28 88.56,1973.28 88.08,1972.8 
		88.8,1972.8 93.12,1972.56 90.72,1972.08 92.88,1972.08 88.56,1971.84 89.52,1971.84 89.28,1971.36 90.24,1971.12 90,1971.12 
		90,1970.64 91.44,1970.4 89.52,1969.92 91.44,1969.92 89.52,1969.68 89.28,1969.68 91.68,1969.2 89.28,1968.96 90.72,1968.96 
		90,1968.48 89.52,1968.48 92.88,1968.24 92.16,1967.76 91.44,1967.76 89.52,1967.52 90.72,1967.52 90.96,1967.04 93.12,1966.8 
		90.24,1966.8 91.68,1966.32 90.96,1966.32 91.68,1966.08 89.28,1965.6 90.24,1965.6 91.44,1965.36 90,1965.36 89.28,1964.64 
		90.24,1964.64 89.28,1964.16 88.08,1964.16 89.28,1963.92 90,1963.44 90.24,1963.2 92.16,1963.2 90,1962.72 90.72,1962.48 
		87.12,1962.48 92.4,1962 93.84,1962 89.28,1961.76 91.44,1961.28 91.68,1961.28 90.72,1961.04 91.68,1960.56 90.96,1960.32 
		93.84,1959.84 90,1959.84 90.72,1959.6 91.44,1959.12 89.52,1959.12 90.96,1958.88 89.52,1958.88 88.8,1958.4 92.16,1958.16 
		91.68,1958.16 90.24,1957.68 92.4,1957.44 90,1956.96 90.72,1956.96 91.44,1956.72 90,1956.72 92.88,1956.24 86.64,1956 
		92.88,1956 88.56,1955.52 87.12,1955.52 88.56,1955.28 85.92,1954.8 86.64,1954.8 86.4,1954.56 101.76,1954.56 95.76,1954.08 
		80.64,1953.84 85.92,1953.84 83.52,1953.36 84.48,1953.36 88.8,1953.12 86.64,1952.64 92.88,1952.64 76.32,1952.4 83.04,1952.4 
		83.52,1951.92 87.12,1951.68 93.6,1951.68 92.88,1951.2 88.56,1951.2 89.28,1950.96 89.52,1950.48 90.24,1950.48 90.72,1950.24 
		89.28,1950.24 90.72,1949.76 90.24,1949.52 90,1949.52 90.72,1949.04 90,1949.04 89.52,1948.8 89.52,1948.32 88.8,1948.32 
		87.84,1948.08 90.72,1948.08 88.56,1947.6 90,1947.36 89.52,1947.36 90,1946.88 88.56,1946.88 89.28,1946.64 89.52,1946.16 
		88.08,1946.16 89.52,1945.92 86.64,1945.92 89.52,1945.44 89.52,1945.2 86.4,1945.2 89.52,1944.72 87.36,1944.48 90,1944 
		88.56,1944 90.72,1943.76 89.52,1943.76 90,1943.28 90.72,1943.04 88.08,1943.04 87.84,1942.56 87.12,1942.56 88.08,1942.32 
		88.8,1941.84 90.96,1941.84 89.28,1941.6 87.84,1941.6 88.8,1941.12 88.08,1940.88 89.28,1940.88 89.52,1940.4 87.84,1940.4 
		88.56,1940.16 86.64,1939.68 87.12,1939.68 87.84,1939.44 90,1939.44 87.36,1938.96 88.56,1938.72 87.12,1938.72 88.8,1938.24 
		88.08,1938.24 90.96,1938 88.08,1937.52 88.56,1937.52 88.8,1937.28 90.24,1937.28 86.4,1936.8 89.28,1936.56 90,1936.56 
		90.24,1936.08 89.52,1936.08 89.52,1935.84 90.24,1935.36 90.72,1935.36 86.4,1934.64 93.6,1934.4 89.52,1934.4 87.12,1933.92 
		89.28,1933.92 89.28,1933.68 88.56,1933.2 87.36,1933.2 90,1932.96 95.28,1932.96 122.64,1932.48 103.68,1932.24 87.12,1932.24 
		86.64,1931.76 88.8,1931.76 88.08,1931.52 90,1931.04 88.56,1931.04 90.96,1930.8 90.24,1930.8 87.36,1930.32 89.28,1930.08 
		90,1930.08 88.56,1929.6 88.08,1929.6 88.56,1929.36 88.8,1928.88 88.08,1928.88 89.52,1928.64 88.8,1928.64 89.52,1928.16 
		88.08,1927.92 89.52,1927.44 88.08,1927.44 87.84,1927.2 87.12,1926.72 87.84,1926.72 87.36,1926.48 87.84,1926 87.84,1925.76 
		87.36,1925.76 88.56,1925.28 87.36,1925.28 87.84,1925.04 87.36,1924.56 88.8,1924.56 87.12,1924.32 88.8,1924.32 87.12,1923.84 
		89.28,1923.6 88.56,1923.6 89.28,1923.12 90.24,1923.12 88.8,1922.88 89.28,1922.4 87.36,1922.4 90.72,1922.16 88.56,1922.16 
		90,1921.68 88.56,1921.44 89.52,1921.44 88.56,1920.96 89.52,1920.96 88.56,1920.72 89.52,1920.24 85.92,1920.24 88.08,1920 
		90,1919.52 88.56,1919.28 95.76,1919.28 90.24,1918.8 86.64,1918.8 86.64,1918.56 87.12,1918.08 85.92,1918.08 88.08,1917.84 
		87.36,1917.84 85.68,1917.36 85.92,1917.12 85.2,1917.12 86.4,1916.64 87.12,1916.4 86.4,1915.92 88.56,1915.92 90.72,1915.68 
		85.92,1915.68 93.12,1915.2 88.56,1914.96 87.36,1914.96 87.36,1914.48 89.28,1914.48 90.72,1914.24 89.52,1913.76 90.96,1913.76 
		87.36,1913.52 89.52,1913.52 90,1913.04 88.56,1912.8 88.08,1912.8 89.28,1912.32 88.8,1912.32 88.56,1912.08 88.8,1911.6 
		87.12,1911.6 82.32,1911.36 92.4,1911.36 90.72,1910.88 87.36,1910.64 88.8,1910.64 89.28,1910.16 87.36,1910.16 100.08,1909.92 
		102.48,1909.44 96.72,1909.44 85.2,1909.2 86.64,1909.2 85.68,1908.72 85.92,1908.48 86.64,1908.48 85.68,1908 87.84,1908 
		85.68,1907.76 86.64,1907.28 86.4,1907.28 87.12,1907.04 88.08,1907.04 88.08,1906.56 88.8,1906.32 87.12,1906.32 87.84,1905.84 
		87.36,1905.84 90.72,1905.6 95.28,1905.12 97.92,1905.12 98.16,1904.88 87.12,1904.88 87.12,1904.4 88.08,1904.16 90.72,1904.16 
		89.28,1903.68 89.52,1903.68 90,1903.44 89.28,1902.96 86.4,1902.96 89.52,1902.72 87.36,1902.72 89.28,1902.24 86.4,1902 
		88.56,1902 86.64,1901.52 88.08,1901.52 86.4,1901.28 88.08,1900.8 87.12,1900.8 88.56,1900.56 89.52,1900.56 89.28,1900.08 
		88.56,1899.84 87.36,1899.84 86.64,1899.36 86.4,1899.36 85.92,1899.12 87.12,1898.64 90.96,1898.64 118.8,1898.4 105.36,1898.4 
		98.16,1897.92 90.96,1897.68 86.64,1897.68 87.84,1897.2 86.64,1897.2 87.12,1896.96 86.4,1896.48 85.92,1896.48 86.64,1896.24 
		88.08,1896.24 89.28,1895.76 86.64,1895.52 87.84,1895.52 88.8,1895.04 87.12,1895.04 87.12,1894.8 87.84,1894.32 88.08,1894.32 
		88.08,1894.08 90,1894.08 89.52,1893.6 87.84,1893.36 87.12,1893.36 87.36,1892.88 86.64,1892.64 90,1892.16 88.08,1891.92 
		87.12,1891.92 89.28,1891.44 92.88,1891.2 99.36,1891.2 100.8,1890.72 86.64,1890.72 84.96,1890.48 86.64,1890 90.24,1890 
		87.84,1889.76 88.8,1889.76 87.12,1889.28 87.12,1889.04 88.8,1889.04 86.64,1888.56 87.12,1888.56 86.4,1888.32 84.48,1887.84 
		84.96,1887.84 82.08,1887.6 84.24,1887.6 83.04,1887.12 79.92,1886.88 84.96,1886.88 79.92,1886.4 88.56,1886.4 87.36,1886.16 
		86.64,1885.68 87.84,1885.68 135.6,1885.44 99.36,1885.44 108.96,1884.96 108.96,1884.72 92.16,1884.72 79.92,1884.24 
		84.96,1884.24 91.44,1884 85.2,1883.52 90,1883.52 90.72,1883.28 90.24,1882.8 87.84,1882.56 89.28,1882.56 88.8,1882.08 
		90.96,1882.08 86.4,1881.84 85.2,1881.36 95.04,1881.36 85.2,1881.12 90.72,1881.12 84.48,1880.64 96.72,1880.4 81.6,1880.4 
		79.92,1879.92 90.96,1879.92 89.52,1879.68 90.24,1879.2 90,1879.2 86.64,1878.96 84.96,1878.96 87.84,1878.48 86.4,1878.24 
		73.68,1878.24 70.08,1877.76 53.52,1877.76 56.16,1877.52 84.48,1877.04 83.76,1877.04 89.52,1876.8 80.88,1876.8 87.12,1876.32 
		92.88,1876.08 84.24,1876.08 93.6,1875.6 91.68,1875.6 91.44,1875.36 84.24,1874.88 92.16,1874.88 90.96,1874.64 85.92,1874.64 
		85.68,1874.16 75.12,1873.92 82.08,1873.92 69.84,1873.44 83.04,1873.44 92.16,1873.2 92.16,1872.72 91.68,1872.72 89.52,1872.48 
		93.6,1872.48 93.6,1872 87.84,1871.76 93.12,1871.28 91.44,1871.28 92.16,1871.04 90.96,1870.56 85.2,1870.56 90.96,1870.32 
		94.32,1870.32 92.88,1869.84 90.72,1869.6 89.52,1869.6 91.68,1869.12 90,1869.12 90,1868.88 92.16,1868.4 89.52,1868.4 
		85.68,1868.16 93.6,1868.16 95.28,1867.68 87.84,1867.44 90.72,1867.44 93.12,1866.96 92.16,1866.96 91.44,1866.72 90.24,1866.24 
		92.16,1866 90,1865.52 91.68,1865.28 87.84,1865.28 87.12,1864.8 88.8,1864.8 81.6,1864.56 85.68,1864.08 84.24,1864.08 
		88.8,1863.84 84.96,1863.84 93.84,1863.36 88.8,1863.12 92.88,1863.12 91.44,1862.64 89.52,1862.64 88.08,1862.4 89.52,1861.92 
		87.84,1861.92 93.12,1861.68 89.28,1861.68 90.24,1861.2 88.8,1860.96 83.04,1860.96 92.4,1860.48 86.4,1860.48 92.88,1860.24 
		90,1859.76 82.08,1859.76 93.12,1859.52 92.4,1859.52 91.44,1859.04 90.24,1858.8 91.44,1858.8 97.2,1858.32 90.96,1858.32 
		89.28,1858.08 94.56,1857.6 89.28,1857.6 86.64,1857.36 88.8,1857.36 95.28,1856.88 80.16,1856.64 87.84,1856.64 95.28,1856.16 
		75.12,1856.16 89.52,1855.92 93.84,1855.44 90.24,1855.2 92.88,1855.2 89.28,1854.72 90,1854.48 85.92,1854.48 88.56,1854 
		93.84,1854 94.32,1853.76 90,1853.28 88.08,1853.28 96.48,1853.04 89.28,1853.04 87.84,1852.56 93.6,1852.32 86.4,1852.32 
		90.72,1851.84 84.48,1851.84 87.84,1851.6 91.68,1851.12 88.56,1851.12 90,1850.88 88.8,1850.88 86.4,1850.4 89.28,1850.16 
		87.84,1850.16 87.36,1849.68 90.96,1849.68 85.2,1849.44 90,1848.96 85.2,1848.72 91.68,1848.72 88.56,1848.24 86.4,1848 
		92.16,1848 88.8,1847.52 90.72,1847.52 89.52,1847.28 92.16,1846.8 87.36,1846.8 93.6,1846.56 90.72,1846.56 88.56,1846.08 
		92.4,1845.84 93.84,1845.84 91.44,1845.36 89.28,1845.36 90.96,1845.12 90,1844.64 89.52,1844.64 89.28,1844.4 85.92,1844.4 
		91.44,1843.92 90.72,1843.68 92.16,1843.68 87.84,1843.2 90.72,1843.2 91.68,1842.96 90.72,1842.48 88.08,1842.48 91.68,1842.24 
		84.48,1842.24 93.12,1841.76 87.12,1841.52 85.92,1841.52 92.4,1841.04 88.56,1841.04 95.04,1840.8 92.16,1840.32 87.36,1840.32 
		92.4,1840.08 86.4,1840.08 91.44,1839.6 92.4,1839.36 91.68,1839.36 96,1838.88 87.84,1838.88 98.16,1838.64 92.4,1838.16 
		92.88,1838.16 92.16,1837.92 91.68,1837.92 96,1837.44 90.72,1837.2 94.56,1837.2 90,1836.72 92.4,1836.72 91.68,1836.48 
		88.08,1836 87.36,1836 94.32,1835.76 92.4,1835.76 90,1835.28 89.52,1835.04 89.28,1835.04 97.44,1834.56 92.88,1834.56 
		92.16,1834.32 95.76,1833.84 93.12,1833.84 93.84,1833.6 96,1833.6 121.2,1833.12 103.2,1832.88 75.84,1832.88 92.16,1832.4 
		93.84,1832.4 91.68,1831.68 92.16,1831.68 94.32,1831.44 94.56,1831.44 93.12,1830.96 87.36,1830.72 90.24,1830.72 90.72,1830.24 
		91.68,1830.24 94.56,1830 95.04,1829.52 91.44,1829.52 89.52,1829.28 85.92,1829.28 94.56,1828.8 91.68,1828.56 93.12,1828.56 
		90.72,1828.08 90.96,1828.08 89.52,1827.84 91.68,1827.36 88.56,1827.36 90.72,1827.12 88.56,1827.12 87.84,1826.64 90.24,1826.4 
		91.68,1826.4 85.68,1825.92 90.24,1825.92 89.28,1825.68 92.4,1825.2 86.64,1825.2 88.08,1824.96 85.68,1824.48 89.52,1824.24 
		85.2,1824.24 85.92,1823.76 92.16,1823.76 88.08,1823.52 88.08,1823.04 90.72,1823.04 86.64,1822.8 91.44,1822.8 89.52,1822.32 
		91.44,1822.08 78.72,1822.08 72.96,1821.6 83.76,1821.6 82.08,1821.36 89.28,1820.88 90.24,1820.88 90.24,1820.64 87.84,1820.64 
		88.08,1820.16 90,1819.92 90.96,1819.92 90.24,1819.44 97.2,1819.44 90.24,1819.2 86.4,1818.72 92.88,1818.72 93.6,1818.48 
		86.64,1818.48 90.72,1818 93.6,1817.76 92.88,1817.76 88.08,1817.28 94.32,1817.28 88.08,1817.04 94.56,1816.56 85.68,1816.56 
		94.32,1816.32 98.88,1816.32 96.72,1815.84 90.72,1815.6 90.96,1815.6 90.96,1815.12 95.76,1815.12 92.16,1814.88 86.64,1814.4 
		97.2,1814.4 90,1814.16 87.84,1814.16 92.88,1813.68 90,1813.44 91.44,1813.44 94.32,1812.96 92.16,1812.96 93.84,1812.72 
		88.8,1812.24 89.52,1812.24 90.96,1812 85.2,1812 93.6,1811.52 90,1811.28 90.96,1811.28 92.16,1810.8 93.12,1810.8 
		117.36,1810.56 90,1810.08 93.84,1810.08 92.4,1809.84 90,1809.84 94.32,1809.36 89.28,1809.12 93.12,1809.12 95.04,1808.64 
		91.68,1808.64 91.68,1808.4 92.88,1807.92 93.84,1807.92 89.52,1807.68 90.96,1807.2 93.84,1806.96 92.16,1806.96 92.88,1806.48 
		92.4,1806.48 92.16,1806.24 107.28,1805.76 105.12,1805.76 95.76,1805.52 96,1805.52 85.68,1805.04 94.56,1804.8 93.84,1804.8 
		90,1804.32 93.12,1804.32 93.6,1804.08 95.04,1803.6 91.44,1803.6 90.24,1803.36 93.84,1803.36 93.6,1802.88 92.16,1802.64 
		93.6,1802.64 90,1802.16 90.96,1802.16 90.96,1801.92 94.56,1801.44 89.52,1801.44 90.72,1801.2 89.52,1800.72 92.16,1800.48 
		87.12,1800.48 88.56,1800 92.16,1800 87.12,1799.76 96.48,1799.28 93.84,1799.28 89.28,1799.04 86.64,1799.04 86.64,1798.56 
		90,1798.32 87.84,1798.32 92.16,1797.84 90.96,1797.84 90.72,1797.6 86.4,1797.12 92.16,1797.12 86.4,1796.88 90.96,1796.88 
		86.64,1796.4 87.12,1796.16 90.72,1796.16 88.08,1795.68 90.24,1795.68 90.72,1795.44 90.24,1794.96 87.12,1794.96 91.44,1794.72 
		88.8,1794.72 90.96,1794.24 90.24,1794 89.52,1794 90.72,1793.52 90,1793.52 91.44,1793.28 88.56,1792.8 90.72,1792.8 
		83.76,1792.56 91.68,1792.56 89.52,1792.08 89.28,1791.84 93.12,1791.84 90.24,1791.36 90,1791.36 91.44,1791.12 91.44,1790.64 
		89.28,1790.64 91.68,1790.4 90.96,1790.4 86.64,1789.92 90.96,1789.68 94.56,1789.68 87.36,1789.2 88.8,1789.2 88.8,1788.96 
		92.88,1788.48 90.24,1788.48 92.16,1788.24 90.24,1788.24 85.92,1787.76 93.84,1787.52 87.12,1787.52 91.44,1787.04 89.28,1787.04 
		89.28,1786.8 92.4,1786.32 93.6,1786.32 90.24,1786.08 91.68,1786.08 91.44,1785.6 89.52,1785.36 90.72,1785.36 89.52,1784.88 
		92.4,1784.88 88.8,1784.64 95.04,1784.16 91.68,1784.16 90.72,1783.92 90.24,1783.92 91.44,1783.44 89.28,1783.2 91.44,1783.2 
		93.6,1782.72 90.72,1782.72 90.24,1782.48 90.72,1782 90,1782 84.48,1781.76 95.28,1781.76 83.76,1781.28 83.52,1781.04 
		97.92,1781.04 87.84,1780.56 90.72,1780.56 97.44,1780.32 100.8,1779.84 96,1779.84 93.84,1779.6 92.4,1779.6 88.56,1779.12 
		91.68,1778.88 89.28,1778.88 87.84,1778.4 84.96,1778.4 91.68,1778.16 91.44,1777.68 84.96,1777.68 94.32,1777.44 90.24,1777.44 
		89.52,1776.96 93.6,1776.72 87.12,1776.72 90.72,1776.24 83.52,1776.24 93.12,1776 92.88,1775.52 89.52,1775.52 92.4,1775.28 
		93.84,1775.28 91.44,1774.8 91.44,1774.56 86.4,1774.56 89.52,1774.08 87.12,1774.08 92.88,1773.84 84.48,1773.36 99.6,1773.36 
		92.16,1773.12 94.32,1773.12 77.76,1772.64 88.8,1772.4 87.12,1772.4 88.08,1771.92 94.56,1771.92 93.12,1771.68 92.16,1771.2 
		91.68,1771.2 90,1770.96 91.44,1770.96 85.68,1770.48 87.36,1770.24 80.16,1770.24 84.96,1769.76 78.48,1769.76 85.92,1769.52 
		96,1769.04 90.72,1769.04 84.24,1768.8 89.52,1768.8 86.4,1768.32 89.28,1768.08 86.4,1768.08 93.6,1767.6 88.8,1767.6 
		93.84,1767.36 90.96,1766.88 86.4,1766.88 90.96,1766.64 89.28,1766.64 88.8,1766.16 91.68,1765.92 88.8,1765.92 86.64,1765.44 
		90.24,1765.44 90,1765.2 90.72,1764.72 91.68,1764.72 88.08,1764.48 92.88,1764.48 90.24,1764 88.8,1763.76 87.12,1763.76 
		88.8,1763.28 91.44,1763.28 89.52,1763.04 92.16,1762.56 86.64,1762.56 82.32,1762.32 95.28,1762.32 85.2,1761.84 82.8,1761.6 
		89.52,1761.6 84.48,1761.12 86.64,1761.12 91.44,1760.88 93.84,1760.4 91.44,1760.4 87.36,1760.16 93.6,1760.16 92.4,1759.68 
		87.36,1759.44 90.96,1759.44 92.88,1758.96 95.28,1758.96 85.2,1758.72 90,1758.24 92.4,1758.24 84.96,1758 91.44,1758 
		92.4,1757.52 91.68,1757.28 88.8,1757.28 95.28,1756.8 99.36,1756.8 93.84,1756.56 102.48,1756.08 121.2,1756.08 106.8,1755.84 
		108.72,1755.84 93.12,1755.36 89.52,1755.12 93.6,1755.12 90.72,1754.64 91.68,1754.4 93.12,1753.92 90.96,1753.92 91.68,1753.68 
		93.12,1753.68 92.16,1753.2 87.36,1752.96 91.68,1752.96 92.88,1752.48 93.12,1752.48 91.68,1752.24 90.24,1751.76 90.96,1751.76 
		90.72,1751.52 87.36,1751.52 90.24,1751.04 90.72,1750.8 92.88,1750.32 91.44,1750.32 92.4,1750.08 90.72,1749.6 92.4,1749.6 
		93.6,1749.36 92.16,1749.36 91.44,1748.88 85.68,1748.64 93.12,1748.64 95.04,1748.16 85.92,1748.16 91.44,1747.92 90,1747.44 
		91.68,1747.44 92.88,1747.2 91.68,1747.2 88.56,1746.72 90.24,1746.48 87.84,1746.48 89.52,1746 91.68,1746 92.16,1745.76 
		86.4,1745.28 94.56,1745.28 89.52,1745.04 92.88,1745.04 88.08,1744.56 94.56,1744.32 87.84,1744.32 93.12,1743.84 91.44,1743.84 
		92.16,1743.6 92.16,1743.12 95.28,1743.12 87.36,1742.88 91.44,1742.88 87.12,1742.4 91.68,1742.16 90.72,1742.16 91.44,1741.68 
		90.96,1741.68 88.56,1741.44 85.92,1740.96 86.64,1740.96 90.72,1740.72 93.12,1740.72 91.68,1740.24 85.92,1740 92.16,1740 
		93.84,1739.52 87.36,1739.52 93.84,1739.28 96.72,1738.8 92.88,1738.8 90.72,1738.56 89.28,1738.56 85.92,1738.08 88.8,1737.84 
		98.64,1737.84 111.6,1737.36 133.44,1737.36 105.12,1737.12 95.04,1736.64 80.16,1736.64 90,1736.4 89.28,1736.4 92.16,1735.92 
		87.12,1735.68 90.96,1735.68 90.24,1735.2 93.6,1735.2 87.12,1734.96 88.08,1734.48 87.12,1734.48 90.72,1734.24 88.56,1734.24 
		90,1733.76 88.08,1733.52 90.72,1733.52 90.72,1733.04 88.8,1733.04 108.24,1732.8 96,1732.32 93.12,1732.32 94.32,1732.08 
		87.84,1732.08 90.72,1731.6 90.96,1731.36 87.84,1731.36 93.84,1730.88 95.04,1730.88 90.72,1730.64 88.08,1730.16 90,1730.16 
		92.16,1729.92 90,1729.92 90,1729.44 91.44,1729.2 88.08,1729.2 88.08,1728.72 87.84,1728.72 108.24,1728.48 102.24,1728 
		93.12,1728 93.6,1727.76 87.12,1727.76 92.4,1727.28 89.52,1727.04 90.96,1727.04 90,1726.56 91.44,1726.56 88.8,1726.32 
		87.12,1725.84 88.56,1725.84 93.12,1725.6 83.04,1725.6 94.56,1725.12 89.52,1724.88 87.84,1724.88 95.04,1724.4 91.44,1724.4 
		91.44,1724.16 87.84,1723.68 89.52,1723.68 95.76,1723.44 92.16,1723.44 93.6,1722.96 92.88,1722.72 94.56,1722.72 94.32,1722.24 
		88.56,1722.24 94.56,1722 88.8,1721.52 92.4,1721.52 90.96,1721.28 89.52,1721.28 90.96,1720.8 93.12,1720.56 90,1720.56 
		87.36,1720.08 88.56,1720.08 92.88,1719.84 92.88,1719.36 91.44,1719.36 89.28,1719.12 92.4,1719.12 88.8,1718.64 91.68,1718.4 
		77.04,1718.4 89.52,1717.92 82.32,1717.92 88.08,1717.68 91.44,1717.2 90.72,1717.2 90.96,1716.96 90.96,1716.48 90.72,1716.24 
		89.52,1716.24 88.56,1715.76 94.56,1715.76 88.08,1715.52 92.16,1715.04 90.96,1715.04 88.8,1714.8 85.68,1714.8 89.52,1714.32 
		91.68,1714.08 86.4,1714.08 90,1713.6 93.6,1713.6 90.72,1713.36 91.44,1712.88 85.2,1712.88 90.72,1712.64 90,1712.64 
		87.84,1712.16 88.08,1711.92 90.96,1711.92 87.12,1711.44 85.92,1711.44 87.36,1711.2 87.36,1710.72 90.72,1710.72 84.24,1710.48 
		92.88,1710.48 95.04,1710 92.16,1709.76 90.24,1709.28 85.92,1709.28 82.8,1709.04 87.12,1708.56 84.24,1708.56 92.16,1708.32 
		87.36,1708.32 90.24,1707.84 90,1707.6 90.72,1707.6 74.88,1707.12 83.76,1707.12 79.92,1706.88 85.68,1706.4 90,1706.4 
		87.84,1706.16 91.68,1706.16 89.52,1705.68 88.8,1705.44 86.64,1705.44 91.68,1704.96 86.4,1704.96 90.24,1704.72 85.2,1704.24 
		83.04,1704.24 89.52,1704 85.92,1704 90.96,1703.52 91.68,1703.28 88.8,1703.28 88.56,1702.8 93.6,1702.8 89.52,1702.56 
		92.88,1702.08 90.24,1702.08 89.28,1701.84 90.24,1701.84 85.68,1701.36 87.36,1701.12 90.24,1701.12 89.28,1700.64 90,1700.64 
		90.24,1700.4 89.28,1699.92 90,1699.92 87.84,1699.68 92.16,1699.68 88.8,1699.2 88.8,1698.96 90.72,1698.96 87.84,1698.48 
		92.4,1698.48 92.16,1698.24 88.8,1697.76 85.92,1697.52 88.08,1697.52 88.56,1697.04 87.12,1696.8 90.72,1696.8 85.2,1696.32 
		85.92,1696.32 88.56,1696.08 88.8,1695.6 89.52,1695.6 86.4,1695.36 87.12,1695.36 92.88,1694.88 87.84,1694.64 84.48,1694.64 
		86.64,1694.16 95.76,1694.16 84.48,1693.92 89.52,1693.44 93.6,1693.44 92.16,1693.2 90,1693.2 91.44,1692.72 89.28,1692.48 
		94.56,1692.48 87.84,1692 94.56,1692 88.08,1691.76 90.24,1691.28 89.28,1691.28 92.88,1691.04 91.44,1691.04 90,1690.56 
		91.44,1690.32 93.6,1690.32 105.84,1689.84 94.32,1689.84 87.36,1689.6 90,1689.12 88.8,1689.12 106.08,1688.88 96,1688.88 
		90.24,1688.4 92.16,1688.16 90,1688.16 90.96,1687.68 86.4,1687.68 87.36,1687.44 94.56,1686.96 89.28,1686.96 92.4,1686.72 
		89.28,1686.72 90,1686.24 92.16,1686 91.68,1686 90.96,1685.52 88.08,1685.52 92.16,1685.28 87.12,1684.8 88.56,1684.8 
		89.52,1684.56 90.72,1684.56 91.44,1684.08 92.16,1683.84 88.08,1683.84 94.32,1683.36 85.68,1683.36 90.24,1683.12 94.32,1682.64 
		91.68,1682.64 90.72,1682.4 92.88,1682.4 91.68,1681.92 92.4,1681.68 93.84,1681.68 89.52,1681.2 100.8,1681.2 83.04,1680.96 
		93.12,1680.48 86.64,1680.48 94.32,1680.24 86.64,1680.24 93.6,1679.76 89.52,1679.52 90,1679.52 92.16,1679.04 90.72,1679.04 
		92.88,1678.8 90.24,1678.32 90.96,1678.32 92.4,1678.08 94.56,1678.08 112.56,1677.6 90.72,1677.36 93.12,1677.36 90.24,1676.88 
		85.2,1676.88 97.44,1676.64 88.08,1676.16 89.52,1676.16 90,1675.92 92.16,1675.92 88.08,1675.44 90.72,1675.2 89.28,1675.2 
		89.52,1674.72 86.64,1674.72 88.56,1674.48 91.44,1674 88.56,1674 91.68,1673.76 85.92,1673.76 88.56,1673.28 91.68,1673.04 
		89.52,1672.56 89.28,1672.56 92.88,1672.32 89.52,1671.84 84.48,1671.84 88.08,1671.6 92.16,1671.6 90.24,1671.12 82.8,1670.88 
		91.44,1670.88 88.08,1670.4 93.6,1670.4 92.4,1670.16 92.88,1669.68 92.4,1669.68 92.16,1669.44 88.8,1669.44 90,1668.96 
		92.4,1668.72 91.68,1668.72 110.4,1668.24 90.96,1668.24 90.24,1668 96.72,1667.52 94.32,1667.52 91.44,1667.28 93.84,1667.28 
		87.84,1666.8 84.48,1666.56 89.28,1666.56 88.08,1666.08 87.84,1666.08 90.24,1665.84 90.72,1665.36 90.24,1665.36 87.36,1665.12 
		89.52,1665.12 90.96,1664.64 92.16,1664.4 89.28,1664.4 90.72,1663.92 90,1663.92 93.84,1663.68 92.4,1663.2 91.44,1663.2 
		85.68,1662.96 92.16,1662.96 90.72,1662.48 88.8,1662.24 89.52,1662.24 91.68,1661.76 90,1661.76 88.8,1661.52 92.16,1661.04 
		87.12,1661.04 84.24,1660.8 91.68,1660.8 87.84,1660.32 90.24,1660.08 95.28,1660.08 88.56,1659.6 88.8,1659.6 87.84,1659.36 
		87.12,1658.88 106.08,1658.88 105.36,1658.64 112.56,1658.64 93.6,1658.16 92.16,1657.92 88.8,1657.92 83.04,1657.44 88.8,1657.44 
		87.36,1657.2 91.68,1656.72 91.44,1656.72 94.32,1656.48 94.56,1656.48 88.56,1656 90.24,1655.76 91.68,1655.76 84.96,1655.28 
		95.28,1655.28 90,1655.04 88.8,1654.56 90.96,1654.56 87.36,1654.32 85.92,1654.32 92.88,1653.84 89.52,1653.6 90,1653.6 
		83.52,1653.12 86.4,1653.12 88.8,1652.88 79.44,1652.4 88.8,1652.4 88.8,1652.16 90,1652.16 89.28,1651.68 91.68,1651.44 
		90,1651.44 92.4,1650.96 88.8,1650.96 90.72,1650.72 101.52,1650.24 100.08,1650.24 86.4,1650 87.36,1650 90,1649.52 
		93.12,1649.28 84.96,1649.28 90,1648.8 85.68,1648.8 87.12,1648.56 90.96,1648.08 86.4,1648.08 75.84,1647.84 83.52,1647.84 
		79.44,1647.36 83.52,1647.12 83.76,1647.12 80.88,1646.64 85.2,1646.64 79.44,1646.4 86.64,1645.92 88.56,1645.92 88.56,1645.68 
		84.96,1645.2 83.04,1644.96 105.84,1644.96 76.32,1644.48 79.92,1644.48 88.08,1644.24 84.24,1643.76 88.8,1643.76 82.32,1643.52 
		90.24,1643.04 85.92,1642.8 90,1642.8 88.8,1642.32 82.8,1642.32 86.4,1642.08 97.44,1641.6 93.6,1641.6 80.88,1641.36 
		94.56,1641.36 85.2,1640.88 88.8,1640.64 90.24,1640.64 90.96,1640.16 89.52,1640.16 86.64,1639.92 92.88,1639.44 88.8,1639.44 
		94.56,1639.2 88.56,1639.2 86.4,1638.72 92.4,1638.48 84.96,1638.48 86.4,1638 87.12,1638 87.12,1637.76 85.2,1637.28 
		81.36,1637.28 90.96,1637.04 83.04,1637.04 88.08,1636.56 88.8,1636.32 86.64,1636.32 77.04,1635.84 74.88,1635.84 88.56,1635.6 
		86.4,1635.12 88.8,1635.12 98.88,1634.88 87.12,1634.88 86.4,1634.4 82.08,1634.16 89.28,1634.16 83.04,1633.68 84.24,1633.68 
		81.36,1633.44 80.16,1632.96 87.84,1632.96 78.48,1632.72 83.76,1632.72 90,1632.24 89.28,1632 94.32,1632 88.56,1631.52 
		91.68,1631.52 89.52,1631.28 90.72,1630.8 90,1630.8 83.76,1630.56 89.28,1630.56 85.2,1630.08 84.96,1629.84 88.08,1629.84 
		86.4,1629.36 83.04,1629.36 93.12,1629.12 88.56,1628.64 89.28,1628.64 78.72,1628.4 103.68,1628.4 104.4,1627.92 99.6,1627.68 
		92.4,1627.68 88.56,1627.2 88.08,1627.2 87.12,1626.96 84.48,1626.48 93.12,1626.48 77.28,1626.24 84.96,1626.24 92.88,1625.76 
		87.12,1625.52 87.36,1625.52 93.12,1625.04 89.52,1625.04 83.52,1624.8 85.92,1624.32 91.68,1624.32 86.4,1624.08 90,1624.08 
		100.8,1623.6 109.44,1623.36 91.44,1623.36 80.88,1622.88 89.28,1622.88 82.32,1622.64 95.04,1622.16 84.24,1622.16 87.12,1621.92 
		90.24,1621.92 88.8,1621.44 96.48,1621.2 88.8,1621.2 88.08,1620.72 87.36,1620.72 95.28,1620.48 86.4,1620 91.68,1620 
		92.88,1619.76 86.4,1619.76 86.4,1619.28 90.24,1619.04 85.68,1619.04 89.28,1618.56 90.24,1618.56 90,1618.32 90.72,1617.84 
		85.2,1617.84 90.72,1617.6 87.84,1617.6 83.04,1617.12 85.92,1616.88 87.36,1616.88 93.84,1616.4 88.08,1616.4 91.44,1616.16 
		89.28,1615.68 83.76,1615.68 88.08,1615.44 81.36,1615.44 79.92,1614.96 86.64,1614.72 81.36,1614.72 88.08,1614.24 82.8,1614.24 
		83.04,1614 78.72,1613.52 85.92,1613.52 82.08,1613.28 88.08,1613.28 104.4,1612.8 97.2,1612.56 88.56,1612.56 86.64,1612.08 
		91.44,1612.08 96.48,1611.84 95.28,1611.36 83.52,1611.36 90.72,1611.12 90,1611.12 81.36,1610.64 83.76,1610.4 91.44,1610.4 
		88.56,1609.92 88.8,1609.92 90,1609.68 88.08,1609.2 99.6,1609.2 96.72,1608.96 76.56,1608.96 82.08,1608.48 80.88,1608.24 
		84.24,1608.24 82.8,1607.76 87.36,1607.76 88.08,1607.52 80.88,1607.04 85.92,1607.04 84.48,1606.8 87.84,1606.8 89.28,1606.32 
		84.48,1606.08 92.88,1606.08 87.12,1605.6 88.56,1605.6 86.4,1605.36 89.52,1604.88 88.8,1604.88 85.92,1604.64 80.16,1604.64 
		84.24,1604.16 85.68,1603.92 84.96,1603.92 91.44,1603.44 90.96,1603.44 85.2,1603.2 89.28,1602.72 90.96,1602.72 87.84,1602.48 
		83.76,1602.48 84.48,1602 88.56,1601.76 80.64,1601.76 90.72,1601.28 88.56,1601.28 94.32,1601.04 83.04,1600.56 82.8,1600.56 
		88.08,1600.32 82.8,1600.32 85.68,1599.84 77.28,1599.6 75.12,1599.6 89.28,1599.12 85.92,1599.12 93.6,1598.88 81.36,1598.4 
		89.28,1598.4 90.24,1598.16 92.16,1598.16 90.96,1597.68 89.28,1597.44 87.84,1597.44 83.52,1596.96 87.12,1596.96 85.68,1596.72 
		92.4,1596.24 90.24,1596.24 91.68,1596 87.84,1596 90.24,1595.52 89.52,1595.28 88.8,1595.28 94.32,1594.8 89.52,1594.8 
		92.16,1594.56 84.48,1594.08 89.52,1594.08 90,1593.84 87.12,1593.84 87.36,1593.36 82.8,1593.12 89.52,1593.12 90,1592.64 
		99.36,1592.64 133.2,1592.4 92.88,1591.92 88.56,1591.92 84.96,1591.68 107.52,1591.68 120.24,1591.2 112.32,1590.96 
		106.8,1590.96 89.28,1590.48 79.44,1590.48 82.8,1590.24 84.24,1589.76 92.4,1589.76 87.84,1589.52 91.44,1589.52 90.96,1589.04 
		83.52,1588.8 83.76,1588.8 93.6,1588.32 95.28,1588.32 90,1588.08 91.68,1587.6 80.64,1587.6 86.4,1587.36 76.56,1587.36 
		78.48,1586.88 87.12,1586.64 81.36,1586.64 82.8,1586.16 85.2,1586.16 83.52,1585.92 86.4,1585.44 87.12,1585.44 84.48,1585.2 
		83.04,1585.2 82.8,1584.72 92.16,1584.48 83.04,1584.48 88.56,1584 85.68,1584 79.92,1583.76 92.88,1583.28 86.4,1583.28 
		90.24,1583.04 80.16,1583.04 90.72,1582.56 87.12,1582.32 86.4,1582.32 88.08,1581.84 90,1581.84 90.72,1581.6 88.08,1581.12 
		92.4,1581.12 90.24,1580.88 88.08,1580.88 81.6,1580.4 91.68,1580.16 89.28,1580.16 91.44,1579.68 87.12,1579.68 87.84,1579.44 
		93.6,1578.96 85.2,1578.96 86.64,1578.72 90.72,1578.72 85.68,1578.24 88.8,1578 86.64,1578 90.24,1577.52 89.52,1577.52 
		89.52,1577.28 86.64,1576.8 84.48,1576.8 89.52,1576.56 79.2,1576.56 84.96,1576.08 82.08,1575.84 87.84,1575.84 93.84,1575.36 
		90.72,1575.36 90.24,1575.12 84.48,1574.64 88.56,1574.64 81.36,1574.4 88.08,1574.4 80.64,1573.92 87.12,1573.68 78,1573.68 
		83.52,1573.2 82.32,1573.2 89.28,1572.96 87.36,1572.48 91.68,1572.48 84.48,1572.24 89.28,1572.24 87.12,1571.76 80.64,1571.52 
		77.28,1571.52 106.08,1571.04 107.28,1571.04 103.92,1570.8 79.92,1570.32 82.8,1570.32 83.76,1570.08 95.28,1570.08 
		103.92,1569.6 107.52,1569.36 121.92,1569.36 121.68,1568.88 118.08,1568.88 105.84,1568.64 103.68,1568.16 117.6,1568.16 
		134.64,1567.92 119.76,1567.92 106.8,1567.44 93.12,1567.2 80.16,1567.2 101.04,1566.72 115.2,1566.72 91.68,1566.48 91.68,1566 
		92.88,1566 106.8,1565.76 96.48,1565.76 98.64,1565.28 92.16,1565.04 98.64,1565.04 102.48,1564.56 96,1564.56 89.28,1564.32 
		88.8,1563.84 88.56,1563.84 85.92,1563.6 89.52,1563.6 84.24,1563.12 85.92,1562.88 89.52,1562.88 78.48,1562.4 84.96,1562.4 
		79.92,1562.16 91.68,1561.68 86.64,1561.68 80.88,1561.44 86.64,1561.44 90.96,1560.96 87.36,1560.72 88.08,1560.72 88.8,1560.24 
		84.24,1560.24 84.48,1560 81.6,1559.52 82.32,1559.52 83.04,1559.28 79.44,1559.28 81.36,1558.8 72.24,1558.56 82.32,1558.56 
		77.76,1558.08 81.6,1558.08 83.52,1557.84 85.68,1557.36 82.8,1557.36 79.92,1557.12 78.48,1557.12 79.2,1556.64 79.2,1556.4 
		78.48,1556.4 79.44,1555.92 82.32,1555.92 84.24,1555.68 84.24,1555.2 81.36,1555.2 85.2,1554.96 81.36,1554.96 80.88,1554.48 
		83.76,1554.24 81.6,1554.24 82.8,1553.76 82.08,1553.76 82.08,1553.52 84.96,1553.04 83.76,1553.04 80.88,1552.8 83.52,1552.8 
		79.92,1552.32 78.48,1552.08 85.92,1552.08 79.92,1551.6 79.2,1551.6 83.04,1551.36 82.08,1550.88 80.64,1550.88 82.32,1550.64 
		79.44,1550.64 83.52,1550.16 81.6,1549.92 78.72,1549.92 81.36,1549.44 80.88,1549.44 82.32,1549.2 80.64,1548.72 84.96,1548.72 
		83.52,1548.48 83.04,1548.48 82.8,1548 80.16,1547.76 82.32,1547.76 83.04,1547.28 81.6,1547.28 83.04,1547.04 83.76,1546.56 
		76.32,1546.56 85.92,1546.32 83.76,1546.32 77.76,1545.84 85.68,1545.6 82.32,1545.6 81.36,1545.12 83.04,1545.12 82.8,1544.88 
		85.2,1544.4 84.48,1544.4 82.08,1544.16 73.68,1544.16 72.24,1543.68 80.88,1543.44 72.24,1543.44 72.96,1542.96 83.76,1542.96 
		81.36,1542.72 79.2,1542.24 77.28,1542.24 82.8,1542 82.32,1542 80.88,1541.52 80.88,1541.28 83.76,1541.28 82.8,1540.8 
		80.88,1540.8 80.16,1540.08 80.16,1539.84 77.04,1539.84 76.32,1539.36 78.48,1539.12 77.76,1539.12 81.6,1538.64 78.72,1538.4 
		80.16,1537.92 82.8,1537.92 80.88,1537.68 82.08,1537.68 76.56,1537.2 82.08,1536.96 82.8,1536.96 80.16,1536.48 83.52,1536.48 
		84.24,1536.24 82.08,1535.76 80.16,1535.76 88.08,1535.52 82.08,1535.52 83.04,1535.04 80.88,1534.8 76.56,1534.8 83.04,1534.32 
		82.8,1534.08 80.88,1533.6 84.48,1533.6 80.16,1533.36 70.56,1533.36 74.16,1532.88 82.08,1532.64 75.84,1532.64 79.2,1532.16 
		80.88,1532.16 80.64,1531.92 80.64,1531.44 81.6,1531.44 80.88,1531.2 76.56,1531.2 77.04,1530.72 84.48,1530.48 77.28,1530.48 
		87.36,1530 83.04,1530 80.64,1529.76 80.64,1529.28 84.24,1529.28 83.76,1529.04 82.8,1529.04 78,1528.56 84.48,1528.32 
		82.8,1528.32 80.88,1527.84 78,1527.84 77.28,1527.6 81.6,1527.12 71.52,1527.12 84.24,1526.88 77.76,1526.88 80.88,1526.4 
		78,1526.16 82.08,1526.16 80.64,1525.68 78.48,1525.68 80.88,1525.44 82.32,1524.96 79.92,1524.96 78,1524.72 80.64,1524.72 
		76.32,1524.24 81.36,1524 76.56,1524 75.12,1523.52 73.68,1523.52 68.64,1523.28 74.88,1522.8 97.44,1522.8 91.68,1522.56 
		103.68,1522.56 82.8,1522.08 80.64,1521.84 81.6,1521.84 79.2,1521.36 80.16,1521.36 84.96,1521.12 80.64,1520.64 83.04,1520.64 
		82.8,1520.4 79.92,1520.4 84.24,1519.92 82.32,1519.68 78.48,1519.68 82.32,1519.2 82.8,1519.2 79.2,1518.96 80.64,1518.48 
		83.76,1518.48 80.16,1518.24 82.08,1518.24 80.64,1517.76 73.68,1517.52 77.76,1517.52 67.92,1517.04 67.2,1517.04 57.6,1516.8 
		68.4,1516.32 64.08,1516.32 77.28,1516.08 81.36,1516.08 80.64,1515.6 82.8,1515.36 76.32,1515.36 83.04,1514.88 82.08,1514.88 
		82.32,1514.64 82.08,1514.16 82.32,1514.16 79.92,1513.92 83.04,1513.92 82.32,1513.44 81.36,1513.2 78.48,1513.2 80.88,1512.72 
		79.44,1512.72 82.32,1512.48 80.16,1512 83.52,1512 83.04,1511.76 81.36,1511.28 84.96,1511.04 79.92,1511.04 78.48,1510.56 
		82.32,1510.56 80.64,1510.32 79.44,1509.84 80.88,1509.84 81.6,1509.6 80.16,1509.6 83.04,1509.12 83.04,1508.88 83.52,1508.88 
		83.04,1508.4 82.32,1508.4 83.52,1508.16 80.64,1507.68 81.6,1507.68 82.32,1507.44 83.04,1506.96 81.6,1506.72 82.8,1506.72 
		84.24,1506.24 82.32,1506.24 83.04,1506 82.08,1505.52 84.24,1505.52 82.8,1505.28 79.2,1505.28 72.96,1504.8 77.04,1504.56 
		81.36,1504.56 79.44,1504.08 81.36,1504.08 82.08,1503.84 82.08,1503.36 82.32,1503.36 79.44,1503.12 81.36,1503.12 80.88,1502.64 
		80.88,1502.4 82.08,1502.4 80.64,1501.92 82.08,1501.92 80.88,1501.68 82.8,1501.2 82.08,1501.2 81.36,1500.96 82.8,1500.96 
		83.52,1500.48 83.76,1500.24 83.52,1500.24 83.52,1499.76 83.04,1499.76 83.76,1499.52 74.88,1499.04 70.56,1499.04 63.6,1498.8 
		78,1498.32 79.44,1498.08 79.2,1498.08 80.16,1497.6 82.08,1497.6 82.08,1497.36 80.88,1496.88 73.44,1496.88 68.64,1496.64 
		74.4,1496.64 67.92,1496.16 71.28,1495.92 66.96,1495.92 82.8,1495.44 77.28,1495.44 81.6,1495.2 80.88,1494.72 82.32,1494.72 
		82.8,1494.48 80.64,1494.48 83.04,1494 81.36,1493.76 77.76,1493.76 78.48,1493.28 82.8,1493.28 75.12,1493.04 80.88,1492.56 
		80.64,1492.56 82.32,1492.32 80.64,1492.32 82.08,1491.6 80.16,1491.6 82.08,1491.12 80.88,1491.12 80.88,1490.16 80.64,1490.16 
		80.64,1489.68 81.36,1489.44 80.64,1489.44 80.16,1488.96 81.36,1488.96 79.92,1488.72 79.92,1488.24 78.72,1488.24 74.16,1488 
		84.96,1488 81.6,1487.52 83.04,1487.28 78,1487.28 79.92,1486.8 82.8,1486.56 82.08,1486.08 79.44,1486.08 84.48,1485.84 
		80.16,1485.84 82.8,1485.36 81.6,1485.12 82.32,1485.12 80.88,1484.64 79.44,1484.64 78.72,1484.4 78.72,1483.68 79.2,1483.68 
		79.92,1483.2 79.92,1482.96 77.76,1482.96 83.04,1482.48 79.92,1482.48 80.64,1482.24 80.88,1481.76 80.64,1481.76 80.16,1481.52 
		78.72,1481.52 79.2,1481.04 80.64,1480.8 80.16,1480.32 80.64,1480.32 78,1480.08 78.48,1479.6 78,1479.6 79.92,1479.36 
		80.64,1479.36 82.32,1478.88 79.44,1478.64 79.92,1478.64 80.88,1478.16 79.92,1478.16 81.36,1477.92 80.64,1477.44 79.2,1477.44 
		78.72,1477.2 79.2,1477.2 79.2,1476.48 80.88,1476.48 81.6,1476 79.44,1476 79.92,1475.76 82.32,1475.28 80.16,1475.28 
		81.6,1475.04 78.72,1475.04 79.44,1474.56 81.36,1474.32 84.24,1474.32 81.6,1473.84 82.32,1473.84 82.32,1473.6 82.08,1473.12 
		83.04,1473.12 82.32,1472.88 81.36,1472.88 81.36,1472.16 79.44,1472.16 80.64,1471.68 81.36,1471.68 82.08,1471.44 82.08,1470.96 
		82.32,1470.72 80.64,1470.72 81.36,1470.24 80.88,1470 78.48,1470 80.88,1469.52 80.64,1469.52 80.16,1469.28 79.92,1468.8 
		79.44,1468.8 78.48,1468.56 80.16,1468.56 76.32,1468.08 80.88,1467.84 85.2,1467.84 83.52,1467.36 79.92,1467.36 83.04,1467.12 
		82.08,1466.64 79.2,1466.64 82.32,1466.4 80.16,1465.92 72,1465.68 82.8,1465.68 78,1465.2 78.48,1465.2 78.72,1464.96 
		78.72,1464.48 78.48,1464.48 80.16,1464.24 78,1464.24 78,1463.76 79.92,1463.52 78.48,1463.52 77.04,1463.04 79.2,1463.04 
		78,1462.8 80.88,1462.32 77.76,1462.32 78.72,1462.08 77.76,1462.08 79.92,1461.6 80.16,1461.36 78.72,1461.36 79.92,1460.88 
		81.6,1460.88 80.16,1460.64 80.64,1460.16 79.92,1459.92 69.84,1459.92 61.2,1459.44 60,1459.2 69.84,1458.72 65.76,1458.72 
		70.8,1458.48 74.16,1458 67.92,1458 65.76,1457.76 57.84,1457.76 69.36,1457.28 75.84,1457.04 80.64,1456.56 74.88,1456.56 
		75.84,1456.32 79.2,1455.84 78,1455.84 80.16,1455.6 79.44,1455.6 79.92,1455.12 74.88,1454.88 72.24,1454.88 79.44,1454.4 
		77.76,1454.4 79.92,1454.16 79.2,1453.68 85.2,1453.68 81.6,1453.44 75.12,1453.44 78.48,1452.96 76.32,1452.72 78,1452.24 
		77.28,1452.24 77.76,1452 77.04,1451.52 79.2,1451.52 75.84,1451.28 71.52,1451.28 78.48,1450.8 75.6,1450.56 77.28,1450.56 
		83.76,1450.08 75.6,1450.08 69.36,1449.84 79.2,1449.36 76.32,1449.36 83.76,1449.12 83.04,1449.12 82.08,1448.64 82.8,1448.4 
		79.44,1448.4 81.36,1447.92 77.76,1447.92 68.4,1447.68 77.28,1447.2 74.88,1447.2 80.16,1446.96 82.32,1446.96 80.88,1446.48 
		79.92,1446.24 80.88,1446.24 82.8,1445.76 77.76,1445.76 80.88,1445.52 80.16,1445.04 82.08,1445.04 76.32,1444.8 78.48,1444.8 
		78.72,1444.32 74.4,1444.08 83.04,1444.08 84.96,1443.6 80.64,1443.6 93.12,1443.36 76.32,1442.88 83.52,1442.88 68.4,1442.64 
		69.12,1442.64 78.48,1442.16 76.32,1441.92 78,1441.92 80.88,1441.44 74.88,1441.44 80.88,1441.2 77.28,1440.72 74.4,1440.72 
		90.24,1440.48 92.16,1440.48 80.88,1440 79.92,1439.76 83.76,1439.76 75.84,1439.28 80.16,1439.28 74.4,1439.04 74.4,1438.56 
		81.36,1438.56 76.56,1438.32 79.2,1438.32 77.04,1437.84 81.36,1437.6 83.76,1437.6 76.56,1437.12 81.6,1437.12 79.92,1436.88 
		83.52,1436.4 83.04,1436.4 79.92,1436.16 82.8,1436.16 78.48,1435.68 78.48,1435.44 79.44,1435.44 71.52,1434.96 72.72,1434.96 
		78.48,1434.72 81.6,1434.24 85.92,1434.24 74.16,1434 60.48,1434 67.2,1433.52 78.48,1433.28 80.88,1433.28 79.2,1432.8 
		79.92,1432.8 76.32,1432.56 81.36,1432.08 78.48,1432.08 80.16,1431.84 76.56,1431.84 82.32,1431.36 72.96,1431.12 83.52,1431.12 
		90.96,1430.64 83.52,1430.64 82.8,1430.4 69.12,1429.92 80.64,1429.92 75.6,1429.68 76.56,1429.68 79.2,1429.2 76.56,1428.96 
		75.6,1428.96 75.84,1428.48 78,1428.48 76.32,1428.24 73.68,1427.76 78.48,1427.52 76.56,1427.52 79.2,1427.04 75.6,1426.8 
		77.76,1426.8 77.76,1426.32 74.88,1426.32 77.76,1426.08 78,1425.6 77.28,1425.6 77.04,1425.36 79.2,1425.36 77.28,1424.88 
		77.04,1424.64 73.44,1424.64 73.44,1424.16 75.12,1424.16 74.16,1423.92 73.68,1423.44 79.2,1423.44 77.76,1423.2 76.56,1423.2 
		77.28,1422.72 76.56,1422.48 76.32,1422.48 75.84,1422 72.96,1422 77.04,1421.76 78,1421.28 79.44,1421.28 82.08,1421.04 
		78,1421.04 79.44,1420.56 77.28,1420.32 77.28,1419.84 80.16,1419.84 77.28,1419.6 78.72,1419.12 94.32,1419.12 84.24,1418.88 
		84.48,1418.88 76.32,1418.4 84.48,1418.16 82.8,1418.16 79.92,1417.68 77.76,1417.68 75.84,1417.44 79.2,1416.96 79.44,1416.96 
		78.72,1416.72 77.28,1416.72 80.88,1416.24 78.48,1416 80.64,1416 78.48,1415.52 75.12,1415.52 75.84,1415.28 74.16,1414.8 
		72.24,1414.8 80.16,1414.56 78.72,1414.56 70.56,1414.08 71.52,1413.84 75.12,1413.84 74.16,1413.36 77.28,1413.36 81.6,1412.64 
		77.28,1412.64 63.6,1412.4 72.24,1412.4 75.6,1411.92 79.2,1411.68 74.16,1411.68 75.12,1411.2 79.44,1411.2 73.44,1410.96 
		70.08,1410.48 76.32,1410.48 79.44,1410.24 81.6,1410.24 85.68,1409.76 81.36,1409.52 77.28,1409.52 74.4,1409.04 76.32,1409.04 
		78.48,1408.8 78,1408.32 80.64,1408.32 74.4,1408.08 76.32,1408.08 75.84,1407.6 70.8,1407.36 70.56,1407.36 70.08,1406.88 
		78.72,1406.88 78.72,1406.64 79.44,1406.16 85.92,1406.16 85.68,1405.92 81.36,1405.92 77.76,1405.44 77.28,1405.2 78,1405.2 
		70.56,1404.72 85.2,1404.72 70.8,1404.48 82.08,1404 81.36,1404 80.16,1403.76 72.72,1403.76 83.76,1403.28 77.76,1403.04 
		80.64,1403.04 72.96,1402.56 78.48,1402.56 78.48,1402.32 79.2,1401.84 77.28,1401.84 72.96,1401.6 74.88,1401.6 74.88,1401.12 
		82.8,1400.88 79.92,1400.88 76.32,1400.4 82.32,1400.4 77.28,1400.16 77.28,1399.68 74.88,1399.68 76.56,1399.44 78.72,1399.44 
		74.88,1398.96 81.6,1398.72 78.72,1398.72 78,1398.24 82.8,1398.24 78.72,1398 83.04,1397.52 80.64,1397.52 76.32,1397.28 
		79.44,1397.28 79.92,1396.8 83.76,1396.56 84.96,1396.56 74.16,1396.08 78.72,1396.08 73.44,1395.84 74.16,1395.36 83.04,1395.36 
		81.36,1395.12 78,1395.12 80.88,1394.64 81.6,1394.4 78,1394.4 79.44,1393.92 76.32,1393.92 78.72,1393.68 72.24,1393.2 
		85.92,1393.2 78.48,1392.96 78,1392.96 77.28,1392.48 81.6,1392.24 78.48,1391.76 74.88,1391.76 77.76,1391.52 82.08,1391.04 
		80.88,1391.04 79.44,1390.8 77.04,1390.8 76.56,1390.32 78.48,1390.08 78.72,1390.08 70.08,1389.6 65.52,1389.6 75.6,1389.36 
		75.12,1388.88 88.08,1388.88 75.84,1388.64 70.08,1388.64 75.12,1388.16 77.28,1387.92 83.04,1387.92 78.72,1387.44 80.64,1387.44 
		81.6,1387.2 84.24,1386.72 81.36,1386.72 73.68,1386.48 77.76,1386.48 79.44,1386 85.2,1385.76 84.24,1385.76 76.56,1385.28 
		84.48,1385.28 69.12,1385.04 66.96,1384.56 55.68,1384.56 58.56,1384.32 78,1384.32 67.92,1383.84 70.8,1383.6 67.92,1383.6 
		77.28,1383.12 75.84,1383.12 75.6,1382.88 79.92,1382.4 77.28,1382.4 78,1382.16 83.04,1381.68 98.16,1381.44 87.84,1381.44 
		90,1380.96 82.08,1380.96 85.2,1380.72 81.6,1380.24 82.32,1380.24 70.8,1380 58.32,1380 49.92,1379.52 64.32,1379.28 
		82.08,1379.28 80.64,1378.8 81.36,1378.8 84.48,1378.56 79.92,1378.08 88.56,1378.08 90.24,1377.84 81.36,1377.84 83.52,1377.36 
		84.24,1377.12 85.68,1377.12 78.48,1376.64 84.24,1376.64 56.16,1376.4 54.24,1375.92 65.52,1375.92 68.4,1375.68 73.68,1375.68 
		80.88,1375.2 74.4,1374.96 80.88,1374.96 73.44,1374.48 72.96,1374.48 80.16,1374.24 96.72,1373.76 93.12,1373.76 81.6,1373.52 
		81.36,1373.52 81.36,1370.88 	"/>
</g>
</svg>
