<?xml version="1.0" encoding="utf-8"?>
<!-- Generator: Adobe Illustrator 23.1.0, SVG Export Plug-In . SVG Version: 6.00 Build 0)  -->
<svg version="1.1" id="Слой_1" xmlns="http://www.w3.org/2000/svg" xmlns:xlink="http://www.w3.org/1999/xlink" x="0px" y="0px"
	 viewBox="0 0 144 6406" style="enable-background:new 0 0 144 6406;" xml:space="preserve">
<style type="text/css">
	
		.st0{clip-path:url(#SVGID_2_);fill:none;stroke:#000000;stroke-width:0.24;stroke-linecap:round;stroke-linejoin:bevel;stroke-miterlimit:10;}
	
		.st1{clip-path:url(#SVGID_2_);fill:none;stroke:#008B00;stroke-width:0.24;stroke-linecap:round;stroke-linejoin:bevel;stroke-miterlimit:10;}
</style>
<g>
	<defs>
		<rect id="SVGID_1_" x="0" y="-0.08" width="144" height="6406.08"/>
	</defs>
	<clipPath id="SVGID_2_">
		<use xlink:href="#SVGID_1_"  style="overflow:visible;"/>
	</clipPath>
	<line class="st0" x1="0" y1="6406.24" x2="0" y2="-0.56"/>
	<line class="st0" x1="144" y1="6406.24" x2="144" y2="-0.56"/>
	<polyline class="st1" points="50.64,6382.96 51.12,6382.72 51.12,6381.52 50.64,6381.28 50.64,6378.4 51.12,6378.4 51.12,6366.16 
		51.36,6365.68 51.36,6363.28 51.84,6363.28 52.08,6362.8 52.08,6358.24 52.56,6358.24 52.56,6335.2 52.08,6334.72 52.08,6333.28 
		52.56,6333.04 52.56,6330.4 52.8,6330.16 52.8,6325.36 52.56,6325.12 52.56,6321.52 52.8,6321.04 53.28,6320.8 53.28,6307.84 
		53.52,6307.36 53.52,6298.48 54,6298.48 54,6280.48 53.52,6280.48 53.28,6280 53.28,6279.76 52.8,6279.28 52.8,6276.88 
		53.28,6276.4 53.28,6274.72 53.52,6274.72 53.52,6274 54,6273.52 54,6273.28 54.24,6272.8 54.24,6272.56 54.72,6272.08 
		54.72,6271.36 54.96,6271.12 54.96,6270.4 55.44,6269.92 55.44,6269.2 55.68,6269.2 55.68,6268.48 56.16,6268.24 56.16,6266.08 
		56.4,6265.6 56.16,6265.36 56.16,6264.88 56.4,6264.64 56.4,6251.92 56.88,6251.92 56.88,6250.96 57.12,6250.96 57.6,6250.48 
		57.6,6249.76 57.84,6249.76 57.84,6248.8 58.32,6248.32 58.32,6245.92 57.84,6245.44 57.84,6244.48 57.6,6244.48 57.6,6243.76 
		57.12,6243.76 57.12,6243.28 55.68,6241.84 55.68,6241.6 55.44,6241.6 55.44,6241.12 54.96,6241.12 54.96,6240.88 54.72,6240.4 
		54.72,6240.16 54.24,6240.16 54.24,6238.72 54,6238.24 54,6230.32 53.52,6230.08 53.52,6228.64 53.28,6228.64 53.28,6228.16 
		52.8,6227.92 52.8,6223.12 53.28,6222.88 53.28,6222.4 53.52,6222.16 53.52,6221.68 54,6221.68 54,6221.44 54.24,6220.96 
		54.72,6220.96 54.72,6220.72 54.96,6220.72 54.96,6220.24 55.44,6220 55.68,6219.52 56.16,6219.28 56.16,6218.8 56.4,6218.8 
		56.4,6218.56 56.88,6218.08 56.88,6217.36 57.12,6217.12 57.12,6216.4 57.6,6215.92 57.6,6212.32 57.84,6212.08 57.6,6212.08 
		57.6,6204.4 57.12,6204.16 57.12,6195.52 56.88,6195.04 56.88,6191.2 57.12,6190.72 56.88,6190.48 56.88,6189.76 56.4,6189.76 
		56.4,6186.4 56.16,6186.4 56.16,6183.28 55.68,6183.28 55.68,6181.84 55.44,6181.84 55.44,6180.64 54.96,6180.64 54.96,6179.92 
		54.72,6179.68 54.72,6178.96 54.24,6178.96 54.24,6178.24 54,6177.76 54,6177.52 53.52,6177.52 53.52,6174.88 54,6174.64 
		54,6164.56 53.52,6164.56 53.52,6163.84 53.28,6163.36 53.28,6160.48 53.52,6160.48 53.52,6151.12 54,6150.88 54.24,6150.4 
		54.96,6150.4 56.4,6150.16 58.56,6149.68 61.44,6149.68 65.04,6149.44 67.68,6149.44 69.36,6148.96 69.36,6148.72 68.4,6148.72 
		66.96,6148.24 65.76,6148.24 66.24,6148 66.96,6147.52 67.68,6147.52 67.92,6147.28 67.2,6147.28 66.48,6146.8 66.24,6146.56 
		65.52,6146.56 63.6,6146.08 61.92,6146.08 60.48,6145.84 59.04,6145.36 58.56,6145.36 58.32,6145.12 59.04,6145.12 59.76,6144.64 
		60.48,6144.4 60.72,6144.4 61.2,6143.92 59.04,6143.2 57.6,6143.2 56.4,6142.96 55.44,6142.96 54.72,6142.48 54.24,6142.24 
		54,6142.24 54,6141.76 53.52,6141.76 53.52,6140.8 54.24,6140.08 55.44,6140.08 56.88,6139.6 57.6,6139.6 58.56,6139.36 
		60,6138.88 61.44,6138.88 61.92,6138.64 60.72,6138.64 60,6138.16 59.76,6137.92 60.48,6137.44 62.88,6137.44 66.24,6137.2 
		70.08,6136.72 74.16,6136.72 75.6,6136.48 76.32,6136.48 75.6,6135.76 75.12,6135.76 74.16,6135.28 72.24,6135.28 69.84,6135.04 
		66.48,6134.56 64.08,6134.56 62.64,6134.32 63.36,6133.84 65.04,6133.6 67.68,6133.6 67.92,6133.12 66.96,6133.12 65.04,6132.88 
		64.32,6132.4 64.8,6132.16 66.24,6132.16 67.2,6131.68 67.92,6131.44 67.92,6130.96 68.64,6130.96 69.36,6130.72 70.08,6130.24 
		70.8,6130.24 72,6130 72.96,6130 74.16,6129.52 73.68,6129.28 73.44,6129.28 72.96,6128.8 73.68,6128.8 74.16,6128.56 
		73.68,6128.08 72.96,6128.08 70.56,6127.84 69.12,6127.84 69.12,6127.36 69.84,6127.12 72,6127.12 74.16,6126.64 74.88,6126.64 
		74.4,6126.4 74.16,6125.92 73.68,6125.92 73.44,6125.68 72.72,6125.68 72,6124.96 70.56,6124.96 66.48,6124.48 62.64,6124.48 
		59.76,6124.24 57.12,6123.76 55.68,6123.76 55.44,6123.52 55.44,6123.04 55.68,6122.8 56.16,6122.8 56.16,6122.32 55.68,6122.32 
		55.68,6118.48 56.4,6118.48 57.12,6118 58.32,6118 59.28,6117.76 60.48,6117.28 61.44,6117.28 63.6,6117.04 65.52,6117.04 
		66.96,6116.56 67.2,6116.32 66.96,6115.84 66.24,6115.84 65.04,6115.6 63.36,6115.12 62.64,6115.12 63.6,6114.88 65.76,6114.88 
		68.64,6114.4 70.8,6114.16 72,6114.16 72.72,6113.68 72.96,6113.68 73.44,6113.44 72.24,6112.96 70.56,6112.96 68.64,6112.72 
		66.96,6112.72 64.8,6112.24 62.64,6112 61.2,6112 59.76,6111.52 59.28,6111.52 59.28,6110.8 59.04,6110.8 59.28,6110.56 
		60,6110.08 61.2,6109.84 62.88,6109.84 65.04,6109.36 65.76,6109.36 65.04,6108.64 65.52,6108.64 66.24,6108.4 67.92,6108.4 
		69.84,6107.92 71.52,6107.68 72.72,6107.68 72.24,6107.2 70.8,6107.2 68.64,6106.96 66.96,6106.48 65.76,6106.48 65.76,6105.76 
		64.8,6105.52 65.04,6105.52 65.52,6105.04 65.76,6105.04 67.2,6104.8 68.64,6104.32 70.56,6104.32 72.24,6104.08 74.4,6104.08 
		75.6,6103.6 75.84,6103.36 75.12,6103.36 74.16,6102.88 72.72,6102.88 70.8,6102.64 68.4,6102.16 64.32,6102.16 62.64,6101.92 
		62.88,6101.92 66.48,6101.44 69.36,6101.2 70.56,6101.2 70.56,6100.72 69.84,6100.72 69.12,6100.48 68.4,6100 67.68,6100 
		66.96,6099.76 67.2,6099.28 67.2,6099.04 66.96,6099.04 66.48,6098.56 66.24,6098.56 66.96,6098.32 68.64,6097.84 71.28,6097.84 
		74.16,6097.6 75.12,6097.6 75.12,6097.12 74.4,6096.88 72.24,6096.88 70.08,6096.4 67.92,6096.4 65.52,6096.16 64.8,6095.68 
		67.2,6095.68 69.84,6095.44 66.48,6094.96 62.64,6094.72 59.28,6094.72 56.4,6094.24 54.96,6094.24 54,6094 52.8,6093.52 
		52.56,6093.28 52.08,6093.28 52.08,6092.8 52.56,6092.56 52.8,6092.08 52.8,6091.36 53.28,6091.36 53.52,6091.12 54.24,6091.12 
		54.24,6089.68 54.72,6089.2 55.44,6089.2 56.16,6088.96 56.88,6088.96 57.12,6088.48 57.12,6088.24 56.88,6088.24 56.88,6087.76 
		57.12,6087.76 57.6,6087.52 57.6,6087.04 57.84,6087.04 57.6,6086.8 57.6,6086.08 57.84,6086.08 60,6085.6 62.64,6085.6 
		66.48,6085.36 70.8,6084.88 72.96,6084.88 74.4,6084.64 73.68,6084.16 72.96,6083.92 69.84,6083.92 66.96,6083.44 64.32,6083.44 
		64.32,6083.2 65.76,6082.72 67.92,6082.72 70.08,6082.48 72,6082.48 71.28,6081.76 70.08,6081.76 69.84,6081.28 71.52,6081.28 
		73.68,6081.04 74.88,6080.56 74.16,6080.56 73.68,6080.32 72.96,6080.32 72.72,6079.84 73.44,6079.6 74.88,6079.6 75.84,6079.12 
		77.04,6079.12 78,6078.88 78.48,6078.4 78.72,6078.4 78.72,6078.16 77.76,6077.68 76.56,6077.44 75.84,6077.44 74.16,6076.96 
		71.52,6076.96 68.4,6076.72 66.48,6076.24 65.04,6076.24 64.8,6076 64.08,6076 63.36,6075.52 62.88,6075.28 63.6,6074.8 
		66.48,6074.8 70.56,6074.56 72.72,6074.08 73.44,6074.08 73.44,6073.84 72.96,6073.84 72.72,6073.36 72.72,6072.4 72.24,6071.92 
		72.72,6071.68 72,6071.2 70.56,6070.96 69.12,6070.96 68.4,6070.48 68.64,6070.48 69.84,6070.24 72.72,6069.76 75.12,6069.76 
		76.56,6069.52 76.56,6069.04 75.84,6068.8 75.6,6068.8 75.12,6068.32 75.84,6068.32 77.28,6068.08 78.72,6067.6 77.28,6067.36 
		74.4,6067.36 70.08,6066.88 67.2,6066.64 65.52,6066.64 65.04,6066.16 65.52,6065.92 65.52,6065.44 66.24,6065.44 66.96,6065.2 
		67.92,6065.2 68.64,6064.72 69.36,6064.48 69.84,6064.48 69.84,6064 69.12,6063.76 68.64,6063.28 67.92,6063.28 67.2,6063.04 
		66.96,6063.04 66.24,6062.56 65.52,6062.32 64.8,6062.32 64.32,6061.84 64.8,6061.84 64.8,6061.12 65.52,6061.12 66.96,6060.88 
		67.92,6060.88 67.92,6060.4 67.68,6060.16 67.2,6060.16 66.48,6059.68 66.24,6059.68 65.52,6059.44 65.04,6058.96 64.32,6058.96 
		64.08,6058.72 63.6,6058.72 63.6,6058.24 63.36,6058 63.6,6058 64.8,6057.52 67.92,6057.52 73.44,6057.28 76.56,6056.8 
		77.28,6056.8 75.84,6056.56 72.24,6056.56 68.64,6056.08 64.8,6055.84 61.44,6055.84 59.28,6055.36 60.72,6055.12 62.16,6054.64 
		63.6,6054.64 65.52,6054.4 66.96,6054.4 69.12,6053.92 69.84,6053.68 70.08,6053.68 70.08,6052.96 68.4,6052.48 64.32,6052.48 
		61.92,6052.24 61.44,6052.24 61.2,6051.76 59.28,6051.52 57.84,6051.52 56.4,6051.04 55.44,6051.04 54.96,6050.8 55.44,6050.32 
		55.68,6050.32 56.4,6050.08 56.88,6050.08 56.4,6049.6 54.96,6049.36 54.72,6049.36 54.96,6048.88 56.16,6048.88 56.88,6048.64 
		57.6,6048.16 56.88,6047.92 56.16,6047.92 54.96,6047.44 54.72,6047.2 54.24,6047.2 54.72,6046.72 54.96,6046.72 54.96,6046.48 
		55.68,6045.76 56.88,6045.76 59.04,6045.28 61.44,6045.04 63.6,6045.04 65.52,6044.56 65.76,6044.56 65.76,6044.32 65.52,6043.84 
		66.24,6043.84 68.64,6043.6 73.44,6043.6 76.32,6043.12 75.6,6042.88 70.8,6042.88 66.24,6042.4 62.88,6042.4 60,6042.16 
		59.04,6041.68 58.32,6041.68 58.32,6040.72 58.56,6040.72 59.04,6040.24 59.28,6040.24 59.28,6037.12 59.76,6036.64 59.76,6035.2 
		59.28,6035.2 59.28,6033.52 59.76,6033.04 59.76,6030.64 59.28,6030.64 59.28,6029.92 59.04,6029.92 59.04,6022.72 59.28,6022.24 
		59.28,6022 59.76,6022 59.76,6021.52 60,6021.28 60,6020.8 60.48,6020.8 60.48,6020.56 60.72,6020.08 61.2,6019.84 61.2,6019.36 
		61.44,6019.12 61.44,6018.64 61.92,6018.4 61.92,6017.92 62.64,6017.2 62.64,6016.96 62.88,6016.96 63.36,6016.48 63.36,6015.52 
		63.6,6015.04 63.6,6014.8 64.08,6014.32 64.08,6014.08 64.32,6013.6 64.32,6013.36 65.76,6011.92 65.76,6011.44 66.24,6011.44 
		66.24,6011.2 66.48,6011.2 67.2,6010.72 67.92,6010.48 68.64,6010.48 68.64,6010 69.12,6009.76 69.84,6009.28 70.08,6009.28 
		70.56,6009.04 70.8,6009.04 71.52,6008.56 72.72,6008.32 72.24,6008.32 71.28,6007.84 69.84,6007.84 68.64,6007.6 68.4,6007.12 
		67.68,6007.12 67.68,6006.88 67.2,6006.88 67.2,6006.4 66.96,6006.16 66.48,6006.16 66.24,6005.68 66.24,6004.72 66.48,6004.24 
		66.96,6004 67.68,6004 68.4,6003.52 69.36,6003.52 69.84,6003.28 69.84,6002.8 69.36,6002.56 69.84,6002.56 70.08,6002.08 
		70.8,6001.84 71.28,6001.84 72,6001.36 71.52,6001.36 71.28,6001.12 70.08,6000.64 68.64,6000.64 67.2,6000.4 65.76,6000.4 
		64.8,5999.92 64.08,5999.68 63.36,5999.68 62.64,5999.2 62.16,5999.2 61.44,5998.48 61.2,5998.48 61.2,5998.24 60.72,5998.24 
		60.48,5997.76 60.48,5995.6 60.72,5995.36 60.72,5994.64 60.48,5994.16 61.2,5993.44 61.2,5993.2 61.44,5993.2 61.44,5992.72 
		61.92,5992.72 61.92,5992.48 62.16,5992 62.64,5992 62.64,5991.76 62.88,5991.28 63.36,5991.04 63.6,5990.56 64.08,5990.56 
		64.08,5989.84 64.32,5989.6 64.32,5988.4 64.8,5988.16 65.04,5987.68 65.52,5987.68 66.24,5987.44 66.96,5987.44 67.2,5986.96 
		67.92,5986.72 68.64,5986.72 69.12,5986.24 69.36,5986.24 69.84,5986 69.84,5985.52 70.08,5985.52 70.56,5985.28 71.28,5985.28 
		72,5984.8 72.24,5984.56 72.72,5984.56 72.96,5984.08 73.68,5984.08 74.16,5983.84 74.88,5983.36 75.12,5983.36 75.84,5983.12 
		76.56,5983.12 77.28,5982.64 78,5982.4 78.72,5982.4 79.92,5981.92 80.64,5981.92 81.6,5981.68 81.6,5981.2 82.08,5981.2 
		82.8,5980.96 83.04,5980.96 84.24,5980.48 83.76,5980.24 83.04,5980.24 82.8,5979.76 82.8,5979.04 82.32,5979.04 82.8,5978.8 
		83.04,5978.32 83.04,5976.88 83.52,5976.64 83.52,5975.44 83.04,5975.2 83.04,5974.72 82.8,5974.72 82.32,5974.48 82.08,5974.48 
		81.36,5973.76 80.88,5973.76 80.88,5973.28 80.64,5973.28 79.92,5973.04 79.44,5972.56 79.2,5972.56 78.48,5972.32 77.76,5972.32 
		77.28,5971.84 76.56,5971.6 75.84,5971.6 75.6,5971.12 75.12,5971.12 74.4,5970.4 74.16,5970.4 73.68,5970.16 73.44,5970.16 
		72.96,5969.68 72.96,5969.44 72.72,5969.44 72.24,5968.96 72,5968.96 72,5968.72 71.52,5968.24 71.28,5968.24 70.8,5968 
		70.56,5968 70.56,5967.52 70.08,5967.28 70.08,5966.8 69.84,5966.8 69.84,5966.56 69.36,5966.08 69.36,5965.84 69.12,5965.36 
		69.12,5953.84 68.64,5953.84 68.64,5953.12 68.4,5953.12 67.92,5952.88 67.68,5952.4 67.68,5952.16 67.2,5952.16 67.2,5951.68 
		66.96,5951.68 66.96,5950.96 66.48,5950.96 66.48,5950.72 66.24,5950.72 66.24,5950.24 65.76,5950 65.76,5949.52 65.52,5949.52 
		65.52,5948.56 65.04,5948.08 64.32,5947.84 64.32,5947.36 64.8,5947.36 64.8,5943.04 64.32,5943.04 64.32,5942.32 64.08,5942.32 
		64.08,5942.08 63.6,5942.08 63.6,5936.56 64.08,5936.32 64.08,5934.88 63.6,5934.88 63.6,5934.16 64.08,5933.68 63.6,5933.44 
		63.6,5932.72 64.08,5932.24 64.08,5927.68 63.6,5927.2 63.6,5926.48 64.08,5926.24 64.08,5925.76 63.6,5925.76 63.6,5907.52 
		64.08,5907.04 63.6,5906.8 63.6,5903.44 64.08,5903.44 64.08,5902 64.32,5902 64.32,5901.28 64.8,5901.04 64.8,5900.32 
		65.04,5900.32 65.04,5899.84 65.52,5899.84 65.76,5899.6 65.76,5899.12 66.24,5898.88 66.24,5898.16 66.48,5898.16 66.48,5897.68 
		66.96,5897.68 66.96,5897.44 67.2,5896.96 67.68,5896.72 67.92,5896.72 67.92,5896 68.4,5896 68.4,5895.52 68.64,5895.28 
		68.64,5894.8 69.12,5894.56 69.36,5894.08 69.36,5893.84 69.84,5893.36 69.84,5892.64 70.08,5892.4 70.08,5891.2 69.84,5891.2 
		69.84,5890.24 70.08,5889.76 70.08,5888.8 69.84,5888.32 69.36,5888.08 69.12,5887.6 69.12,5886.88 68.64,5886.88 67.92,5886.16 
		67.2,5885.92 66.96,5885.92 65.76,5884.72 65.76,5884 66.24,5884 66.24,5883.28 65.52,5883.04 65.76,5883.04 65.76,5882.56 
		66.24,5882.56 66.24,5881.84 66.48,5881.6 66.48,5881.12 66.24,5880.88 66.24,5880.4 66.48,5880.4 66.48,5880.16 66.24,5879.68 
		66.24,5877.52 66.48,5877.52 66.48,5876.8 66.24,5876.56 66.48,5876.08 66.96,5875.84 66.96,5875.36 67.2,5875.36 67.2,5875.12 
		67.68,5875.12 67.68,5874.4 67.92,5873.92 68.4,5873.92 68.4,5873.2 68.64,5873.2 68.64,5872.96 69.12,5872.48 69.12,5866.48 
		68.64,5866 68.64,5865.28 68.4,5865.28 68.4,5864.32 67.92,5864.32 67.92,5856.64 68.4,5856.4 68.64,5855.92 69.12,5855.92 
		69.36,5855.68 69.84,5855.68 70.08,5855.2 70.56,5854.96 70.8,5854.96 71.28,5854.48 72,5854.48 72.72,5853.76 72.96,5853.76 
		73.68,5853.52 74.16,5853.52 74.88,5853.04 75.6,5852.8 75.84,5852.8 77.04,5851.6 78.48,5851.6 79.44,5851.36 80.64,5851.36 
		79.92,5850.64 78.72,5850.64 78.72,5850.16 79.44,5849.92 80.64,5849.44 81.36,5849.44 81.36,5849.2 80.64,5849.2 79.92,5848.72 
		79.2,5848.48 79.44,5848 80.88,5848 82.08,5847.76 82.8,5847.28 83.52,5847.28 84.24,5846.56 84.24,5846.32 85.68,5846.32 
		87.12,5845.84 87.84,5845.84 87.12,5845.6 86.4,5845.12 85.68,5845.12 84.96,5844.88 84.48,5844.88 84.24,5844.4 84.24,5844.16 
		83.76,5844.16 83.76,5843.68 84.24,5843.44 84.48,5842.96 84.96,5842.72 84.24,5842.24 83.76,5842 83.04,5842 83.04,5841.52 
		83.52,5841.28 83.76,5840.8 83.52,5840.56 83.04,5840.56 83.04,5840.08 82.32,5839.36 81.6,5839.36 80.88,5839.12 80.16,5838.64 
		79.44,5838.64 79.92,5838.4 80.64,5838.4 82.32,5837.92 84.24,5837.68 86.64,5837.68 88.56,5837.2 90,5837.2 90.72,5836.96 
		90.72,5836.48 90,5836.48 89.28,5836.24 88.8,5836.24 88.8,5835.76 88.08,5835.52 87.84,5835.52 87.12,5835.04 85.92,5835.04 
		84.48,5834.8 82.32,5834.32 81.6,5834.32 82.32,5834.08 83.52,5834.08 84.48,5833.6 85.2,5833.36 85.68,5833.36 85.92,5832.88 
		85.68,5832.88 85.2,5832.64 84.48,5832.16 84.24,5832.16 84.24,5831.44 83.76,5831.2 83.52,5831.2 83.52,5830.72 83.76,5830.48 
		83.04,5830 82.32,5830 81.6,5829.76 80.64,5829.76 79.92,5829.28 79.44,5829.04 80.16,5829.04 81.6,5828.56 83.52,5828.56 
		83.04,5828.32 81.36,5827.84 79.44,5827.84 77.28,5827.6 76.32,5827.6 76.56,5827.12 77.28,5826.88 78.48,5826.88 79.44,5826.4 
		80.88,5826.4 82.32,5826.16 84.48,5825.68 86.4,5825.68 87.12,5825.44 86.64,5824.96 85.68,5824.72 83.76,5824.72 82.08,5824.24 
		80.64,5824.24 80.64,5824 81.6,5823.52 82.8,5823.52 83.04,5823.28 82.8,5823.28 83.04,5822.8 83.76,5822.56 84.48,5822.56 
		84.96,5822.08 84.48,5822.08 84.24,5821.84 83.52,5821.36 83.76,5821.36 84.24,5821.12 84.96,5821.12 85.2,5820.64 84.96,5820.4 
		85.2,5820.4 86.64,5819.92 88.8,5819.92 90.96,5819.68 91.68,5819.2 91.44,5819.2 90.96,5818.96 90.24,5818.96 89.52,5818.48 
		88.8,5818.24 88.08,5818.24 87.36,5817.76 87.84,5817.52 87.84,5817.04 87.36,5816.8 87.12,5816.8 87.36,5816.32 87.84,5816.08 
		88.08,5816.08 87.12,5815.6 85.92,5815.6 84.96,5815.36 83.76,5814.88 84.48,5814.64 85.2,5814.64 85.92,5814.16 85.2,5813.92 
		83.04,5813.92 79.92,5813.44 74.88,5813.44 71.52,5813.2 69.84,5812.72 69.36,5812.72 69.36,5812.48 69.84,5812.48 70.56,5812 
		71.52,5811.76 72.24,5811.76 72.96,5811.28 73.44,5811.04 73.44,5810.56 72.96,5810.56 72.96,5810.32 72.72,5810.32 72.72,5809.84 
		72.24,5809.6 72,5809.6 71.28,5809.12 70.08,5809.12 68.64,5808.88 67.2,5808.4 66.24,5808.4 65.04,5808.16 64.32,5808.16 
		63.36,5807.68 62.64,5807.44 62.16,5807.44 61.92,5806.96 61.44,5806.96 61.2,5806.72 61.2,5806.24 60.72,5806.24 60.72,5806 
		60,5806 59.76,5805.52 59.28,5805.28 58.56,5805.28 57.6,5804.8 56.4,5804.8 55.44,5804.56 54.72,5804.08 54,5804.08 54,5803.84 
		53.52,5803.36 53.52,5802.64 52.56,5801.68 52.56,5799.76 52.08,5799.52 52.08,5792.56 52.56,5792.32 52.56,5791.12 52.8,5791.12 
		52.8,5790.88 52.56,5790.4 52.56,5790.16 52.08,5789.68 52.08,5782.96 52.56,5782.48 52.56,5778.64 52.08,5778.16 52.08,5777.92 
		52.56,5777.92 52.56,5775.04 52.8,5774.56 53.28,5774.32 53.52,5773.84 54,5773.84 54,5773.6 54.24,5773.6 54.24,5773.12 
		54.72,5772.88 54.96,5772.4 54.96,5772.16 55.44,5771.68 55.44,5770.96 55.68,5770.72 55.68,5770.24 56.16,5770.24 56.16,5764.24 
		55.68,5764.24 55.68,5763.76 55.44,5763.76 55.68,5763.52 55.68,5763.04 56.16,5763.04 56.88,5762.8 57.12,5762.8 58.32,5762.32 
		59.28,5762.08 61.92,5762.08 64.8,5761.6 68.4,5761.6 70.08,5761.36 68.64,5760.88 66.48,5760.88 64.8,5760.64 64.32,5760.64 
		65.76,5760.16 66.96,5759.92 66.24,5759.92 65.76,5759.44 66.96,5759.44 70.08,5759.2 73.44,5758.72 76.32,5758.72 77.76,5758.48 
		77.28,5758.48 74.88,5758 72.24,5757.76 70.56,5757.76 69.84,5757.28 70.8,5757.28 72.96,5757.04 75.12,5756.56 77.76,5756.56 
		79.44,5756.32 78.48,5755.84 77.28,5755.6 76.32,5755.6 75.6,5755.12 74.88,5755.12 73.68,5754.88 72.24,5754.4 72,5754.4 
		72.72,5754.16 73.68,5754.16 74.88,5753.68 75.6,5753.44 75.12,5753.44 74.16,5752.96 72.96,5752.96 71.52,5752.72 70.08,5752.24 
		69.12,5752.24 67.92,5752 67.2,5752 66.24,5751.52 65.52,5751.28 64.32,5751.28 64.08,5750.8 63.6,5750.8 63.6,5747.68 
		64.32,5747.68 66.96,5747.2 69.84,5746.96 74.4,5746.96 76.56,5746.48 76.56,5745.76 77.04,5745.76 77.28,5745.52 78,5745.52 
		79.2,5745.04 82.8,5744.8 86.4,5744.8 90,5744.32 91.68,5744.32 92.16,5744.08 90.96,5743.6 90,5743.6 89.28,5743.36 88.8,5743.36 
		88.08,5742.88 85.92,5742.64 80.88,5742.64 75.6,5742.16 70.08,5742.16 67.2,5741.92 65.76,5741.44 65.52,5741.44 65.52,5738.32 
		65.76,5738.32 66.48,5737.6 66.48,5737.12 66.96,5736.88 66.96,5736.16 67.2,5736.16 67.2,5735.68 67.68,5735.68 67.68,5734.96 
		67.92,5734.72 67.92,5730.4 67.68,5730.4 67.68,5729.92 67.2,5729.68 66.96,5729.2 66.48,5728.96 66.48,5728.48 66.96,5728.24 
		66.96,5727.52 66.24,5727.52 65.76,5727.04 65.52,5727.04 65.52,5726.8 65.04,5726.32 65.04,5726.08 64.8,5726.08 64.8,5723.92 
		65.04,5723.44 65.04,5723.2 65.52,5722.72 65.76,5722.72 65.76,5722.48 66.24,5722 66.24,5719.12 66.48,5718.88 66.24,5718.88 
		66.24,5718.4 66.48,5718.4 66.48,5717.68 66.24,5717.68 65.76,5717.44 65.76,5716.96 66.24,5716.72 66.96,5716.72 66.96,5716.24 
		66.48,5716 66.24,5715.52 66.24,5714.8 66.48,5714.56 66.48,5713.36 66.24,5713.36 66.24,5711.92 65.76,5711.68 66.24,5711.2 
		65.76,5710.96 65.52,5710.48 66.24,5709.76 66.48,5709.76 66.96,5709.52 67.2,5709.04 66.48,5708.8 65.52,5708.8 64.32,5708.32 
		63.36,5708.08 62.64,5708.08 62.16,5707.6 62.16,5707.36 62.64,5706.88 62.16,5706.64 61.44,5706.64 61.2,5706.16 61.2,5705.92 
		61.92,5705.44 62.88,5705.44 64.8,5705.2 65.76,5704.72 65.52,5704.72 64.32,5704.48 63.36,5704.48 62.64,5704 62.16,5703.76 
		62.16,5703.28 62.88,5703.28 64.08,5703.04 64.32,5702.56 64.08,5702.56 63.36,5702.32 62.16,5702.32 61.44,5701.84 61.2,5701.6 
		60.72,5701.6 60.72,5701.12 61.2,5701.12 61.2,5700.4 60.72,5700.4 60,5700.16 59.76,5700.16 59.76,5699.44 60,5699.44 60,5698.96 
		59.28,5698.72 59.04,5698.24 58.56,5698.24 59.04,5698 59.76,5698 60.48,5697.52 61.2,5697.28 61.44,5697.28 60.72,5696.8 
		60,5696.8 59.28,5696.56 59.28,5696.08 60.72,5696.08 62.16,5695.84 64.08,5695.84 64.8,5695.36 64.32,5695.12 63.36,5695.12 
		61.44,5694.64 60,5694.64 59.28,5694.4 59.04,5693.92 59.04,5693.68 59.28,5693.2 59.28,5692.96 59.76,5692.96 59.28,5692.48 
		59.04,5692.48 58.56,5692.24 58.32,5691.76 57.84,5691.76 57.84,5691.52 57.6,5691.52 57.6,5691.04 57.12,5690.8 57.12,5690.32 
		56.88,5690.32 56.88,5689.6 56.4,5689.6 56.4,5689.36 56.16,5688.88 56.16,5688.16 55.68,5688.16 55.68,5687.2 55.44,5686.72 
		55.44,5685.04 54.96,5685.04 54.96,5679.52 54.72,5679.28 54.72,5676.64 54.96,5676.4 54.96,5675.2 55.68,5674.96 56.88,5674.48 
		58.32,5674.48 61.92,5674.24 66.48,5674.24 71.28,5673.76 75.12,5673.52 75.84,5673.52 74.88,5673.04 73.68,5673.04 73.68,5672.8 
		75.6,5672.32 78,5672.32 79.44,5672.08 80.16,5671.36 80.88,5671.36 81.6,5670.88 82.32,5670.88 83.04,5670.64 83.76,5670.16 
		84.48,5670.16 85.2,5669.92 85.68,5669.92 86.4,5669.44 86.64,5669.2 87.36,5669.2 88.56,5668.72 90,5668.72 91.44,5668.48 
		92.88,5668 94.32,5668 94.56,5667.76 92.88,5667.76 90.72,5667.28 88.08,5667.04 86.4,5667.04 85.68,5666.56 85.92,5666.56 
		86.4,5666.32 86.4,5665.84 87.12,5665.6 88.08,5665.6 89.52,5665.12 91.44,5664.88 93.84,5664.88 96.72,5664.4 97.92,5664.4 
		96.48,5664.16 94.32,5663.68 91.68,5663.68 89.52,5663.44 88.56,5663.44 87.84,5662.96 86.64,5662.72 84.48,5662.72 79.44,5662.24 
		75.12,5662.24 72.72,5662 72,5661.52 72.24,5661.52 73.44,5661.28 74.4,5661.28 74.16,5660.8 72.72,5660.56 70.56,5660.56 
		69.84,5660.08 71.28,5660.08 74.16,5659.84 76.56,5659.36 78,5659.36 77.04,5659.12 77.76,5658.64 79.44,5658.4 80.88,5658.4 
		81.36,5657.92 80.16,5657.92 78.72,5657.68 76.56,5657.2 74.4,5657.2 72.72,5656.96 71.28,5656.96 70.08,5656.48 69.12,5656.24 
		68.64,5656.24 68.64,5655.76 69.36,5655.76 70.56,5655.52 71.52,5655.04 72,5655.04 70.8,5654.8 69.12,5654.8 65.04,5654.32 
		62.64,5654.08 60.72,5654.08 60.48,5653.6 60.48,5652.88 61.2,5652.64 61.44,5652.64 62.16,5652.16 62.16,5651.92 61.92,5651.92 
		61.92,5651.2 61.44,5650.72 61.44,5650 62.16,5649.76 65.04,5649.76 68.64,5649.28 72,5649.28 75.12,5649.04 78,5648.56 
		80.88,5648.56 82.8,5648.32 83.76,5648.32 83.76,5647.84 81.6,5647.6 83.76,5647.12 86.64,5647.12 89.28,5646.88 88.8,5646.4 
		85.92,5646.4 80.88,5646.16 75.84,5646.16 72.72,5645.68 73.68,5645.44 77.04,5645.44 79.44,5644.96 78.48,5644.72 76.32,5644.24 
		75.12,5644.24 75.84,5644 79.2,5644 82.8,5643.52 85.68,5643.28 86.64,5643.28 86.4,5642.8 85.2,5642.8 83.04,5642.56 
		80.64,5642.08 78.48,5642.08 76.56,5641.84 75.6,5641.84 76.32,5641.36 79.2,5641.12 82.8,5641.12 83.76,5640.64 83.04,5640.64 
		79.92,5640.4 76.32,5639.92 72.96,5639.92 69.84,5639.68 67.92,5639.68 67.68,5639.2 67.2,5638.96 67.2,5637.76 66.96,5637.52 
		66.96,5636.8 67.68,5636.8 68.4,5636.32 69.36,5636.32 70.56,5636.08 70.8,5635.6 70.08,5635.6 69.84,5635.36 70.08,5634.88 
		70.56,5634.64 70.08,5634.64 69.36,5634.16 67.92,5634.16 67.68,5633.92 67.68,5633.44 67.2,5633.2 67.2,5631.28 67.68,5631.04 
		67.68,5628.88 67.2,5628.88 67.2,5624.08 67.68,5623.84 67.68,5620.24 67.2,5619.76 67.2,5617.6 67.68,5617.36 67.68,5611.12 
		67.2,5610.88 67.2,5609.44 67.68,5609.44 68.4,5608.96 69.12,5608.72 69.84,5608.72 69.84,5608.24 69.36,5608.24 69.36,5607.52 
		69.12,5607.52 69.12,5605.36 68.64,5605.12 68.64,5603.2 68.4,5603.2 68.4,5601.76 67.92,5601.76 67.92,5600.32 67.68,5600.08 
		67.68,5599.6 67.2,5599.6 67.2,5598.64 66.48,5598.16 66.24,5597.92 66.24,5597.44 65.76,5597.2 65.76,5593.84 65.52,5593.6 
		65.52,5591.44 65.04,5590.96 65.04,5590.72 65.52,5590.24 65.04,5590.24 65.04,5590 64.8,5590 64.8,5589.52 64.32,5589.28 
		64.32,5588.08 64.08,5588.08 63.6,5587.84 63.6,5586.64 63.36,5586.4 63.6,5585.92 64.08,5585.92 64.32,5585.68 64.08,5585.68 
		64.08,5585.2 63.6,5584.96 63.6,5582.32 64.08,5582.08 64.08,5581.6 64.32,5581.6 64.32,5580.64 64.08,5580.64 64.08,5580.16 
		64.32,5580.16 64.32,5578.48 65.04,5578 65.76,5578 65.76,5577.76 66.48,5577.28 66.48,5568.64 66.24,5568.4 66.48,5568.4 
		66.48,5563.6 66.96,5563.36 67.2,5562.88 67.68,5562.88 67.68,5562.64 67.2,5562.16 67.2,5561.92 66.96,5561.44 67.2,5561.2 
		67.68,5561.2 67.68,5560.72 67.92,5560.48 67.68,5560 67.68,5559.04 67.2,5558.56 67.68,5558.32 67.68,5557.6 67.2,5557.12 
		67.2,5556.88 67.68,5556.88 67.68,5556.16 67.92,5555.68 67.68,5555.68 67.2,5555.44 67.2,5554.96 66.48,5554.72 66.24,5554.72 
		66.48,5554.24 66.96,5554.24 67.68,5554 67.92,5553.52 67.92,5553.28 67.68,5552.8 67.2,5552.56 67.68,5552.08 68.64,5552.08 
		70.56,5551.84 72.24,5551.36 73.44,5551.36 72.24,5551.12 71.28,5551.12 70.08,5550.64 69.12,5550.4 68.64,5550.4 68.64,5549.92 
		68.4,5549.92 68.4,5549.68 68.64,5549.2 69.36,5549.2 70.08,5548.96 71.28,5548.96 71.28,5548.48 70.8,5548.24 70.56,5548.24 
		70.8,5547.76 71.28,5547.76 72,5547.04 71.52,5547.04 70.8,5546.8 69.84,5546.8 69.12,5546.32 69.36,5546.08 71.28,5546.08 
		72.72,5545.6 74.16,5545.6 75.12,5545.36 75.84,5544.88 77.04,5544.88 78,5544.64 79.2,5544.64 79.92,5544.16 79.92,5543.44 
		79.44,5543.44 79.44,5542.72 80.64,5542.72 82.8,5542.48 85.2,5542.48 86.64,5542 87.12,5541.76 88.56,5541.76 91.44,5541.28 
		94.56,5541.28 96,5541.04 94.56,5540.56 93.12,5540.56 92.4,5540.32 92.16,5540.32 92.16,5539.84 91.68,5539.6 90.24,5539.6 
		90,5539.12 90.24,5539.12 90.72,5538.88 92.16,5538.4 91.68,5538.16 91.44,5538.16 91.44,5537.44 91.68,5537.44 92.88,5536.96 
		95.04,5536.96 97.92,5536.72 100.32,5536.24 98.88,5536.24 95.76,5536 94.32,5536 93.6,5535.52 93.12,5535.28 92.4,5535.28 
		91.44,5534.8 90.24,5534.8 90.72,5534.56 91.44,5534.08 90.96,5534.08 90.24,5533.84 90.72,5533.84 92.4,5533.36 94.32,5533.12 
		96,5533.12 95.76,5532.64 95.04,5532.64 95.04,5532.4 96,5531.92 97.44,5531.92 98.16,5531.68 98.64,5531.68 100.08,5531.2 
		102.48,5530.96 105.12,5530.96 106.8,5530.48 107.52,5530.48 	"/>
	<polyline class="st1" points="15.12,5503.6 17.28,5502.88 18.72,5502.88 20.4,5502.4 22.32,5502.4 24,5502.16 25.92,5501.68 
		27.6,5501.68 28.32,5501.44 29.04,5501.44 29.76,5500.96 31.2,5500.72 32.64,5500.72 34.56,5500.24 36.96,5500.24 38.88,5500 
		39.84,5499.52 40.32,5499.52 41.04,5499.28 42.72,5499.28 45.36,5498.8 48.24,5498.56 50.4,5498.56 52.08,5498.08 54,5498.08 
		54.96,5497.84 56.4,5497.36 57.84,5497.36 59.76,5497.12 60.72,5497.12 60.72,5496.4 60.48,5496.4 60,5495.92 60.48,5495.92 
		61.44,5494.96 61.92,5494.96 61.2,5494.48 60.48,5494.24 60,5494.24 60.72,5493.76 62.16,5493.76 64.8,5493.52 69.12,5493.04 
		72.96,5493.04 75.6,5492.8 76.56,5492.8 76.56,5492.32 77.04,5492.08 77.04,5482 77.28,5482 78,5481.52 79.2,5481.28 
		79.92,5481.28 79.92,5480.8 79.2,5480.8 79.2,5480.56 78,5479.36 78,5476.96 78.48,5476.96 78.48,5476.48 78.72,5476.48 
		79.2,5476.24 79.44,5475.76 79.44,5475.52 79.92,5475.52 81.36,5474.8 80.88,5474.8 80.16,5474.32 79.44,5474.32 78.72,5473.6 
		78.72,5473.36 79.2,5473.36 79.2,5472.16 78.72,5472.16 78.72,5471.92 78.48,5471.44 78.48,5471.2 78,5471.2 78,5470.72 
		77.76,5470.48 77.76,5468.32 77.28,5468.32 77.28,5467.6 77.04,5467.12 77.04,5461.36 76.56,5461.12 76.56,5460.64 77.76,5460.64 
		79.2,5460.4 80.16,5460.4 80.64,5459.92 80.64,5459.68 80.16,5459.2 79.92,5459.2 79.2,5458.96 78.72,5458.48 78.48,5458.48 
		78.48,5458.24 78,5458.24 78,5447.68 77.76,5447.68 77.28,5447.44 77.28,5445.52 77.76,5445.28 78.48,5445.28 80.64,5444.8 
		83.04,5444.56 85.2,5444.56 85.92,5444.08 85.68,5443.84 84.96,5443.36 83.76,5443.36 81.6,5443.12 79.92,5443.12 78.72,5442.64 
		78.72,5439.52 78.48,5439.04 79.2,5438.32 79.2,5438.08 78.72,5437.6 78.48,5437.6 78.48,5436.88 79.2,5436.88 80.16,5436.64 
		80.88,5436.64 80.88,5436.16 80.64,5435.92 79.92,5435.92 79.92,5435.44 79.44,5435.2 79.44,5434.72 79.2,5434.72 79.2,5434.48 
		78.72,5434.48 78.72,5431.12 78.48,5431.12 78,5430.88 77.76,5430.4 77.28,5430.4 77.28,5418.64 78,5418.64 78.72,5418.16 
		79.44,5418.16 79.92,5417.92 79.92,5417.44 79.44,5417.44 78.72,5416.72 78.72,5414.56 79.2,5414.32 79.44,5414.32 81.36,5413.84 
		83.04,5413.84 84.96,5413.6 85.68,5413.12 85.68,5407.84 84.48,5407.36 79.44,5407.36 70.08,5407.12 59.04,5406.64 51.12,5406.64 
		47.76,5406.4 48.24,5406.4 51.36,5405.92 56.16,5405.68 60.72,5405.68 64.08,5405.2 64.8,5405.2 64.32,5404.96 64.8,5404.48 
		66.24,5404.48 67.68,5404.24 65.76,5403.76 63.6,5403.52 66.96,5403.04 72,5403.04 76.32,5402.8 78.48,5402.32 79.2,5402.32 
		79.2,5400.88 79.44,5400.88 79.92,5400.64 80.64,5400.16 81.6,5400.16 82.8,5399.92 82.08,5399.44 80.88,5399.2 80.16,5399.2 
		80.16,5397.76 79.92,5397.76 79.92,5396.56 79.44,5396.56 79.44,5395.84 79.2,5395.6 79.2,5381.44 79.44,5381.44 79.44,5380.48 
		79.2,5380.48 79.44,5380 79.44,5379.28 79.2,5379.04 79.2,5378.56 79.44,5378.32 79.44,5377.84 79.2,5377.6 79.2,5376.4 
		79.44,5376.16 79.44,5375.44 79.2,5374.96 79.44,5374.96 79.44,5374.24 79.2,5374 79.2,5363.2 79.44,5362.72 79.44,5362 79.2,5362 
		79.2,5359.12 79.44,5358.88 79.44,5358.4 79.2,5358.16 79.2,5353.36 79.44,5353.12 79.44,5352.64 79.92,5352.4 79.92,5333.92 
		79.44,5333.68 79.44,5333.2 79.92,5333.2 80.16,5332.96 80.64,5332.96 80.64,5332.48 80.88,5332.24 80.88,5330.08 81.36,5329.6 
		82.8,5329.6 84.96,5329.36 86.64,5328.88 87.36,5328.88 86.64,5328.64 85.92,5328.64 85.2,5328.16 84.96,5327.92 84.96,5326.72 
		84.48,5326.48 84.48,5325.76 84.96,5325.28 84.96,5325.04 84.48,5324.56 84.48,5322.88 84.96,5322.4 84.48,5322.16 84.48,5321.44 
		84.96,5320.96 84.48,5320.96 84.48,5320 84.96,5320 84.48,5319.52 84.48,5318.8 84.96,5318.56 84.48,5318.08 84.48,5316.64 
		84.96,5316.4 84.48,5315.92 84.96,5315.68 85.92,5315.68 87.12,5315.2 87.36,5314.96 87.12,5314.96 86.4,5314.48 85.92,5314.48 
		85.92,5313.76 85.68,5313.76 85.68,5313.52 85.2,5313.52 85.2,5311.6 84.96,5311.6 84.96,5311.36 84.48,5311.36 84.48,5310.16 
		84.24,5310.16 84.24,5309.44 83.76,5309.2 84.24,5308.72 84.24,5308.48 84.48,5308.48 84.96,5308 85.2,5308 85.2,5307.28 
		84.96,5307.28 84.96,5302.96 85.2,5302.72 86.4,5302.72 87.36,5302.24 87.12,5302 85.92,5302 85.2,5301.52 85.68,5301.52 
		86.64,5301.28 87.12,5300.8 87.12,5299.84 86.64,5299.36 85.68,5299.36 85.2,5299.12 85.68,5298.64 87.12,5298.64 88.8,5298.4 
		89.28,5298.4 88.08,5297.92 86.64,5297.68 85.92,5297.68 85.68,5297.2 85.2,5296.96 85.2,5296.48 84.96,5296.48 84.48,5296.24 
		84.48,5295.76 84.24,5295.52 84.24,5295.04 84.48,5295.04 85.2,5294.8 85.92,5294.32 84.96,5294.08 84.48,5294.08 84.48,5293.6 
		84.24,5293.36 84.24,5290.72 84.48,5290.72 84.96,5290.48 85.2,5290 85.2,5289.04 85.68,5289.04 85.92,5288.56 85.2,5287.84 
		84.96,5287.84 84.48,5287.6 84.96,5287.12 84.96,5286.88 84.48,5286.4 84.24,5286.4 83.76,5286.16 83.52,5285.68 83.76,5285.68 
		83.76,5284.72 84.24,5284.24 85.92,5284.24 88.08,5284 90,5283.52 90.72,5283.52 90.96,5283.28 91.68,5283.28 92.4,5282.56 
		92.88,5282.56 92.88,5282.08 92.16,5282.08 90.96,5281.84 89.52,5281.36 88.56,5281.36 88.08,5281.12 88.08,5280.64 88.8,5280.4 
		89.52,5280.4 90,5279.92 90.72,5279.92 91.44,5279.2 90.24,5278.96 89.28,5278.96 88.8,5278.48 89.28,5278.24 90,5278.24 
		91.44,5277.76 92.4,5277.76 93.12,5277.52 93.12,5275.6 92.88,5275.6 93.6,5274.88 94.32,5274.88 95.28,5274.64 95.76,5274.64 
		96,5274.16 96,5273.92 95.76,5273.92 95.76,5273.44 96.48,5273.44 97.44,5273.2 98.64,5272.72 98.88,5272.72 98.88,5272.48 
		99.6,5272.48 101.76,5271.76 100.32,5271.76 97.2,5271.28 93.84,5271.28 92.16,5271.04 91.44,5270.56 90.96,5270.56 90.72,5270.32 
		90.24,5270.32 90.24,5269.84 90.72,5269.6 90.96,5269.6 92.16,5269.12 94.32,5269.12 96.72,5268.88 97.92,5268.4 97.2,5268.4 
		95.04,5268.16 93.12,5268.16 92.4,5267.68 92.88,5267.44 93.6,5267.44 93.6,5266.96 93.12,5266.96 92.88,5266.72 92.16,5266.24 
		91.44,5266.24 90.72,5266 90.24,5266 90.24,5265.52 90,5265.28 90.24,5265.28 90.96,5264.8 91.44,5264.8 90,5264.08 89.28,5264.08 
		88.56,5263.84 88.08,5263.84 87.84,5263.36 87.12,5263.12 86.4,5262.4 86.64,5261.92 87.12,5261.92 87.36,5261.68 87.84,5261.68 
		88.08,5261.2 88.56,5260.96 88.56,5260.48 88.8,5260.24 88.56,5259.76 88.08,5259.52 87.84,5259.52 87.84,5258.8 88.08,5258.32 
		88.8,5258.32 89.28,5258.08 88.8,5257.6 88.56,5257.6 88.08,5257.36 88.08,5256.88 88.56,5256.64 89.28,5256.64 90.96,5256.16 
		94.32,5256.16 96.72,5255.92 98.16,5255.44 98.88,5255.44 98.88,5254.72 98.16,5254 97.92,5254 97.44,5253.76 96.72,5253.28 
		95.76,5253.28 93.6,5253.04 91.44,5253.04 90,5252.56 90,5252.32 90.24,5252.32 90.72,5251.84 90.96,5251.84 90.96,5251.6 
		91.44,5251.12 90.96,5251.12 90.96,5250.88 90.72,5250.4 90.24,5250.16 90.72,5250.16 90.96,5249.68 90.72,5249.68 90,5249.44 
		89.52,5248.96 90,5248.96 90,5248.72 89.52,5248.72 89.52,5248 90.24,5248 90.96,5247.52 90.24,5247.28 89.52,5246.8 90,5246.56 
		90.24,5246.08 90.96,5245.84 91.68,5245.84 91.68,5245.36 90.96,5245.36 90.24,5245.12 89.52,5244.64 89.28,5244.64 88.8,5244.4 
		89.52,5243.68 90,5243.68 90.72,5243.2 91.68,5243.2 91.68,5242.96 91.44,5242.48 90.96,5242.48 90.72,5242.24 90.24,5242.24 
		89.52,5241.76 88.8,5241.52 87.36,5241.52 86.64,5241.04 87.84,5240.8 89.28,5240.32 90,5240.32 89.52,5240.08 90,5239.6 
		91.44,5239.36 93.12,5239.36 94.56,5238.88 95.28,5238.88 95.04,5238.64 95.04,5238.16 94.32,5238.16 92.88,5237.92 91.44,5237.92 
		90.24,5237.44 88.8,5237.2 87.36,5237.2 85.92,5236.72 84.96,5236.72 84.48,5236.48 84.24,5236 84.48,5236 84.48,5235.76 
		84.96,5235.76 85.68,5235.28 85.92,5235.04 86.64,5235.04 87.12,5234.56 87.84,5234.56 88.8,5234.32 90.24,5233.84 91.44,5233.84 
		90.96,5233.6 90,5233.6 89.28,5233.12 89.28,5232.88 89.52,5232.88 90.24,5232.4 91.44,5232.4 92.4,5232.16 93.12,5231.68 
		92.88,5231.44 91.44,5231.44 90.72,5230.96 90.96,5230.72 92.88,5230.72 94.32,5230.24 95.04,5230.24 95.04,5230 94.32,5229.52 
		93.12,5229.52 92.4,5229.28 91.44,5229.28 90.72,5228.8 90.24,5228.56 90,5228.56 90.24,5228.08 90.72,5228.08 91.44,5227.36 
		90.96,5227.36 90.96,5227.12 90.72,5227.12 90,5226.64 88.8,5226.4 87.12,5226.4 84.48,5225.92 82.8,5225.92 83.04,5225.68 
		85.92,5225.2 89.52,5225.2 92.88,5224.96 94.32,5224.96 96,5224.48 98.64,5224.24 100.8,5224.24 102.24,5223.76 100.08,5223.04 
		97.92,5223.04 95.76,5222.8 94.32,5222.8 94.56,5222.32 95.76,5222.08 96.48,5222.08 96.72,5221.6 97.2,5221.6 97.92,5221.36 
		98.16,5220.88 98.64,5220.88 98.64,5220.16 97.92,5219.92 99.36,5219.44 101.04,5219.44 102.48,5219.2 102.24,5218.72 
		101.04,5218.72 100.08,5218.48 100.08,5218 99.6,5217.76 98.88,5217.76 98.64,5217.28 99.36,5217.28 100.32,5217.04 100.8,5216.56 
		100.32,5216.56 99.6,5216.32 98.88,5216.32 98.64,5215.84 98.16,5215.6 97.2,5215.6 96,5215.12 93.84,5215.12 92.88,5214.88 
		93.84,5214.4 96.48,5214.4 98.88,5214.16 99.6,5214.16 99.6,5213.44 100.08,5213.44 100.08,5212.96 99.6,5212.96 99.36,5212.72 
		99.36,5212.24 99.6,5212 100.08,5212 100.08,5211.28 100.32,5210.8 100.8,5210.8 100.32,5210.56 100.08,5210.08 98.88,5210.08 
		98.16,5209.84 98.88,5209.36 99.36,5209.12 98.88,5208.64 98.16,5208.64 97.92,5208.4 97.92,5207.92 98.16,5207.92 98.16,5207.68 
		97.92,5207.68 96.72,5207.2 96.48,5206.96 96.72,5206.48 97.2,5206.48 97.92,5205.76 97.44,5205.76 97.44,5205.52 98.16,5205.52 
		100.08,5205.04 101.52,5204.8 101.76,5204.8 100.8,5204.32 99.36,5204.32 98.16,5204.08 97.44,5203.6 97.2,5203.6 97.92,5203.36 
		100.08,5203.36 101.52,5202.88 101.76,5202.64 101.52,5202.64 100.32,5202.16 98.88,5202.16 97.44,5201.92 97.2,5201.44 
		96.48,5201.44 95.28,5201.2 93.84,5201.2 93.6,5200.72 95.28,5200.48 97.2,5200.48 97.92,5200 97.44,5200 96.48,5199.76 
		95.28,5199.28 95.76,5199.28 97.44,5199.04 98.88,5199.04 98.16,5198.56 96,5198.32 94.32,5198.32 93.6,5197.84 93.12,5197.84 
		93.6,5197.6 93.6,5197.12 93.84,5197.12 94.56,5196.88 95.04,5196.88 95.28,5196.4 95.28,5196.16 95.04,5195.68 94.56,5195.68 
		93.84,5195.44 94.32,5194.96 94.56,5194.96 94.56,5194.72 94.32,5194.72 93.84,5194.24 93.84,5193.52 93.6,5193.28 93.6,5192.8 
		93.84,5192.56 94.32,5192.56 94.56,5192.08 94.32,5191.84 93.6,5191.84 93.6,5191.36 94.56,5191.36 95.76,5191.12 96.48,5190.64 
		96,5190.4 95.76,5190.4 94.56,5189.92 93.12,5189.68 92.88,5189.68 93.12,5189.2 93.6,5189.2 93.6,5188.96 93.12,5188.48 
		94.32,5188.24 95.76,5188.24 96.48,5187.76 96.48,5187.52 95.76,5187.52 94.56,5187.04 93.12,5187.04 92.16,5186.8 91.68,5186.32 
		92.88,5186.32 94.56,5186.08 96.48,5186.08 97.2,5185.6 97.2,5185.36 96,5185.36 94.32,5184.88 92.16,5184.88 90.72,5184.64 
		90.24,5184.16 90.72,5184.16 91.68,5183.92 93.12,5183.92 96,5183.2 95.76,5182.72 95.28,5182.72 94.56,5182.48 93.84,5182 
		92.88,5182 91.68,5181.76 90.72,5181.76 90.72,5181.28 90.96,5181.04 91.44,5181.04 92.16,5180.56 92.4,5180.56 92.88,5180.32 
		92.88,5179.84 92.4,5179.6 92.4,5178.88 93.12,5178.88 93.84,5178.4 94.32,5178.4 94.32,5177.68 93.6,5177.68 92.88,5177.44 
		92.16,5177.44 91.68,5176.96 92.16,5176.72 92.4,5176.72 92.4,5176.24 92.16,5176 92.16,5175.52 91.68,5175.52 92.16,5175.28 
		92.4,5175.28 93.6,5174.8 94.32,5174.56 95.04,5174.56 95.28,5174.08 95.76,5174.08 96.72,5173.84 97.92,5173.36 98.64,5173.36 
		99.36,5173.12 99.36,5172.4 98.88,5171.92 98.64,5171.92 98.16,5171.68 97.44,5171.2 96.48,5171.2 95.04,5170.96 93.6,5170.96 
		93.12,5170.48 93.84,5170.24 94.32,5170.24 94.32,5169.52 93.84,5169.04 93.6,5169.04 92.4,5168.8 91.44,5168.8 90.72,5168.32 
		90.24,5168.08 90,5168.08 88.8,5167.6 88.08,5167.6 88.08,5167.36 88.8,5166.88 90.24,5166.88 90.72,5166.64 90.72,5166.16 
		92.4,5165.92 96.48,5165.92 101.52,5165.44 105.84,5165.44 108,5165.2 108.72,5164.72 108.96,5164.72 109.68,5164.48 
		110.4,5164.48 111.12,5163.76 111.12,5160.16 111.6,5159.68 111.6,5158 111.12,5157.52 111.12,5157.28 111.6,5157.28 
		111.6,5069.68 110.4,5069.68 107.52,5069.44 103.68,5069.44 99.6,5068.96 95.04,5068.72 88.8,5068.72 84.24,5068.24 83.04,5068.24 
		83.76,5068 84.48,5067.52 84.96,5067.52 85.2,5067.28 86.4,5067.28 90.72,5066.8 97.44,5066.56 105.12,5066.56 109.68,5066.08 
		111.12,5066.08 111.6,5065.84 111.6,4915.36 105.84,4914.88 88.8,4914.88 72.72,4914.64 70.8,4914.16 82.08,4914.16 91.44,4913.92 
		91.68,4913.92 90,4913.44 88.8,4913.2 88.08,4913.2 88.08,4912.72 88.8,4912.72 90.24,4912.48 90.24,4912 90.72,4912 92.4,4911.76 
		95.76,4911.76 98.16,4911.28 100.08,4911.04 100.32,4911.04 98.88,4910.56 96.48,4910.56 96,4910.32 97.92,4909.84 100.8,4909.84 
		104.4,4909.6 107.52,4909.6 110.16,4909.12 111.12,4908.88 111.6,4908.88 111.6,4768 105.84,4767.76 90,4767.28 68.64,4767.28 
		52.08,4767.04 50.4,4767.04 62.64,4766.56 79.92,4766.32 93.6,4766.32 98.64,4765.84 100.32,4765.84 101.76,4765.6 103.2,4765.12 
		103.92,4765.12 103.92,4764.88 103.68,4764.88 103.68,4764.4 102.48,4764.16 100.8,4764.16 97.92,4763.68 95.04,4763.68 
		92.88,4763.44 91.68,4762.96 92.4,4762.96 93.6,4762.72 94.56,4762.72 94.56,4762 95.04,4762 95.76,4761.52 96,4761.52 96,4760.8 
		96.48,4760.8 97.2,4760.56 97.92,4760.56 98.16,4760.08 98.16,4759.84 97.92,4759.84 98.16,4759.36 101.52,4759.36 105.84,4759.12 
		109.44,4758.64 110.88,4758.64 111.6,4758.4 111.6,3588.64 111.84,3588.64 111.84,3587.92 111.6,3587.68 111.6,3484.72 
		111.84,3484.24 111.84,3484 111.6,3483.52 111.6,2827.36 	"/>
	<polyline class="st1" points="0,993.76 0,993.76 0,990.16 59.28,990.16 48.96,989.92 29.76,989.44 21.84,989.44 25.44,989.2 
		29.76,989.2 30.24,988.72 30.24,984.16 30.48,984.16 32.64,983.68 36.96,983.68 42.72,983.44 47.52,982.96 50.64,982.96 
		52.08,982.72 54,982.72 57.12,982.24 60.72,982 64.08,982 65.52,981.52 66.24,981.52 65.76,981.28 65.76,980.8 66.48,980.8 
		66.96,980.56 67.2,980.56 67.92,979.84 67.92,979.36 68.4,979.36 69.12,979.12 70.08,978.64 71.28,978.64 72.24,978.4 73.44,978.4 
		74.16,977.92 75.12,977.68 76.56,977.68 78.48,977.2 80.16,977.2 81.6,976.96 82.32,976.48 83.04,976.48 84.24,976.24 
		84.96,976.24 85.2,975.76 85.68,975.52 85.92,975.04 85.92,974.8 85.68,974.32 85.2,974.32 85.2,974.08 86.4,974.08 87.36,973.6 
		88.08,973.36 87.84,972.88 87.36,972.88 86.4,972.64 85.2,972.16 84.24,972.16 83.76,971.92 83.52,971.92 83.52,971.44 
		83.76,971.2 84.24,971.2 84.96,970.72 85.2,970.72 85.2,969.76 85.68,969.76 85.68,968.32 85.2,967.84 84.96,967.84 84.96,967.6 
		84.48,967.6 84.48,966.88 84.24,966.4 84.24,965.44 83.76,965.44 83.04,964.96 82.32,964.72 81.6,964.72 81.6,964.24 82.08,964.24 
		84.24,964 89.28,963.52 96.48,963.52 103.2,963.28 107.28,963.28 106.56,962.8 100.8,962.56 93.12,962.56 87.12,962.08 
		84.24,962.08 83.52,961.84 83.52,959.92 83.04,959.68 83.04,959.2 82.8,959.2 82.32,958.96 83.04,958.24 83.76,958.24 
		83.76,957.52 84.48,956.8 84.96,956.8 84.96,956.08 84.48,956.08 84.24,955.6 83.76,955.6 83.52,955.36 83.52,954.88 83.04,954.88 
		83.04,954.64 82.8,954.64 82.08,954.16 81.6,953.92 81.36,953.44 80.88,953.44 80.64,953.2 79.92,952.72 79.44,952.72 
		78.48,951.76 78,951.76 77.04,951.28 76.56,951.28 75.84,951.04 75.84,948.4 76.32,948.16 76.32,944.8 76.56,944.56 76.56,943.12 
		77.04,943.12 77.76,942.64 78,942.64 78.72,942.4 78.72,940.24 78.48,939.76 78,939.52 78,937.6 77.76,937.36 77.28,937.36 
		77.04,936.88 77.04,931.84 76.56,931.84 76.56,931.6 76.32,931.12 76.32,930.4 75.84,930.16 75.6,930.16 75.6,881.2 76.32,880.72 
		77.28,880.48 77.76,880.48 77.76,880 77.28,880 77.28,879.04 77.04,879.04 77.04,877.84 76.56,877.84 76.56,876.4 76.32,876.16 
		76.32,874 75.84,873.52 75.84,855.28 75.6,854.8 75.12,854.56 74.88,854.56 74.88,841.12 75.12,840.88 75.12,840.16 74.4,840.16 
		72.96,839.44 72.72,839.44 72.72,838.96 73.44,838.24 73.68,838.24 73.68,808.72 74.16,808.48 74.4,808 75.6,808 76.56,807.76 
		78,807.76 78.72,807.28 79.44,807.04 79.92,807.04 79.92,806.56 79.44,806.56 79.2,806.32 79.2,805.84 79.44,805.6 80.64,805.6 
		81.6,805.12 82.32,804.88 82.08,804.88 80.88,804.4 80.16,804.4 79.44,804.16 79.2,803.68 78.48,803.68 77.28,803.44 76.56,803.44 
		76.32,802.96 76.32,801.52 75.6,801.28 75.12,801.28 74.88,800.8 74.4,800.56 74.4,793.6 74.88,793.36 75.12,792.88 75.6,792.88 
		75.6,784 75.12,784 75.12,783.52 74.88,783.28 74.88,775.36 74.4,774.88 74.4,772.48 74.16,772.48 74.16,742.24 73.68,742.24 
		73.68,727.12 74.16,726.64 74.4,726.64 74.88,726.4 74.88,725.92 74.4,725.92 73.44,725.68 71.52,725.68 70.56,725.2 70.56,724.96 
		71.28,724.96 72,724.48 72,723.76 72.24,723.76 72.24,722.32 72,722.32 72,722.08 72.24,721.6 72.24,721.36 72,720.88 72,720.64 
		72.24,720.16 72.24,719.2 72.96,719.2 73.44,718.72 73.44,718.48 73.68,718 73.68,709.84 74.16,709.36 74.88,709.36 75.6,709.12 
		75.84,708.64 75.84,708.4 75.6,708.4 75.6,707.92 75.12,707.68 75.12,683.44 75.6,683.2 75.6,682.72 75.84,682.72 76.32,682.48 
		76.56,682.48 77.04,682 76.56,681.76 76.32,681.76 75.6,681.28 75.12,681.28 75.12,680.56 75.6,680.32 75.84,680.32 75.84,679.84 
		75.12,679.6 74.4,679.6 74.16,679.12 74.16,676.96 74.4,676.96 74.4,676.24 74.88,676.24 74.88,675.28 74.4,675.28 74.4,638.08 
		74.88,638.08 74.88,634.24 74.4,633.76 74.4,632.32 73.68,631.6 73.68,629.92 73.44,629.92 73.44,629.44 72.96,629.2 72.96,628.72 
		73.44,628.48 73.68,628 73.68,626.32 74.16,626.32 74.4,625.84 74.4,621.28 74.16,621.28 74.16,616.48 73.44,616.24 72.72,615.76 
		72.24,615.76 72.24,615.04 72,614.8 72,614.32 72.24,614.32 72.24,612.64 72,612.64 72.24,612.16 72.72,612.16 73.44,611.44 
		73.68,611.44 73.68,611.2 74.16,610.72 74.16,608.32 74.4,607.84 74.4,602.08 74.16,601.84 74.16,580.96 74.88,580.96 
		75.12,580.48 75.84,580.24 75.6,579.76 75.12,579.52 75.12,574.48 74.88,574.48 74.88,573.76 74.4,573.76 74.4,567.28 74.16,566.8 
		73.68,566.8 72.96,566.56 72.96,566.08 72.72,566.08 72.72,565.12 72.96,565.12 72.96,564.64 73.44,564.4 73.44,555.28 
		74.16,555.04 75.12,555.04 75.6,554.56 75.12,554.32 74.88,554.32 74.4,553.84 74.4,553.6 75.6,553.12 76.56,553.12 77.04,552.88 
		76.56,552.88 75.6,552.4 74.4,552.16 72.72,552.16 72,551.68 72.72,550.96 72.96,550.96 73.68,550.72 74.16,550.72 73.44,550 
		72.96,550 72.96,549.52 73.44,549.52 73.44,549.28 73.68,548.8 73.68,542.08 73.44,542.08 72.96,541.6 72.96,538 73.44,538 
		73.44,518.32 73.68,517.84 73.68,517.6 74.16,517.6 74.16,516.16 73.68,516.16 73.68,515.68 73.44,515.44 72.96,515.44 
		72.96,514.72 73.44,514.24 73.68,514.24 74.16,514 74.4,513.52 74.4,513.28 75.12,513.28 75.84,512.8 76.32,512.8 76.32,512.56 
		76.56,512.08 77.04,511.84 77.04,506.8 76.56,506.32 76.32,506.32 76.32,506.08 75.84,505.6 75.6,505.6 75.12,505.36 74.88,505.36 
		74.88,504.64 74.4,504.64 74.4,502.48 74.16,502 74.16,501.76 74.88,501.28 75.84,501.28 76.56,501.04 77.04,501.04 76.32,500.56 
		75.84,500.32 75.6,500.32 75.6,496.96 75.84,496.96 76.32,496.72 77.04,496.72 77.28,496.24 77.28,495.52 77.76,495.52 78,495.28 
		78,493.36 77.76,493.36 78,493.12 79.92,492.64 82.08,492.64 82.32,492.4 81.36,492.4 80.16,491.92 79.44,491.68 79.2,491.68 
		79.2,491.2 78.72,491.2 78.72,489.04 78.48,489.04 78.48,488.32 78,488.32 77.76,488.08 77.28,488.08 77.04,487.6 76.56,487.36 
		76.56,485.44 76.32,485.2 76.32,481.84 75.84,481.84 75.84,478.72 76.32,478.24 76.56,478.24 77.04,478 77.04,477.28 77.28,477.28 
		77.28,476.8 77.76,476.56 77.76,476.08 77.28,476.08 77.28,474.64 77.04,474.4 77.04,473.92 76.56,473.92 76.56,472.96 
		76.32,472.96 76.32,472.24 75.84,471.76 75.6,471.76 75.6,469.6 75.84,469.36 75.84,468.88 76.32,468.64 76.32,465.76 
		75.84,465.76 75.12,465.28 74.16,465.28 72.96,465.04 72.72,464.56 72.96,464.56 72.96,464.32 72.72,464.32 72,463.84 72,462.4 
		72.24,462.16 72.24,461.44 72.72,461.44 72.72,460.96 73.44,460.72 74.4,460.24 75.6,460.24 75.84,460 76.32,460 76.32,458.8 
		76.56,458.56 77.28,458.08 77.76,458.08 77.28,457.84 76.56,457.84 75.84,457.36 75.6,457.12 75.6,456.64 75.12,456.4 
		75.12,447.28 75.6,447.28 75.84,447.04 75.6,446.56 75.12,446.32 75.12,442.72 74.88,442.72 74.4,442.24 73.68,442 73.44,442 
		73.44,438.64 74.16,438.4 75.12,438.4 75.84,437.92 76.32,437.68 75.6,437.68 74.4,437.2 73.68,437.2 73.44,436.96 73.44,434.08 
		73.68,434.08 74.4,433.6 74.88,433.36 75.12,433.36 75.6,432.88 75.84,432.88 75.84,430.72 76.32,430.72 77.04,430.48 77.76,430 
		78,430 78,429.76 77.76,429.28 77.76,429.04 77.04,428.32 77.04,427.84 76.56,427.84 76.32,427.6 75.84,427.6 75.6,427.12 
		75.12,426.88 74.88,426.4 74.88,420.4 75.12,419.92 75.84,419.92 76.56,419.68 77.04,419.2 76.56,419.2 75.84,418.96 75.6,418.96 
		75.6,417.76 75.12,417.76 74.88,417.52 74.88,417.04 74.4,416.8 74.4,414.88 74.88,414.88 75.12,414.64 75.84,414.64 76.32,414.16 
		76.32,410.32 75.84,409.84 75.84,398.8 76.32,398.8 76.56,398.32 76.56,397.36 77.28,396.64 77.76,396.64 77.76,396.16 78,396.16 
		78,394.72 77.28,394 76.56,394 76.32,393.76 75.6,393.76 75.12,393.28 75.12,393.04 74.88,393.04 74.88,392.56 74.4,392.56 
		73.68,392.32 72.96,391.84 72,391.84 71.28,391.6 70.56,391.12 69.84,391.12 69.84,390.88 70.8,390.88 73.44,390.4 77.28,390.16 
		80.88,390.16 83.52,389.68 84.96,389.68 84.96,389.44 85.2,388.96 85.2,388.24 85.68,388 85.92,388 85.92,387.52 85.2,387.28 
		84.48,386.8 83.76,386.8 83.04,386.56 82.8,386.56 82.32,386.08 82.32,384.64 82.8,384.4 83.76,384.4 84.48,383.92 85.2,383.68 
		85.68,383.68 85.68,383.2 85.92,383.2 85.92,382.96 85.68,382.48 85.2,382.48 84.96,382.24 84.24,382.24 84.24,381.04 82.8,380.32 
		80.88,380.32 79.2,380.08 78.48,380.08 77.28,379.6 76.32,379.6 75.12,379.36 74.4,378.88 74.88,378.88 75.6,378.64 77.04,378.64 
		78.48,378.16 79.44,377.92 79.92,377.92 80.64,377.44 80.88,377.2 81.6,377.2 81.6,376.72 80.88,376.72 80.16,376.48 79.44,376 
		79.2,376 78.72,375.76 79.2,375.76 79.44,375.28 79.44,375.04 80.16,374.32 80.16,373.6 80.64,373.12 80.64,371.68 80.16,371.68 
		79.92,371.44 79.44,371.44 79.2,370.96 78.72,370.72 78.72,363.52 79.44,363.52 79.92,363.04 79.92,362.8 80.16,362.32 
		80.16,361.6 79.92,361.6 79.92,360.88 79.2,360.64 78.48,360.64 77.04,360.16 75.84,359.92 77.28,359.44 79.92,359.44 81.6,359.2 
		80.88,358.72 78.48,358.72 76.32,358.48 75.12,358.48 74.88,358 74.88,357.76 75.12,357.76 75.6,357.28 75.84,357.28 75.84,357.04 
		75.6,356.56 74.88,356.32 74.4,356.32 73.68,355.84 74.16,355.6 75.12,355.6 77.04,355.12 78.48,355.12 79.2,354.88 79.44,354.4 
		79.44,353.44 79.2,353.44 77.76,352.96 75.84,352.96 74.88,352.72 74.4,352.72 74.4,349.84 74.88,349.36 75.6,349.36 77.04,349.12 
		79.44,348.64 81.36,348.64 82.08,348.4 81.6,347.92 80.88,347.92 80.16,347.68 79.44,347.68 79.44,347.2 79.2,346.96 78.72,346.96 
		78.48,346.48 78,346.48 78,345.76 78.48,345.52 79.2,345.52 79.92,345.04 80.16,344.8 79.92,344.8 79.2,344.32 78.72,344.32 
		78.48,344.08 78.48,343.6 78.72,343.6 79.92,343.36 81.36,343.36 82.8,342.64 82.8,342.16 82.32,342.16 82.32,341.44 82.8,341.2 
		83.52,341.2 84.96,340.72 85.92,340.48 85.2,340 84.96,340 84.48,339.76 84.24,339.28 83.52,339.04 82.8,339.04 82.08,338.56 
		81.36,338.56 80.64,338.32 79.92,337.84 79.44,337.84 79.44,337.6 79.92,337.6 80.88,337.12 82.8,336.88 83.52,336.88 83.04,336.4 
		82.32,336.4 81.6,336.16 80.88,335.68 80.64,335.68 79.92,335.44 79.44,335.44 78.72,334.96 78,334.72 77.04,334.72 76.56,334.24 
		77.04,334 77.76,334 78.72,333.52 79.2,333.52 79.92,332.8 80.16,332.8 80.64,332.56 80.88,332.08 81.36,331.84 82.32,331.84 
		83.04,331.36 83.76,331.36 83.76,330.64 83.52,330.64 82.8,330.4 82.08,330.4 82.8,329.92 84.48,329.68 85.92,329.68 86.4,329.2 
		85.68,329.2 85.2,328.96 84.96,328.48 85.2,328.24 85.2,327.76 85.68,327.52 85.2,327.52 85.2,327.04 85.92,326.8 87.12,326.32 
		88.8,326.32 90,326.08 88.56,325.6 85.92,325.6 83.04,325.36 81.36,324.88 80.64,324.88 80.64,322.48 80.88,322.48 81.36,322 
		81.36,321.28 81.6,321.04 81.6,320.56 81.36,320.56 80.88,320.32 80.64,319.84 80.88,319.6 81.36,319.6 82.08,319.12 82.32,318.88 
		82.8,318.88 82.8,318.4 83.04,318.4 83.04,317.68 82.8,317.44 82.8,316.72 82.08,316.72 81.6,316.24 81.36,316.24 81.36,316 
		82.08,315.52 82.32,315.52 82.8,315.28 82.8,314.56 82.32,314.56 82.32,314.08 83.52,313.84 85.2,313.36 86.4,313.36 85.92,313.12 
		84.96,313.12 84.24,312.64 83.76,312.4 83.52,311.92 82.32,311.92 82.08,311.68 82.08,310.48 82.32,310.48 82.32,309.04 
		82.08,308.8 82.08,308.32 81.6,308.32 81.6,304.48 82.32,303.76 82.8,303.76 82.8,303.04 82.08,302.56 81.36,302.56 80.64,302.32 
		80.16,301.84 80.16,301.6 80.64,301.6 80.64,301.12 80.16,301.12 79.44,300.4 78.72,300.4 78,300.16 77.76,300.16 77.28,299.68 
		77.28,299.44 77.04,299.44 77.04,298.96 77.28,298.72 77.28,298.24 77.76,298 78,298 78.48,297.52 78.48,296.8 78,296.56 
		77.76,296.56 76.56,295.36 76.56,295.12 76.32,294.64 76.32,294.4 76.56,293.92 77.04,293.68 77.76,293.68 78,293.2 78.48,293.2 
		78.48,292.96 78,292.48 77.28,292.48 76.56,292.24 75.84,292.24 75.12,291.76 75.12,291.52 74.88,291.52 74.88,286.48 
		75.12,286.48 75.84,286 76.32,286 76.32,281.68 75.84,281.44 75.84,274.96 76.56,274.48 77.28,274.48 77.76,274.24 78,274.24 
		78,272.8 77.76,272.32 77.76,267.28 77.28,267.28 77.04,267.04 77.04,266.32 76.56,266.32 76.56,252.16 77.04,252.16 77.04,251.2 
		76.56,251.2 76.32,250.72 75.12,250.48 74.4,250.48 74.16,250 74.16,246.88 74.4,246.4 74.88,246.16 74.88,245.68 75.12,245.44 
		75.12,241.36 75.6,241.36 75.84,241.12 75.84,231.76 75.6,231.76 75.6,231.04 76.32,231.04 77.76,230.56 80.88,230.56 
		87.84,230.32 96.72,229.84 104.64,229.84 108.96,229.6 110.16,229.6 110.16,226.24 110.4,226 110.4,225.52 110.88,225.52 
		110.88,212.56 	"/>
</g>
</svg>
