<?xml version="1.0" encoding="utf-8"?>
<!-- Generator: Adobe Illustrator 23.1.0, SVG Export Plug-In . SVG Version: 6.00 Build 0)  -->
<svg version="1.1" id="Слой_1" xmlns="http://www.w3.org/2000/svg" xmlns:xlink="http://www.w3.org/1999/xlink" x="0px" y="0px"
	 viewBox="0 0 144 3023.04" style="enable-background:new 0 0 144 3023.04;" xml:space="preserve">
<style type="text/css">
	
		.st0{clip-path:url(#SVGID_2_);fill:none;stroke:#CD0000;stroke-width:0.48;stroke-linecap:round;stroke-linejoin:bevel;stroke-miterlimit:10;}
</style>
<g>
	<defs>
		<rect id="SVGID_1_" width="144" height="3023.04"/>
	</defs>
	<clipPath id="SVGID_2_">
		<use xlink:href="#SVGID_1_"  style="overflow:visible;"/>
	</clipPath>
	<polyline class="st0" points="112.32,2995.2 107.04,2995.2 114.24,2994.96 113.04,2994.96 111.36,2994.48 106.56,2994.48 
		109.44,2994.24 110.64,2994.24 108.72,2993.76 112.8,2993.76 115.68,2993.52 108.72,2993.52 109.92,2993.04 110.88,2993.04 
		110.64,2992.8 112.32,2992.8 115.68,2992.32 109.2,2992.32 108.48,2992.08 110.16,2992.08 110.16,2991.6 113.04,2991.6 
		109.44,2991.36 110.88,2991.36 112.32,2990.88 109.2,2990.88 112.08,2990.64 110.88,2990.64 112.32,2990.16 110.64,2990.16 
		108.72,2989.92 110.64,2989.92 112.08,2989.44 110.64,2989.44 112.8,2989.2 110.88,2989.2 112.08,2989.2 108.72,2988.72 
		110.16,2988.72 109.44,2988.48 109.2,2988.48 106.56,2988 112.08,2988 105.12,2987.76 111.6,2987.76 110.64,2987.28 
		109.92,2987.28 112.32,2987.04 108,2987.04 112.8,2986.56 107.04,2986.56 105.6,2986.32 111.6,2986.32 105.84,2985.84 
		108.72,2985.84 117.84,2985.6 110.16,2985.6 112.8,2985.12 117.84,2985.12 111.6,2984.88 108,2984.88 109.2,2984.4 115.92,2984.4 
		109.2,2984.16 112.8,2984.16 109.2,2983.68 112.8,2983.68 114.96,2983.44 111.36,2983.44 108.72,2982.96 102.96,2982.96 
		109.44,2982.72 114.96,2982.72 126.72,2982.24 98.64,2982.24 96.48,2982 95.52,2982 96.48,2981.52 94.32,2981.52 78.96,2981.28 
		109.2,2981.28 100.8,2980.8 103.68,2980.8 104.16,2980.56 101.52,2980.56 99.12,2980.08 104.4,2980.08 104.88,2979.84 102,2979.84 
		102.96,2979.36 102,2979.36 101.28,2979.12 99.36,2979.12 102.72,2978.64 104.88,2978.64 106.56,2978.4 101.28,2978.4 
		99.36,2977.92 102.96,2977.92 100.56,2977.92 102.96,2977.68 96.96,2977.68 101.28,2977.2 100.8,2977.2 106.32,2976.96 
		102,2976.96 104.4,2976.48 100.56,2976.48 102,2976.24 102.96,2976.24 105.84,2975.76 101.52,2975.76 101.28,2975.52 
		103.44,2975.52 100.56,2975.04 102.24,2975.04 97.68,2974.8 100.56,2974.8 97.68,2974.32 96.96,2974.32 102.96,2974.08 
		104.4,2974.08 108.72,2973.6 112.08,2973.6 114.96,2973.36 117.84,2973.36 113.04,2972.88 109.2,2972.88 107.28,2972.64 
		110.88,2972.64 113.76,2972.16 109.92,2972.16 110.16,2971.92 106.56,2971.92 112.08,2971.44 111.36,2971.44 111.36,2971.2 
		108.72,2971.2 101.28,2970.72 105.84,2970.72 108.48,2970.48 106.56,2970.48 114.24,2970 108.72,2970 112.32,2969.76 
		109.92,2969.76 113.04,2969.28 108,2969.28 107.04,2969.04 109.2,2969.04 102,2968.56 99.84,2968.56 107.76,2968.32 
		113.76,2968.32 114.48,2967.84 111.36,2967.84 117.84,2967.6 122.88,2967.6 114.96,2967.12 113.76,2967.12 104.4,2966.88 
		102.96,2966.88 106.32,2966.88 100.08,2966.4 107.04,2966.4 107.76,2966.16 110.64,2966.16 101.52,2965.68 94.32,2965.68 
		101.52,2965.44 96.48,2965.44 102,2964.96 102.72,2964.96 102.24,2964.72 100.8,2964.72 104.16,2964.24 100.56,2964.24 
		104.16,2964 106.32,2964 99.84,2963.52 102.96,2963.52 107.28,2963.28 104.88,2963.28 105.84,2962.8 107.28,2962.8 110.64,2962.56 
		107.04,2962.56 108,2962.08 105.84,2962.08 106.32,2961.84 103.44,2961.84 109.2,2961.36 107.28,2961.36 108.72,2961.12 
		106.56,2961.12 104.88,2960.64 104.16,2960.64 108.48,2960.4 107.28,2960.4 102,2959.92 103.68,2959.92 107.28,2959.68 
		108,2959.68 112.8,2959.2 111.6,2959.2 108.48,2958.96 104.4,2958.96 113.52,2958.48 106.56,2958.48 108.72,2958.24 111.6,2958.24 
		118.56,2957.76 122.4,2957.76 103.68,2957.52 112.8,2957.52 108,2957.04 105.84,2957.04 110.88,2956.8 109.92,2956.8 
		107.76,2956.32 113.76,2956.32 106.56,2956.08 107.76,2956.08 111.36,2955.6 105.6,2955.6 109.92,2955.6 105.84,2955.36 
		112.08,2955.36 109.44,2954.88 105.12,2954.88 104.4,2954.64 107.76,2954.64 106.56,2954.16 102.24,2954.16 105.6,2953.92 
		108,2953.92 117.12,2953.44 110.64,2953.44 105.12,2953.2 105.84,2953.2 103.68,2952.72 109.2,2952.72 108.48,2952.48 
		112.8,2952.48 108.48,2952 105.12,2952 115.2,2951.76 107.28,2951.76 113.76,2951.28 104.4,2951.28 102.24,2951.04 111.6,2951.04 
		118.08,2950.56 115.92,2950.56 114.24,2950.32 112.8,2950.32 110.88,2949.84 105.84,2949.84 101.52,2949.6 103.68,2949.6 
		105.12,2949.12 107.28,2949.12 105.84,2948.88 101.28,2948.88 102.24,2948.4 105.84,2948.4 102.72,2948.16 102.96,2948.16 
		116.4,2947.68 107.76,2947.68 112.8,2947.44 108,2947.44 110.88,2946.96 120.24,2946.96 110.64,2946.72 124.32,2946.72 
		111.6,2946.24 107.04,2946.24 109.2,2946 107.28,2946 110.88,2945.52 108,2945.52 112.08,2945.28 110.16,2945.28 106.32,2944.8 
		103.44,2944.8 107.76,2944.56 105.6,2944.56 102.24,2944.08 117.84,2944.08 112.08,2944.08 116.64,2943.84 123.6,2943.84 
		120,2943.36 111.6,2943.36 107.04,2943.12 104.4,2943.12 107.04,2942.64 106.32,2942.64 105.84,2942.4 102.96,2942.4 
		105.12,2941.92 98.4,2941.92 117.36,2941.68 120.72,2941.68 114.48,2941.2 102,2941.2 100.8,2940.96 100.56,2940.96 
		101.28,2940.48 104.16,2940.48 103.44,2940.24 103.68,2940.24 103.68,2939.76 97.68,2939.76 104.16,2939.52 98.4,2939.52 
		102.24,2939.04 107.28,2939.04 100.56,2938.8 102.96,2938.8 112.08,2938.32 105.6,2938.32 108,2938.08 104.4,2938.08 
		109.44,2937.6 107.04,2937.6 115.68,2937.36 118.56,2937.36 117.12,2936.88 115.2,2936.88 115.92,2936.64 120.96,2936.64 
		107.76,2936.16 106.56,2936.16 105.6,2935.92 105.12,2935.92 107.76,2935.44 110.16,2935.44 106.56,2935.2 103.68,2934.72 
		104.88,2934.72 104.4,2934.48 106.56,2934.48 106.32,2934 102,2934 103.44,2933.76 100.08,2933.76 104.16,2933.28 102,2933.28 
		107.76,2933.04 104.4,2933.04 105.84,2933.04 104.88,2932.56 103.44,2932.56 104.88,2932.32 106.56,2932.32 100.8,2931.84 
		104.16,2931.84 102.72,2931.6 100.56,2931.12 106.56,2931.12 102.96,2930.88 98.4,2930.88 104.88,2930.4 102.24,2930.4 
		109.92,2930.16 102.96,2930.16 102.72,2929.68 104.4,2929.68 104.16,2929.44 102.72,2929.44 104.16,2928.96 102.72,2928.96 
		105.84,2928.72 102.24,2928.72 102.96,2928.24 101.52,2928 99.36,2928 106.56,2927.52 104.16,2927.52 102.24,2927.28 
		107.28,2927.28 102.96,2926.8 102.24,2926.8 102.96,2926.56 103.44,2926.56 109.44,2926.08 102.72,2926.08 109.44,2925.84 
		104.88,2925.84 113.52,2925.36 109.2,2925.36 112.32,2925.12 115.2,2925.12 110.88,2924.64 106.56,2924.4 107.28,2924.4 
		107.04,2923.92 110.88,2923.92 112.08,2923.68 108.72,2923.68 107.76,2923.2 112.32,2923.2 112.8,2922.96 106.32,2922.96 
		109.44,2922.48 115.2,2922.48 108.72,2922.24 107.76,2922.24 108.48,2921.76 105.84,2921.76 114.24,2921.76 110.88,2921.52 
		108,2921.52 104.88,2921.04 102.24,2920.8 108.48,2920.8 104.4,2920.32 107.04,2920.32 106.32,2920.08 111.36,2920.08 
		109.92,2919.6 105.12,2919.36 108.72,2919.36 107.28,2918.88 105.12,2918.88 105.6,2918.64 106.32,2918.64 107.28,2918.16 
		110.16,2918.16 112.8,2917.92 106.56,2917.92 111.6,2917.44 107.04,2917.44 112.8,2917.2 114.96,2917.2 105.84,2916.72 
		107.76,2916.72 108,2916.48 102,2916.48 107.76,2916 111.36,2916 104.16,2915.76 105.12,2915.76 108,2915.28 106.32,2915.28 
		111.36,2915.04 109.2,2915.04 115.92,2914.56 102.96,2914.56 114.24,2914.32 101.52,2914.32 101.28,2913.84 102.72,2913.84 
		103.44,2913.6 108.48,2913.6 103.44,2913.12 98.64,2913.12 98.4,2912.88 100.8,2912.88 109.2,2912.4 106.56,2912.4 104.88,2912.16 
		100.08,2912.16 102.72,2911.68 106.32,2911.68 104.16,2911.44 99.12,2911.44 103.68,2910.96 100.8,2910.96 99.84,2910.72 
		104.88,2910.72 103.68,2910.72 104.4,2910.24 99.84,2910.24 103.44,2910 104.88,2910 105.84,2909.52 102.24,2909.52 98.4,2909.28 
		100.8,2909.28 101.52,2908.8 106.32,2908.8 102.72,2908.56 101.52,2908.56 101.28,2908.08 98.4,2908.08 99.36,2907.84 
		100.56,2907.84 96.96,2907.36 101.28,2907.36 102,2907.12 101.52,2907.12 100.8,2906.64 102.24,2906.64 104.16,2906.4 
		104.88,2906.4 104.16,2905.92 99.36,2905.92 96.48,2905.68 102,2905.68 97.92,2905.2 97.2,2905.2 103.44,2904.96 101.28,2904.96 
		98.64,2904.48 101.52,2904.48 100.08,2904.24 102.72,2904.24 102.24,2903.76 96.96,2903.76 101.28,2903.52 100.08,2903.52 
		103.44,2903.04 102.72,2903.04 104.88,2902.8 102.24,2902.8 104.16,2902.32 105.12,2902.32 104.16,2902.08 102.72,2902.08 
		105.12,2901.6 102.96,2901.6 101.28,2901.36 102.24,2901.36 102.72,2900.88 102.96,2900.88 101.52,2900.64 103.44,2900.64 
		100.08,2900.16 105.84,2900.16 103.68,2899.92 94.8,2899.92 97.68,2899.44 97.2,2899.44 94.8,2899.2 96.96,2899.2 93.6,2899.2 
		97.92,2898.72 102.24,2898.48 96.24,2898.48 96.48,2898 99.36,2898 97.92,2897.76 99.12,2897.76 94.08,2897.28 102.72,2897.28 
		99.12,2897.04 101.28,2897.04 99.12,2896.56 101.28,2896.56 99.36,2896.32 96.96,2896.32 101.52,2895.84 102,2895.84 102,2895.6 
		107.04,2895.6 104.88,2895.12 100.56,2895.12 102.24,2894.88 99.12,2894.88 102.72,2894.4 98.4,2894.4 100.8,2894.16 
		102.24,2894.16 98.4,2893.68 98.64,2893.68 100.8,2893.44 104.4,2893.44 104.16,2892.96 104.88,2892.96 104.88,2892.72 
		97.92,2892.72 105.84,2892.24 95.76,2892.24 99.36,2892 95.04,2892 97.92,2891.52 99.84,2891.52 102,2891.28 100.08,2891.28 
		100.08,2890.8 99.12,2890.8 99.84,2890.56 99.36,2890.56 102,2890.08 99.12,2890.08 102.96,2889.84 98.64,2889.84 97.92,2889.36 
		99.84,2889.36 102.72,2889.12 100.08,2889.12 97.92,2888.64 102.24,2888.64 95.52,2888.4 101.28,2888.4 97.68,2887.92 
		99.36,2887.92 97.68,2887.92 96.24,2887.68 101.28,2887.68 98.4,2887.2 97.92,2887.2 95.76,2886.96 99.12,2886.96 98.64,2886.48 
		99.84,2886.48 94.8,2886.24 99.12,2886.24 101.52,2885.76 100.56,2885.76 98.64,2885.52 99.36,2885.52 97.68,2885.04 
		102.72,2885.04 102.72,2884.8 99.84,2884.8 95.04,2884.32 105.6,2884.32 95.76,2884.08 100.56,2884.08 102.96,2883.6 
		103.44,2883.6 102,2883.36 103.44,2883.36 101.28,2882.88 100.08,2882.88 100.8,2882.64 100.08,2882.64 98.64,2882.16 
		100.08,2882.16 100.8,2881.92 102.96,2881.44 101.28,2881.44 101.52,2881.2 102.72,2881.2 104.4,2880.72 98.4,2880.72 
		98.4,2880.48 100.08,2880 102,2880 98.64,2879.76 100.56,2879.76 100.8,2879.28 99.84,2879.28 96.96,2879.04 102,2879.04 
		102,2878.56 104.88,2878.56 100.56,2878.32 99.84,2878.32 100.08,2877.84 102,2877.84 100.8,2877.6 102.96,2877.6 99.12,2877.12 
		96.24,2876.88 101.28,2876.88 98.4,2876.88 100.08,2876.4 98.64,2876.4 102.24,2876.16 102.72,2876.16 96.96,2875.68 
		102.96,2875.68 98.64,2875.44 96.96,2875.44 95.04,2874.96 100.8,2874.96 96.96,2874.72 102.72,2874.72 102.72,2874.24 
		103.44,2874.24 104.4,2874 103.44,2874 104.16,2873.52 98.64,2873.52 102,2873.28 106.56,2873.28 98.64,2872.8 102.96,2872.8 
		104.88,2872.56 102.24,2872.56 103.44,2872.08 102.24,2872.08 103.68,2871.84 102.24,2871.84 105.12,2871.36 102,2871.36 
		101.28,2871.12 105.6,2871.12 109.44,2870.64 104.88,2870.64 105.12,2870.4 102,2870.4 102.96,2869.92 99.84,2869.92 
		103.44,2869.68 104.88,2869.2 106.32,2869.2 104.4,2868.96 103.44,2868.96 102.24,2868.48 103.68,2868.48 107.04,2868.24 
		102.96,2868.24 102.24,2867.76 105.84,2867.76 104.16,2867.52 100.08,2867.52 101.28,2867.04 103.68,2867.04 100.8,2866.8 
		107.76,2866.8 103.68,2866.32 106.32,2866.32 102.96,2866.08 99.12,2866.08 103.44,2865.6 102,2865.6 109.92,2865.36 
		112.32,2865.36 111.36,2864.88 109.92,2864.88 112.08,2864.64 109.2,2864.64 114.96,2864.16 106.32,2864.16 107.28,2863.92 
		111.36,2863.92 108.72,2863.44 109.2,2863.44 108,2863.2 105.84,2863.2 109.92,2862.72 102.72,2862.72 104.88,2862.48 
		101.28,2862.48 106.56,2862 109.2,2862 107.76,2861.76 104.4,2861.76 104.16,2861.28 105.12,2861.28 105.84,2861.04 108,2861.04 
		105.84,2860.56 104.88,2860.56 107.28,2860.32 105.84,2860.32 106.32,2859.84 105.6,2859.84 104.4,2859.6 104.4,2859.12 
		106.32,2859.12 110.88,2858.88 109.44,2858.88 100.56,2858.4 104.4,2858.4 102.24,2858.16 101.52,2858.16 104.4,2857.68 
		108.72,2857.68 104.88,2857.44 104.16,2857.44 100.8,2856.96 102.96,2856.96 102.24,2856.72 103.44,2856.72 102.96,2856.24 
		107.28,2856.24 106.56,2856 108.48,2856 99.84,2855.52 95.52,2855.52 116.4,2855.28 109.2,2855.28 104.88,2854.8 105.6,2854.8 
		103.68,2854.56 107.76,2854.56 104.88,2854.08 102.96,2854.08 105.84,2854.08 100.8,2853.84 105.84,2853.84 104.4,2853.36 
		102,2853.36 100.08,2853.12 106.32,2853.12 100.8,2852.64 106.56,2852.64 99.12,2852.4 104.4,2852.4 102.96,2851.92 
		103.68,2851.92 102.96,2851.68 99.12,2851.68 105.6,2851.2 104.16,2851.2 105.6,2850.96 104.4,2850.96 103.44,2850.48 
		103.68,2850.48 106.56,2850.24 104.88,2850.24 101.28,2849.76 107.76,2849.76 101.52,2849.52 103.44,2849.52 108.48,2849.04 
		107.76,2849.04 107.28,2848.8 107.76,2848.8 107.04,2848.32 108,2848.32 105.6,2848.08 106.32,2847.6 108,2847.6 108,2847.36 
		104.88,2847.36 102.96,2846.88 102.72,2846.88 105.84,2846.64 102.24,2846.64 104.88,2846.16 104.4,2846.16 104.16,2845.92 
		102.96,2845.92 102.72,2845.44 108,2845.44 105.84,2845.2 104.4,2845.2 102.96,2844.72 107.76,2844.72 104.88,2844.48 
		105.6,2844.48 102,2844 105.6,2844 102.72,2843.76 108.72,2843.76 103.68,2843.28 104.88,2843.28 99.84,2843.04 106.32,2843.04 
		103.44,2842.56 107.76,2842.56 100.08,2842.32 107.28,2842.32 104.16,2841.84 100.56,2841.84 102,2841.6 101.52,2841.6 
		106.32,2841.12 105.6,2841.12 105.6,2840.88 109.2,2840.88 104.88,2840.4 104.4,2840.4 107.04,2840.16 109.92,2840.16 
		107.04,2839.68 107.28,2839.68 108,2839.44 107.28,2839.44 96.48,2838.96 107.28,2838.96 107.28,2838.72 107.76,2838.72 
		107.28,2838.24 105.6,2838.24 105.12,2838 105.6,2838 100.8,2837.52 108.72,2837.52 102.96,2837.28 104.4,2837.28 109.44,2836.8 
		111.6,2836.8 106.56,2836.56 107.76,2836.56 105.6,2836.08 110.16,2836.08 106.32,2835.84 108.72,2835.84 102.24,2835.36 
		103.44,2835.36 104.16,2835.12 104.88,2835.12 104.88,2834.64 105.84,2834.64 102.24,2834.4 103.44,2834.4 105.84,2833.92 
		103.68,2833.92 109.2,2833.68 105.84,2833.68 108,2833.2 112.8,2833.2 113.04,2832.96 112.32,2832.96 114.24,2832.48 
		107.76,2832.48 103.68,2832.24 102.24,2832.24 106.56,2831.76 113.52,2831.76 105.6,2831.52 108,2831.52 108.48,2831.04 
		103.68,2831.04 108.72,2830.8 107.28,2830.8 114.48,2830.32 119.28,2830.32 114.96,2830.08 115.68,2830.08 111.6,2829.6 
		108.48,2829.6 108,2829.36 106.32,2829.36 102.72,2828.88 109.2,2828.88 108.72,2828.64 113.04,2828.64 108.48,2828.16 
		105.12,2828.16 109.92,2827.92 104.4,2827.92 105.84,2827.44 102.72,2827.44 107.28,2827.2 105.6,2827.2 107.04,2826.72 
		112.8,2826.72 107.76,2826.48 101.28,2826.48 109.44,2826 104.88,2826 102.24,2825.76 105.12,2825.76 102.72,2825.28 
		100.08,2825.28 98.64,2825.04 103.68,2825.04 107.28,2824.56 107.04,2824.56 105.84,2824.32 104.88,2824.32 103.44,2823.84 
		108.72,2823.84 103.68,2823.6 101.52,2823.6 105.6,2823.12 107.04,2823.12 108.48,2822.88 102.96,2822.88 108.48,2822.4 
		107.04,2822.4 109.2,2822.16 102,2822.16 106.32,2821.68 108.72,2821.68 99.12,2821.44 106.32,2821.44 109.2,2820.96 
		104.88,2820.72 102,2820.72 104.88,2820.72 106.56,2820.24 105.6,2820.24 105.6,2820 104.4,2820 104.16,2819.52 102.96,2819.52 
		106.32,2819.28 105.6,2819.28 102.72,2818.8 104.4,2818.8 107.04,2818.56 104.4,2818.56 102.96,2818.08 101.28,2818.08 
		105.84,2817.84 104.16,2817.84 102.24,2817.36 102,2817.36 102.24,2817.12 103.44,2817.12 100.8,2816.64 101.52,2816.64 
		103.44,2816.4 101.28,2816.4 103.44,2815.92 104.16,2815.92 105.12,2815.68 109.2,2815.68 107.28,2815.2 104.4,2815.2 
		105.6,2814.96 103.44,2814.96 104.88,2814.48 100.8,2814.48 106.32,2814.24 99.36,2814.24 107.04,2813.76 105.6,2813.76 
		105.12,2813.52 102.96,2813.52 102.96,2813.04 104.16,2813.04 105.84,2812.8 108.72,2812.8 108.48,2812.32 103.44,2812.32 
		104.4,2812.08 109.92,2812.08 113.76,2811.6 106.56,2811.6 107.28,2811.36 112.8,2811.36 112.8,2810.88 110.64,2810.88 
		111.36,2810.64 106.32,2810.64 108.48,2810.16 106.32,2810.16 100.8,2809.92 99.36,2809.92 100.8,2809.44 100.56,2809.44 
		106.32,2809.2 98.4,2809.2 100.08,2808.72 105.84,2808.72 102.72,2808.48 102.96,2808.48 103.68,2808 102,2808 99.84,2807.76 
		105.12,2807.76 104.16,2807.28 102,2807.28 102.96,2807.04 98.64,2807.04 98.4,2806.56 100.56,2806.56 101.28,2806.32 
		96.24,2806.32 105.6,2805.84 109.2,2805.84 102.96,2805.6 104.16,2805.6 106.32,2805.12 103.68,2805.12 103.68,2804.88 
		102.72,2804.88 104.88,2804.4 100.8,2804.4 98.64,2804.16 97.2,2804.16 104.16,2803.68 97.2,2803.68 104.88,2803.44 
		102.24,2803.44 103.44,2802.96 102.72,2802.96 99.36,2802.72 99.84,2802.72 99.36,2802.24 104.88,2802.24 97.2,2802 102.96,2802 
		97.68,2801.52 99.12,2801.52 97.2,2801.28 100.8,2801.28 100.08,2800.8 101.52,2800.8 98.64,2800.56 98.4,2800.08 102.24,2800.08 
		103.44,2799.84 98.64,2799.84 98.4,2799.36 99.12,2799.36 97.68,2799.12 100.56,2799.12 102.24,2798.64 100.8,2798.64 
		104.4,2798.4 98.4,2798.4 100.08,2797.92 102.72,2797.92 101.28,2797.68 103.44,2797.68 100.08,2797.2 106.32,2797.2 108,2796.96 
		102.24,2796.96 98.64,2796.48 106.56,2796.48 106.32,2796.24 114.48,2796.24 117.12,2795.76 113.04,2795.76 102.72,2795.52 
		104.16,2795.52 101.28,2795.04 103.68,2795.04 99.84,2794.8 102.24,2794.8 102.24,2794.32 102,2794.32 100.8,2794.08 
		99.12,2794.08 102,2793.6 103.44,2793.6 101.52,2793.36 100.8,2793.36 103.44,2792.88 98.64,2792.88 101.52,2792.64 
		103.68,2792.64 100.8,2792.16 98.4,2792.16 101.52,2791.92 101.28,2791.92 100.8,2791.44 100.56,2791.44 99.12,2791.2 
		97.92,2791.2 99.84,2790.72 100.08,2790.72 97.2,2790.48 102.72,2790.48 104.4,2790 104.16,2790 100.56,2789.76 103.68,2789.76 
		100.08,2789.28 102.24,2789.28 102,2789.04 100.08,2789.04 100.56,2788.56 98.64,2788.32 102,2788.32 98.64,2787.84 102,2787.84 
		102.72,2787.6 102.96,2787.6 100.56,2787.12 102.96,2787.12 99.12,2786.88 104.88,2786.88 96.48,2786.88 98.4,2786.4 
		103.44,2786.4 105.12,2786.16 107.04,2786.16 108.48,2785.68 107.04,2785.68 109.44,2785.44 101.52,2785.44 102.72,2784.96 
		103.44,2784.96 103.44,2784.72 105.6,2784.72 103.68,2784.24 101.28,2784.24 98.64,2784 97.68,2784 96.24,2783.52 101.52,2783.52 
		98.4,2783.28 105.6,2783.28 99.12,2782.8 102.72,2782.8 104.88,2782.56 96.96,2782.56 104.16,2782.08 105.84,2782.08 
		105.12,2781.84 104.16,2781.84 106.32,2781.36 102.72,2781.36 96.24,2781.12 94.08,2781.12 97.92,2780.64 100.56,2780.64 
		94.32,2780.4 97.68,2779.92 98.64,2779.92 94.8,2779.68 94.08,2779.68 97.68,2779.2 106.56,2779.2 99.84,2778.96 99.36,2778.96 
		105.12,2778.48 103.44,2778.48 104.16,2778.24 100.08,2778.24 86.16,2777.76 89.76,2777.76 83.28,2777.52 85.68,2777.52 
		85.44,2777.04 87.12,2777.04 88.56,2776.8 100.08,2776.8 96.48,2776.32 93.6,2776.32 94.8,2776.08 96.48,2776.08 95.52,2775.6 
		98.4,2775.6 96.96,2775.6 97.92,2775.36 97.2,2775.36 93.36,2774.88 95.52,2774.88 96.96,2774.64 95.52,2774.64 94.32,2774.16 
		96.24,2774.16 95.76,2773.92 95.04,2773.92 96.48,2773.44 95.04,2773.44 97.92,2773.2 96.48,2773.2 102,2772.72 100.8,2772.72 
		96.24,2772.48 99.84,2772.48 99.84,2772 103.68,2772 100.8,2771.76 100.08,2771.76 97.92,2771.28 101.28,2771.28 100.56,2771.04 
		101.52,2771.04 95.52,2770.56 100.56,2770.56 100.8,2770.32 99.36,2770.32 102.72,2769.84 97.2,2769.84 103.68,2769.6 
		97.92,2769.6 98.4,2769.12 102.72,2769.12 99.36,2768.88 101.52,2768.88 101.28,2768.4 99.84,2768.4 102,2768.16 111.6,2768.16 
		108,2767.68 107.28,2767.68 109.2,2767.44 107.76,2767.44 102.96,2766.96 102.24,2766.96 109.92,2766.72 108.72,2766.72 
		104.16,2766.24 104.4,2766.24 100.56,2766 104.16,2766 102.24,2765.52 99.12,2765.52 102.24,2765.28 97.2,2765.28 103.68,2764.8 
		100.56,2764.8 100.56,2764.56 102.72,2764.56 103.44,2764.08 122.16,2764.08 108.72,2764.08 113.76,2763.84 109.92,2763.84 
		113.04,2763.36 106.32,2763.36 102.96,2763.12 100.8,2763.12 99.84,2762.64 96.96,2762.64 102,2762.4 100.56,2762.4 
		108.72,2761.92 111.36,2761.92 112.8,2761.68 107.28,2761.68 110.64,2761.2 109.2,2761.2 99.36,2760.96 111.6,2760.96 
		107.76,2760.48 102.24,2760.48 102.72,2760.24 101.52,2760.24 99.12,2759.76 102,2759.76 100.56,2759.52 100.08,2759.52 
		104.4,2759.04 97.68,2759.04 97.68,2758.8 100.56,2758.8 105.6,2758.32 99.12,2758.32 107.04,2758.08 106.32,2758.08 99.36,2757.6 
		104.16,2757.6 103.68,2757.36 105.12,2757.36 103.44,2756.88 112.08,2756.88 101.28,2756.64 105.6,2756.64 105.6,2756.16 
		111.36,2756.16 102.96,2755.92 102.24,2755.92 104.4,2755.44 102.72,2755.2 100.08,2755.2 101.28,2754.72 104.4,2754.72 
		100.8,2754.48 102.24,2754.48 99.12,2754 100.8,2754 102.72,2753.76 98.4,2753.76 105.84,2753.28 99.36,2753.28 98.4,2753.04 
		103.44,2753.04 100.56,2752.56 99.84,2752.56 100.08,2752.32 101.52,2752.32 105.84,2751.84 104.16,2751.84 102.24,2751.6 
		102,2751.6 99.84,2751.12 104.4,2751.12 113.76,2750.88 105.84,2750.88 102.24,2750.4 100.08,2750.4 103.68,2750.16 
		102.24,2750.16 103.44,2749.68 100.56,2749.68 99.36,2749.44 105.84,2749.44 101.28,2748.96 105.12,2748.96 102,2748.72 
		95.76,2748.72 100.08,2748.24 102.96,2748.24 102,2748 108,2748 104.4,2747.52 111.36,2747.52 108.48,2747.28 109.44,2747.28 
		114.96,2746.8 110.64,2746.56 113.52,2746.56 112.08,2746.08 106.32,2746.08 115.68,2745.84 108.72,2745.84 112.8,2745.36 
		101.52,2745.36 100.56,2745.12 98.4,2745.12 98.64,2744.64 101.52,2744.64 102.24,2744.4 102.96,2744.4 104.4,2743.92 
		103.68,2743.92 102,2743.68 108.48,2743.68 105.6,2743.2 102.96,2743.2 108.72,2742.96 106.56,2742.96 102,2742.48 107.76,2742.48 
		102,2742.24 106.32,2742.24 107.28,2741.76 108,2741.76 105.12,2741.76 110.64,2741.52 104.4,2741.52 105.84,2741.04 
		107.04,2741.04 103.44,2740.8 101.52,2740.8 98.4,2740.32 101.28,2740.32 97.92,2740.08 102.72,2740.08 105.12,2739.6 
		103.44,2739.6 102.72,2739.36 105.12,2739.36 101.28,2738.88 99.84,2738.88 99.36,2738.64 107.28,2738.64 102.24,2738.16 
		98.64,2738.16 105.6,2737.92 116.64,2737.92 115.68,2737.44 114.48,2737.44 115.68,2737.2 102.72,2737.2 107.76,2736.72 
		107.28,2736.72 96.96,2736.48 98.64,2736.48 104.88,2736 103.44,2736 114.48,2735.76 104.4,2735.76 102.24,2735.28 101.28,2735.28 
		106.32,2735.04 107.76,2735.04 106.32,2734.56 102.96,2734.56 104.4,2734.32 103.44,2734.32 102.96,2733.84 104.4,2733.84 
		104.88,2733.6 114.24,2733.6 109.2,2733.12 112.08,2733.12 110.16,2732.88 111.36,2732.88 112.8,2732.4 101.28,2732.4 
		106.32,2732.16 105.84,2732.16 105.6,2731.68 104.16,2731.68 105.6,2731.44 101.28,2731.44 105.84,2730.96 102.24,2730.96 
		105.84,2730.72 102,2730.72 103.44,2730.24 105.6,2730.24 102.96,2730 102.72,2730 104.4,2729.52 99.36,2729.52 106.56,2729.28 
		106.32,2729.28 100.56,2728.8 101.52,2728.8 102.96,2728.56 98.64,2728.56 98.64,2728.08 100.8,2728.08 100.56,2727.84 
		108.72,2727.84 115.92,2727.36 116.64,2727.36 109.92,2727.12 116.64,2727.12 89.04,2726.64 89.28,2726.64 89.28,2726.4 
		84.72,2726.4 89.76,2725.92 87.84,2725.92 84.96,2725.68 84.72,2725.68 87.6,2725.2 85.68,2725.2 87.6,2724.96 83.52,2724.96 
		84,2724.48 82.8,2724.48 89.76,2724.24 104.88,2724.24 95.76,2723.76 101.28,2723.76 100.8,2723.52 102,2723.52 106.32,2723.04 
		108,2723.04 105.84,2722.8 110.88,2722.8 103.68,2722.32 85.44,2722.32 99.84,2722.08 99.12,2722.08 104.4,2721.6 103.44,2721.6 
		104.4,2721.36 102.24,2721.36 110.64,2720.88 106.56,2720.88 107.76,2720.64 104.16,2720.64 105.84,2720.16 106.32,2720.16 
		102.72,2719.92 109.2,2719.92 101.52,2719.44 99.36,2719.44 102.96,2719.2 108,2719.2 106.32,2719.2 114.48,2718.72 
		102.72,2718.72 105.84,2718.48 105.12,2718.48 95.76,2718 100.56,2718 105.6,2717.76 97.68,2717.76 99.84,2717.28 103.44,2717.28 
		100.08,2717.04 102.24,2717.04 97.2,2716.56 98.4,2716.56 99.84,2716.32 102.72,2716.32 102.96,2715.84 101.52,2715.84 
		99.36,2715.6 102.72,2715.6 100.56,2715.12 103.68,2715.12 102.96,2714.88 101.52,2714.88 100.08,2714.4 104.16,2714.4 
		118.56,2714.16 110.88,2714.16 106.32,2713.68 111.36,2713.68 111.6,2713.44 112.08,2713.44 112.08,2712.96 111.36,2712.96 
		106.32,2712.72 114.24,2712.72 107.28,2712.24 109.92,2712.24 113.04,2712 107.28,2712 100.08,2711.52 104.88,2711.52 
		102.24,2711.28 97.2,2711.28 97.92,2710.8 100.56,2710.8 100.8,2710.56 102.96,2710.56 98.64,2710.08 103.44,2710.08 
		99.12,2709.84 95.76,2709.84 97.68,2709.36 99.36,2709.36 97.68,2709.12 102.96,2709.12 95.76,2708.64 100.08,2708.64 
		103.44,2708.4 101.28,2708.4 101.28,2707.92 107.04,2707.92 100.8,2707.92 103.44,2707.68 104.4,2707.68 102.24,2707.2 
		100.8,2707.2 100.8,2706.96 97.68,2706.96 107.04,2706.48 103.44,2706.48 105.6,2706.24 98.4,2706.24 99.12,2705.76 100.8,2705.76 
		98.4,2705.52 95.04,2705.52 96.96,2705.04 102,2705.04 101.52,2704.8 102,2704.8 100.08,2704.32 101.52,2704.32 102.72,2704.08 
		98.4,2704.08 100.08,2703.6 106.56,2703.6 119.28,2703.36 107.76,2703.36 112.8,2702.88 120,2702.88 117.36,2702.64 97.2,2702.64 
		102,2702.16 103.44,2701.92 100.8,2701.92 102.96,2701.44 108.48,2701.44 103.68,2701.2 108.72,2701.2 114.96,2700.72 
		96.96,2700.72 104.88,2700.48 104.16,2700.48 102.72,2700 102.72,2699.76 104.16,2699.76 102,2699.28 100.56,2699.28 
		102.24,2699.04 98.64,2699.04 100.56,2698.56 100.8,2698.56 100.56,2698.32 98.4,2698.32 105.6,2697.84 102.24,2697.84 102,2697.6 
		100.08,2697.6 107.28,2697.12 113.52,2697.12 106.56,2696.88 104.4,2696.88 107.04,2696.4 117.36,2696.4 112.32,2696.16 
		113.04,2696.16 102.96,2695.68 108.48,2695.68 103.68,2695.44 106.32,2695.44 108,2694.96 102.24,2694.96 108.72,2694.72 
		103.44,2694.72 105.84,2694.24 103.44,2694.24 104.16,2694 110.16,2694 111.36,2693.52 112.08,2693.52 106.56,2693.28 
		110.16,2693.28 107.04,2692.8 109.2,2692.8 102.72,2692.56 101.52,2692.56 109.92,2692.08 109.44,2692.08 114.96,2691.84 
		112.08,2691.84 120,2691.36 122.16,2691.36 121.68,2691.12 110.16,2691.12 102,2690.64 107.04,2690.64 104.16,2690.4 
		101.52,2690.4 99.36,2689.92 105.6,2689.92 106.56,2689.68 102.72,2689.68 99.84,2689.2 100.08,2689.2 100.56,2688.96 
		98.64,2688.96 104.16,2688.48 102.96,2688.48 104.88,2688.24 96.96,2688.24 100.8,2687.76 102,2687.76 102.24,2687.52 
		99.12,2687.52 100.56,2687.04 99.12,2687.04 102.72,2686.8 101.52,2686.8 100.08,2686.32 98.64,2686.32 102.72,2686.08 
		100.8,2686.08 102,2685.6 94.32,2685.6 100.8,2685.6 99.12,2685.36 97.68,2685.36 99.84,2684.88 97.2,2684.88 99.12,2684.64 
		98.64,2684.64 98.64,2684.16 101.28,2684.16 97.92,2683.92 99.84,2683.92 95.52,2683.44 101.28,2683.44 99.36,2683.2 
		100.08,2683.2 100.08,2682.72 105.6,2682.72 101.52,2682.48 104.16,2682.48 100.56,2682 104.88,2682 100.08,2681.76 99.84,2681.76 
		100.56,2681.28 99.12,2681.28 102,2681.04 104.88,2681.04 99.12,2680.56 96.48,2680.56 101.52,2680.32 99.36,2680.32 102,2679.84 
		99.84,2679.84 105.12,2679.6 100.8,2679.6 100.08,2679.12 102.96,2679.12 103.44,2678.88 102.72,2678.88 102,2678.4 101.52,2678.4 
		102,2678.16 98.4,2678.16 100.56,2677.68 100.08,2677.68 102,2677.44 105.6,2677.44 98.64,2676.96 104.4,2676.96 102.72,2676.72 
		105.6,2676.72 102.24,2676.24 99.12,2676.24 102.24,2676 97.2,2676 100.56,2675.52 106.32,2675.52 107.28,2675.28 119.28,2675.28 
		115.68,2674.8 107.04,2674.8 114.96,2674.56 110.64,2674.56 99.84,2674.08 97.2,2674.08 102.96,2673.84 98.64,2673.84 
		98.64,2673.36 100.56,2673.36 94.32,2673.12 99.36,2673.12 105.84,2672.64 95.04,2672.64 97.92,2672.4 100.56,2672.4 
		102.72,2671.92 99.12,2671.92 100.08,2671.68 96.24,2671.68 101.52,2671.2 100.08,2671.2 102.72,2670.96 104.4,2670.96 
		103.44,2670.48 106.32,2670.48 94.8,2670.24 98.64,2670.24 99.36,2669.76 98.4,2669.76 100.56,2669.52 97.68,2669.52 97.2,2669.04 
		96.24,2669.04 100.08,2668.8 96.48,2668.32 102.24,2668.32 98.64,2668.08 96.24,2668.08 100.08,2667.6 98.64,2667.6 95.04,2667.36 
		99.12,2667.36 100.56,2666.88 97.68,2666.88 103.68,2666.64 102.24,2666.64 99.36,2666.16 95.76,2666.16 96.24,2665.92 
		97.2,2665.92 95.52,2665.44 97.2,2665.44 99.84,2665.2 100.56,2665.2 99.84,2664.72 113.04,2664.72 99.36,2664.48 106.56,2664 
		102.24,2664 105.6,2663.76 102.96,2663.76 107.04,2663.28 103.68,2663.28 98.64,2663.04 97.68,2663.04 92.88,2662.56 
		97.92,2662.56 101.28,2662.32 100.08,2662.32 94.08,2661.84 98.4,2661.84 96.48,2661.6 100.56,2661.6 104.4,2661.12 
		106.32,2661.12 104.4,2660.88 102.24,2660.88 109.44,2660.4 97.92,2660.4 100.56,2660.16 102.96,2660.16 102.24,2659.68 
		102.96,2659.68 101.52,2659.44 99.84,2659.44 99.36,2658.96 97.92,2658.96 101.52,2658.72 102.24,2658.72 99.12,2658.24 
		102.96,2658.24 102.96,2658 100.56,2658 106.32,2657.52 97.68,2657.52 105.12,2657.28 105.6,2657.28 99.84,2656.8 103.68,2656.8 
		114.48,2656.56 104.4,2656.56 112.32,2656.08 101.28,2656.08 110.16,2655.84 103.44,2655.84 102.24,2655.36 98.64,2655.36 
		99.12,2655.12 102.96,2655.12 103.68,2654.64 99.36,2654.64 100.8,2654.4 100.56,2654.4 100.08,2653.92 100.8,2653.92 
		103.44,2653.68 105.6,2653.68 110.16,2653.2 101.52,2653.2 105.12,2652.96 100.08,2652.96 99.12,2652.48 103.44,2652.48 
		103.44,2652.24 99.84,2652.24 101.52,2651.76 99.84,2651.76 96.96,2651.52 106.56,2651.52 97.68,2651.04 99.12,2651.04 
		101.28,2650.8 105.84,2650.8 104.16,2650.32 101.52,2650.32 100.8,2650.08 101.28,2650.08 106.56,2649.6 103.44,2649.6 
		105.84,2649.36 102,2649.36 103.44,2648.88 102.96,2648.88 97.2,2648.64 100.08,2648.64 102,2648.16 102.24,2648.16 
		103.44,2647.92 100.8,2647.92 102.72,2647.44 99.36,2647.44 99.84,2647.2 104.16,2647.2 102,2646.72 99.12,2646.72 102,2646.48 
		102.72,2646.48 100.08,2646 97.2,2646 99.12,2645.76 114.48,2645.76 110.16,2645.28 119.28,2645.28 118.08,2645.04 105.6,2645.04 
		108,2644.56 107.04,2644.56 108.48,2644.32 100.56,2644.32 100.8,2643.84 104.4,2643.84 106.32,2643.6 105.84,2643.6 
		102.24,2643.12 104.4,2643.12 109.44,2642.88 111.36,2642.88 102.72,2642.4 104.88,2642.4 102.24,2642.16 100.8,2642.16 
		104.88,2641.68 111.6,2641.68 105.84,2641.44 109.44,2641.44 109.2,2640.96 103.44,2640.96 102.96,2640.72 101.52,2640.72 
		104.16,2640.72 111.6,2640.24 107.04,2640.24 111.36,2640 97.2,2640 104.88,2639.52 100.8,2639.52 102.96,2639.28 102,2639.28 
		99.84,2638.8 103.44,2638.8 102.72,2638.56 101.28,2638.56 101.28,2638.08 110.64,2638.08 100.8,2637.84 99.36,2637.84 
		96.96,2637.36 99.84,2637.36 100.8,2637.12 96.24,2637.12 95.52,2636.64 95.04,2636.64 102.72,2636.4 101.52,2636.4 99.84,2635.92 
		99.12,2635.92 98.4,2635.68 99.84,2635.68 100.8,2635.2 100.56,2635.2 98.64,2634.96 99.36,2634.96 104.16,2634.48 105.6,2634.48 
		100.56,2634.24 103.68,2634.24 100.8,2633.76 107.04,2633.76 100.8,2633.52 100.08,2633.52 105.6,2633.04 104.16,2633.04 
		105.12,2632.8 98.64,2632.8 111.6,2632.32 96.24,2632.32 94.08,2632.08 103.44,2632.08 111.36,2631.6 107.28,2631.6 
		112.32,2631.36 107.28,2631.36 106.56,2630.88 104.88,2630.88 102.72,2630.64 103.44,2630.64 102,2630.16 96.24,2630.16 
		99.36,2629.92 99.84,2629.92 102,2629.44 96.96,2629.44 107.28,2629.2 95.52,2629.2 99.84,2628.72 100.56,2628.72 94.32,2628.48 
		97.92,2628.48 98.64,2628 99.36,2628 104.16,2627.76 99.12,2627.76 101.28,2627.28 98.64,2627.28 100.08,2627.04 100.8,2627.04 
		101.28,2626.56 102.72,2626.56 99.36,2626.32 100.56,2626.32 102.24,2625.84 102,2625.84 97.92,2625.6 100.56,2625.6 98.4,2625.12 
		107.28,2625.12 93.6,2624.88 102.24,2624.88 101.52,2624.4 104.88,2624.4 97.92,2624.16 98.4,2624.16 104.4,2623.68 100.8,2623.68 
		101.52,2623.44 101.28,2623.44 100.08,2622.96 105.84,2622.96 101.52,2622.72 97.92,2622.72 97.68,2622.24 100.56,2622.24 
		96.24,2622 98.4,2622 99.84,2621.52 100.08,2621.52 99.36,2621.28 100.08,2621.28 91.44,2620.8 96.48,2620.8 99.12,2620.56 
		102.24,2620.56 101.52,2620.08 95.04,2620.08 96.96,2619.84 97.92,2619.84 97.92,2619.36 95.52,2619.36 96.24,2619.12 
		99.84,2619.12 95.76,2618.64 98.64,2618.64 102.24,2618.4 98.64,2618.4 95.52,2617.92 100.08,2617.92 99.84,2617.68 102,2617.68 
		99.84,2617.2 99.12,2616.96 97.2,2616.96 95.52,2616.48 97.68,2616.48 94.08,2616.24 100.8,2616.24 104.4,2615.76 98.64,2615.76 
		99.36,2615.52 102,2615.52 97.68,2615.04 97.92,2615.04 98.4,2614.8 101.52,2614.8 99.84,2614.32 102.24,2614.08 104.16,2614.08 
		96.48,2613.6 96.96,2613.6 97.68,2613.36 103.44,2613.36 103.44,2612.88 100.56,2612.88 99.36,2612.64 98.64,2612.64 
		103.44,2612.16 102.72,2612.16 96.48,2611.92 101.28,2611.92 99.36,2611.44 98.64,2611.44 128.16,2611.2 87.6,2611.2 
		100.08,2610.72 99.36,2610.72 96.48,2610.48 97.68,2610.48 98.64,2610 95.76,2610 103.44,2609.76 97.92,2609.76 100.08,2609.28 
		99.12,2609.28 99.12,2609.04 101.52,2609.04 99.36,2608.56 103.44,2608.56 97.68,2608.32 99.36,2608.32 100.56,2607.84 
		97.92,2607.84 100.8,2607.6 101.52,2607.6 98.4,2607.12 97.2,2607.12 98.4,2606.88 99.84,2606.88 98.64,2606.88 102.24,2606.4 
		97.2,2606.4 97.68,2606.16 98.4,2606.16 104.88,2605.68 95.04,2605.68 109.2,2605.44 99.36,2605.44 99.84,2604.96 102.24,2604.96 
		102,2604.72 103.44,2604.72 100.8,2604.24 97.68,2604.24 104.88,2604 108,2604 99.36,2603.52 95.76,2603.52 94.08,2603.28 
		104.16,2603.28 100.56,2602.8 99.12,2602.8 96.96,2602.56 101.28,2602.56 102.72,2602.08 100.08,2602.08 100.8,2601.84 
		96.24,2601.84 98.4,2601.36 96.24,2601.36 95.76,2601.12 100.08,2601.12 103.68,2600.64 101.28,2600.64 99.36,2600.4 102,2600.4 
		96.96,2599.92 99.12,2599.92 97.2,2599.68 96.96,2599.68 97.68,2599.2 98.4,2599.2 101.52,2598.96 103.44,2598.96 99.36,2598.48 
		98.4,2598.48 97.68,2598.24 100.8,2598.24 97.68,2597.76 99.36,2597.76 90.48,2597.52 97.2,2597.52 96.96,2597.04 94.8,2597.04 
		100.56,2596.8 100.8,2596.8 97.2,2596.32 99.12,2596.32 152.4,2596.08 127.2,2596.08 130.8,2595.6 135.84,2595.6 131.04,2595.6 
		112.32,2595.36 102.96,2595.36 102,2594.88 98.64,2594.88 99.12,2594.64 100.08,2594.64 99.12,2594.16 99.84,2594.16 
		98.64,2593.92 101.28,2593.92 102,2593.44 94.8,2593.44 102.24,2593.2 99.36,2592.72 103.44,2592.72 98.4,2592.48 103.44,2592.48 
		96.96,2592 99.84,2591.76 102.24,2591.76 96.24,2591.28 99.36,2591.28 100.08,2591.04 99.12,2591.04 98.4,2590.56 96.48,2590.56 
		98.64,2590.32 97.92,2590.32 99.12,2589.84 103.68,2589.84 99.84,2589.6 100.56,2589.6 99.84,2589.12 97.92,2589.12 
		104.16,2588.88 97.2,2588.88 102,2588.4 100.8,2588.4 98.64,2588.16 96.96,2588.16 97.2,2587.68 96.48,2587.68 97.2,2587.44 
		95.04,2587.44 105.6,2586.96 99.36,2586.96 97.92,2586.72 99.84,2586.72 98.4,2586.24 97.2,2586.24 96.96,2586 95.76,2586 
		97.92,2585.52 98.4,2585.52 99.84,2585.28 95.76,2585.28 101.28,2584.8 100.56,2584.8 97.92,2584.56 96.24,2584.56 98.64,2584.08 
		101.28,2584.08 96.24,2584.08 100.08,2583.84 99.12,2583.84 94.8,2583.36 97.92,2583.36 97.2,2583.12 99.84,2583.12 97.68,2582.64 
		98.64,2582.64 94.08,2582.4 100.8,2582.4 99.12,2581.92 97.2,2581.92 94.8,2581.68 93.36,2581.68 102.24,2581.2 98.4,2581.2 
		102,2580.96 95.52,2580.96 93.36,2580.48 97.68,2580.48 97.2,2580.24 95.76,2579.76 96.24,2579.76 101.28,2579.52 103.44,2579.52 
		95.76,2579.04 96.48,2579.04 93.6,2578.8 97.68,2578.8 95.52,2578.32 98.64,2578.32 96.96,2578.08 103.68,2578.08 102.96,2577.6 
		97.68,2577.6 94.32,2577.36 96.96,2577.36 99.12,2576.88 97.2,2576.88 97.2,2576.64 94.32,2576.64 97.2,2576.16 98.4,2576.16 
		98.64,2575.92 97.68,2575.92 95.76,2575.44 106.32,2575.44 96.96,2575.2 98.64,2575.2 102.24,2574.72 127.92,2574.72 
		72.48,2574.48 95.52,2574.48 99.84,2574 101.28,2574 96.24,2573.76 96.24,2573.28 92.64,2573.28 99.84,2573.04 95.52,2573.04 
		95.76,2572.56 94.32,2572.56 95.52,2572.32 101.52,2572.32 96.24,2571.84 98.64,2571.84 97.68,2571.6 98.64,2571.6 95.52,2571.12 
		102,2571.12 99.84,2570.88 97.2,2570.88 100.8,2570.4 97.2,2570.4 100.8,2570.16 97.92,2570.16 97.68,2569.68 99.36,2569.68 
		96.48,2569.44 97.68,2569.44 96.24,2568.96 99.12,2568.96 96.96,2568.72 97.68,2568.72 99.84,2568.24 96.24,2568.24 99.84,2568 
		92.64,2568 99.36,2567.52 96.24,2567.52 96.48,2567.28 95.76,2567.28 98.4,2566.8 99.12,2566.8 99.12,2566.56 100.56,2566.56 
		96.48,2566.08 93.36,2566.08 97.68,2565.84 102.24,2565.84 102.72,2565.36 99.84,2565.36 99.84,2565.12 98.64,2565.12 
		98.4,2564.64 99.36,2564.64 99.12,2564.4 100.8,2564.4 94.32,2563.92 98.4,2563.92 96.96,2563.68 97.68,2563.68 100.08,2563.2 
		96.24,2563.2 97.68,2562.96 96.48,2562.96 102.24,2562.48 101.52,2562.48 96.24,2562.24 102,2562.24 99.84,2561.76 95.52,2561.76 
		100.56,2561.52 102.72,2561.52 98.64,2561.04 96.48,2561.04 95.04,2560.8 93.36,2560.8 97.92,2560.32 95.52,2560.32 93.36,2560.08 
		97.92,2560.08 92.16,2559.6 95.76,2559.6 98.64,2559.36 97.92,2559.36 102,2558.88 95.76,2558.88 98.64,2558.64 102.24,2558.64 
		96.96,2558.16 101.28,2558.16 97.2,2557.92 100.08,2557.92 99.36,2557.44 96.96,2557.44 94.08,2557.2 99.36,2557.2 98.4,2556.72 
		97.92,2556.72 102.24,2556.48 99.84,2556.48 95.76,2556 94.32,2556 101.28,2555.76 103.44,2555.76 99.12,2555.28 102.72,2555.28 
		100.08,2555.04 100.56,2555.04 98.4,2554.56 102.24,2554.56 92.88,2554.32 105.6,2554.32 100.56,2553.84 95.52,2553.84 
		96.24,2553.6 95.52,2553.6 96.96,2553.12 101.52,2552.88 96.96,2552.88 104.4,2552.4 89.76,2552.4 98.4,2552.16 93.6,2552.16 
		94.32,2551.68 96.96,2551.68 95.52,2551.44 97.2,2551.44 98.4,2550.96 95.04,2550.96 97.2,2550.72 100.8,2550.72 97.2,2550.72 
		101.28,2550.24 89.76,2550.24 102.72,2550 94.8,2549.52 102.72,2549.52 100.56,2549.28 91.92,2549.28 97.92,2548.8 96.96,2548.8 
		97.92,2548.56 99.36,2548.56 99.36,2548.08 101.28,2548.08 100.08,2547.84 98.64,2547.84 99.36,2547.36 99.84,2547.36 
		98.64,2547.12 101.28,2547.12 99.36,2546.64 100.56,2546.64 100.08,2546.4 102,2546.4 99.84,2545.92 101.52,2545.92 
		101.52,2545.68 102,2545.68 97.92,2545.2 99.12,2545.2 100.08,2544.96 99.36,2544.96 95.76,2544.48 101.52,2544.48 99.12,2544.24 
		96.48,2544.24 98.4,2543.76 102,2543.76 96.48,2543.52 99.36,2543.52 103.68,2543.04 97.2,2543.04 103.68,2542.8 98.64,2542.32 
		97.2,2542.32 97.92,2542.08 101.52,2542.08 105.6,2541.6 95.76,2541.6 102.72,2541.36 105.6,2541.36 93.36,2540.88 96.48,2540.88 
		95.76,2540.64 101.28,2540.64 100.56,2540.16 95.52,2540.16 94.08,2539.92 97.2,2539.92 100.8,2539.44 97.68,2539.44 
		101.52,2539.2 96.48,2539.2 99.12,2539.2 102.96,2538.72 98.64,2538.72 101.28,2538.48 93.6,2538.48 95.52,2538 101.28,2538 
		102.24,2537.76 96.48,2537.76 95.76,2537.28 96.48,2537.28 103.44,2537.04 100.56,2537.04 104.4,2536.56 98.64,2536.56 
		99.84,2536.32 97.92,2536.32 99.84,2535.84 100.08,2535.84 98.64,2535.6 100.08,2535.6 102.24,2535.12 99.12,2535.12 
		106.32,2534.88 105.84,2534.88 109.92,2534.4 107.28,2534.4 101.28,2534.16 99.84,2534.16 103.68,2533.68 100.08,2533.68 
		101.52,2533.44 110.64,2533.44 107.28,2532.96 101.52,2532.96 107.04,2532.72 109.2,2532.24 114.24,2532.24 100.08,2532 
		98.64,2532 103.68,2531.52 106.32,2531.52 102.24,2531.28 101.28,2531.28 103.44,2530.8 100.08,2530.8 102.24,2530.56 
		112.08,2530.56 106.32,2530.08 111.36,2530.08 108.72,2529.84 104.4,2529.84 100.8,2529.36 107.28,2529.36 103.68,2529.12 
		112.08,2529.12 101.28,2528.64 101.52,2528.64 103.68,2528.4 100.08,2528.4 104.4,2527.92 103.68,2527.92 102,2527.68 
		105.6,2527.2 109.92,2527.2 104.16,2526.96 97.2,2526.96 99.12,2526.48 96.96,2526.48 97.68,2526.24 98.64,2526.24 102,2525.76 
		106.32,2525.76 102.96,2525.52 99.12,2525.52 107.76,2525.04 101.52,2525.04 102.24,2524.8 101.52,2524.8 95.76,2524.32 
		107.28,2524.32 102.72,2524.08 104.4,2524.08 108.72,2523.6 102.24,2523.6 100.8,2523.36 102,2523.36 105.6,2522.88 95.52,2522.88 
		98.4,2522.64 99.84,2522.64 97.92,2522.16 100.8,2522.16 99.12,2521.92 103.44,2521.92 99.84,2521.44 97.68,2521.44 101.28,2521.2 
		104.16,2521.2 98.64,2520.72 100.08,2520.72 111.36,2520.48 110.16,2520.48 113.52,2520 105.6,2520 98.64,2519.76 101.28,2519.76 
		102.72,2519.28 101.28,2519.28 100.56,2519.04 96.96,2519.04 99.36,2518.56 96.96,2518.56 104.16,2518.32 97.68,2518.32 
		104.16,2517.84 113.04,2517.6 107.04,2517.6 104.4,2517.12 100.56,2517.12 107.04,2516.88 102.96,2516.88 107.04,2516.4 
		99.12,2516.4 108.48,2516.16 106.56,2516.16 105.6,2515.68 99.12,2515.68 99.36,2515.44 100.8,2515.44 99.84,2514.96 
		102.96,2514.72 106.32,2514.72 104.16,2514.24 103.44,2514.24 107.76,2514 101.52,2514 109.2,2513.52 102.24,2513.52 
		96.96,2513.28 104.16,2513.28 104.16,2512.8 102.96,2512.8 103.68,2512.56 100.56,2512.56 105.12,2512.08 102.24,2512.08 
		100.08,2511.84 114.96,2511.84 109.2,2511.36 108,2511.36 107.04,2511.12 104.88,2511.12 107.28,2510.64 105.12,2510.64 
		110.64,2510.4 108.72,2510.4 106.56,2509.92 104.16,2509.92 106.32,2509.68 105.84,2509.68 102.96,2509.2 101.28,2509.2 
		105.6,2508.96 100.8,2508.96 102.24,2508.48 99.84,2508.48 100.56,2508.24 99.36,2508.24 99.84,2507.76 97.92,2507.52 
		100.08,2507.52 99.84,2507.04 105.12,2507.04 99.36,2506.8 98.64,2506.8 99.12,2506.32 95.76,2506.32 92.16,2506.08 
		102.24,2506.08 100.56,2505.6 98.4,2505.6 99.84,2505.6 102.96,2505.36 101.52,2505.36 107.04,2504.88 109.2,2504.88 
		105.12,2504.64 108.48,2504.64 100.08,2504.16 97.68,2504.16 94.8,2503.92 96.24,2503.92 94.8,2503.44 97.2,2503.44 98.4,2503.2 
		94.8,2503.2 96.96,2502.72 102.72,2502.72 98.64,2502.48 100.8,2502.48 98.64,2502 104.4,2502 97.92,2501.76 99.84,2501.76 
		100.08,2501.28 101.28,2501.28 105.6,2501.04 105.84,2501.04 102.96,2500.56 100.56,2500.56 107.28,2500.32 101.28,2500.32 
		104.4,2499.84 99.36,2499.84 96.24,2499.6 97.2,2499.6 99.36,2499.12 102,2499.12 102,2498.88 102.96,2498.88 110.16,2498.4 
		108.72,2498.4 105.12,2498.16 100.08,2498.16 97.2,2497.68 96.48,2497.68 97.2,2497.44 101.52,2497.44 102.96,2496.96 
		97.68,2496.96 101.28,2496.72 97.68,2496.72 100.56,2496.24 94.8,2496 95.52,2496 98.4,2495.52 96.24,2495.52 101.52,2495.28 
		97.68,2495.28 96.48,2494.8 94.08,2494.8 96.96,2494.56 101.28,2494.56 98.4,2494.08 103.68,2494.08 95.52,2494.08 93.36,2493.84 
		97.92,2493.84 96.24,2493.36 93.6,2493.36 97.68,2493.12 96.96,2493.12 94.8,2492.64 100.08,2492.64 98.4,2492.4 103.68,2492.4 
		92.88,2491.92 96.96,2491.92 95.52,2491.68 100.8,2491.68 96.96,2491.2 96.24,2491.2 99.12,2490.96 98.64,2490.96 102.24,2490.48 
		100.08,2490.48 95.04,2490.24 119.28,2490.24 104.88,2489.76 115.68,2489.76 105.12,2489.52 97.92,2489.52 94.32,2489.04 
		97.2,2489.04 98.64,2488.8 104.16,2488.8 96.48,2488.32 97.92,2488.32 92.16,2488.08 97.68,2488.08 102.24,2487.6 94.08,2487.6 
		94.08,2487.36 102.72,2487.36 102.96,2486.88 95.52,2486.88 94.32,2486.64 98.4,2486.64 100.08,2486.16 96.96,2486.16 
		100.8,2485.92 96.48,2485.92 99.84,2485.44 102,2485.44 100.08,2485.2 95.76,2485.2 101.52,2484.72 94.32,2484.72 101.52,2484.48 
		95.04,2484.48 94.8,2484 102.96,2484 102.24,2483.76 99.12,2483.76 98.64,2483.28 96.48,2483.28 101.52,2483.04 99.12,2483.04 
		100.8,2483.04 105.84,2482.56 134.64,2482.56 110.88,2482.32 115.68,2482.32 112.08,2481.84 99.84,2481.84 97.92,2481.6 
		97.68,2481.6 96.48,2481.12 95.76,2481.12 94.08,2480.88 96.48,2480.88 96.24,2480.4 96.24,2480.16 92.16,2480.16 92.88,2479.68 
		100.56,2479.68 90.72,2479.44 96.24,2479.44 104.16,2478.96 94.32,2478.96 96.96,2478.72 99.36,2478.72 97.2,2478.24 94.8,2478.24 
		95.52,2478 94.32,2478 97.68,2477.52 98.4,2477.52 92.64,2477.28 95.76,2477.28 101.28,2476.8 102.72,2476.8 95.04,2476.56 
		97.92,2476.56 93.6,2476.08 91.92,2476.08 100.8,2475.84 103.44,2475.84 94.08,2475.36 90.72,2475.36 100.8,2475.12 98.64,2475.12 
		94.32,2474.64 97.2,2474.64 95.76,2474.4 94.08,2474.4 95.76,2473.92 99.36,2473.92 101.52,2473.68 90.48,2473.68 102,2473.2 
		103.44,2473.2 120.72,2472.96 121.68,2472.96 117.84,2472.48 115.92,2472.48 101.52,2472.24 99.36,2472.24 104.4,2471.76 
		103.68,2471.76 105.84,2471.76 97.92,2471.52 101.52,2471.52 102.96,2471.04 100.08,2471.04 100.56,2470.8 102.24,2470.8 
		99.84,2470.32 98.4,2470.08 100.56,2469.6 99.12,2469.6 89.76,2469.36 103.68,2469.36 107.04,2468.88 96.48,2468.88 96.48,2468.64 
		97.68,2468.64 89.04,2468.16 98.64,2468.16 98.4,2467.92 96.24,2467.92 99.12,2467.44 93.6,2467.44 102.24,2467.2 95.52,2467.2 
		99.36,2466.72 100.08,2466.72 96.48,2466.48 107.04,2466.48 97.92,2466 99.36,2466 98.4,2465.76 102.96,2465.76 95.04,2465.28 
		101.52,2465.28 100.08,2465.04 96.48,2465.04 97.68,2464.56 101.52,2464.56 99.12,2464.32 97.92,2464.32 98.4,2463.84 
		99.12,2463.6 99.84,2463.6 99.12,2463.12 102.24,2463.12 92.88,2462.88 95.52,2462.88 97.92,2462.4 93.6,2462.4 96.48,2462.16 
		97.68,2462.16 99.12,2461.68 113.52,2461.68 116.64,2461.44 108.72,2461.44 105.12,2460.96 106.56,2460.96 104.16,2460.72 
		107.76,2460.72 102,2460.72 100.08,2460.24 101.28,2460.24 98.4,2460 100.08,2460 95.52,2459.52 92.64,2459.52 97.68,2459.28 
		96.48,2459.28 99.36,2458.8 93.36,2458.56 97.68,2458.56 91.44,2458.08 93.6,2458.08 94.32,2457.84 95.04,2457.84 95.04,2457.36 
		92.16,2457.36 95.04,2457.12 93.6,2457.12 118.8,2456.64 98.64,2456.64 116.64,2456.4 122.88,2456.4 115.92,2455.92 100.8,2455.92 
		96.96,2455.68 94.08,2455.68 92.64,2455.2 98.4,2455.2 97.92,2454.96 96.48,2454.96 98.4,2454.48 96.48,2454.24 98.4,2454.24 
		98.4,2453.76 109.92,2453.76 93.36,2453.52 96.24,2453.52 97.92,2453.04 93.36,2453.04 96.24,2452.8 95.04,2452.8 94.08,2452.32 
		100.56,2452.32 95.76,2452.08 100.56,2452.08 95.76,2451.6 92.16,2451.6 94.8,2451.36 97.68,2451.36 98.64,2450.88 97.92,2450.88 
		97.68,2450.64 99.36,2450.64 99.84,2450.16 96.24,2450.16 97.68,2449.92 98.64,2449.92 98.64,2449.44 102,2449.44 95.76,2449.44 
		91.92,2449.2 101.52,2449.2 102,2448.72 102.72,2448.72 96.48,2448.48 93.6,2448.48 97.2,2448 96.24,2448 94.8,2447.76 
		95.04,2447.76 92.88,2447.28 92.16,2447.28 92.88,2447.04 97.68,2447.04 96.24,2446.56 96.48,2446.56 92.64,2446.32 97.92,2446.32 
		94.32,2445.84 92.64,2445.84 95.04,2445.6 97.2,2445.12 94.08,2445.12 97.92,2444.88 94.8,2444.88 98.4,2444.4 96.96,2444.4 
		94.32,2444.16 100.56,2444.16 99.36,2443.68 91.44,2443.68 100.08,2443.44 97.2,2443.44 94.08,2442.96 95.52,2442.96 
		99.84,2442.72 98.4,2442.72 97.68,2442.24 92.64,2442.24 93.6,2442 102.72,2442 96.96,2441.52 97.2,2441.52 97.92,2441.28 
		94.32,2441.28 96.24,2440.8 94.08,2440.8 94.32,2440.56 98.64,2440.56 96.96,2440.08 94.32,2440.08 94.8,2439.84 96.96,2439.84 
		95.52,2439.36 93.36,2439.36 99.36,2439.12 95.04,2439.12 92.16,2438.64 95.52,2438.64 99.12,2438.4 98.64,2438.4 95.52,2437.92 
		99.36,2437.92 96.96,2437.68 89.76,2437.68 100.8,2437.2 102.72,2437.2 99.36,2436.96 91.92,2436.96 94.8,2436.48 91.2,2436.48 
		96.24,2436.24 94.08,2436.24 97.68,2435.76 94.8,2435.76 95.52,2435.52 96.48,2435.04 92.88,2435.04 102,2434.8 99.84,2434.8 
		96.96,2434.32 90.72,2434.32 98.64,2434.08 92.16,2434.08 96.48,2433.6 96.24,2433.6 94.08,2433.36 97.2,2433.36 92.88,2432.88 
		97.92,2432.88 92.88,2432.64 100.08,2432.64 95.76,2432.16 99.12,2432.16 95.76,2431.92 98.64,2431.92 97.92,2431.44 98.4,2431.44 
		94.08,2431.2 94.8,2431.2 92.88,2430.72 95.04,2430.72 94.08,2430.48 92.88,2430.48 94.08,2430 93.36,2430 95.76,2429.76 
		97.68,2429.76 95.04,2429.28 92.88,2429.28 100.56,2429.04 91.2,2429.04 95.76,2428.56 94.8,2428.56 92.88,2428.32 95.76,2428.32 
		95.04,2427.84 96.96,2427.84 95.52,2427.6 90,2427.6 98.64,2427.12 92.16,2427.12 94.08,2426.88 98.64,2426.88 95.76,2426.88 
		99.12,2426.4 100.56,2426.4 99.12,2426.16 97.68,2426.16 102.96,2425.68 101.28,2425.68 98.64,2425.44 95.52,2425.44 
		94.32,2424.96 95.52,2424.96 97.68,2424.72 98.4,2424.72 96.48,2424.24 96.96,2424.24 101.52,2424 94.32,2424 96.48,2423.52 
		93.36,2423.52 92.88,2423.28 97.2,2423.28 95.04,2422.8 97.92,2422.8 97.92,2422.56 93.36,2422.56 91.92,2422.08 97.68,2422.08 
		97.68,2421.84 96.48,2421.84 92.88,2421.36 94.08,2421.36 95.52,2421.12 92.88,2421.12 96.96,2420.64 95.52,2420.64 95.52,2420.4 
		95.04,2420.4 95.76,2419.92 97.68,2419.92 116.4,2419.68 88.32,2419.68 101.52,2419.2 100.56,2419.2 91.92,2418.96 95.52,2418.96 
		101.52,2418.48 96.48,2418.48 98.4,2418.24 95.76,2418.24 98.4,2417.76 91.2,2417.76 96.96,2417.52 94.08,2417.52 90,2417.04 
		94.32,2417.04 92.64,2416.8 89.76,2416.8 92.16,2416.32 93.6,2416.32 93.36,2416.08 92.88,2416.08 92.64,2415.6 94.8,2415.6 
		93.36,2415.6 92.16,2415.36 94.32,2415.36 93.36,2414.88 91.44,2414.88 92.88,2414.64 99.36,2414.64 96.48,2414.16 95.76,2414.16 
		92.64,2413.92 98.4,2413.92 90,2413.44 95.04,2413.2 103.44,2413.2 99.84,2412.72 97.68,2412.72 94.8,2412.48 99.84,2412.48 
		102.72,2412 90.48,2412 94.32,2411.76 90.72,2411.76 92.64,2411.28 93.36,2411.28 95.04,2411.04 91.44,2411.04 97.68,2410.56 
		92.88,2410.56 92.16,2410.32 94.8,2410.32 89.76,2409.84 91.92,2409.84 99.12,2409.6 97.2,2409.6 97.68,2409.12 96.24,2409.12 
		95.52,2408.88 99.36,2408.88 103.68,2408.4 101.28,2408.4 121.68,2408.16 97.92,2408.16 95.76,2407.68 101.52,2407.68 
		99.12,2407.44 94.8,2407.44 94.08,2406.96 92.88,2406.96 96.48,2406.72 95.04,2406.72 98.4,2406.24 99.84,2406.24 95.04,2406 
		92.64,2406 100.08,2405.52 95.04,2405.52 99.36,2405.28 95.04,2405.28 94.32,2404.8 97.92,2404.8 99.12,2404.56 94.8,2404.56 
		99.84,2404.08 91.92,2404.08 101.28,2403.84 96.48,2403.84 95.76,2403.36 94.8,2403.36 99.12,2403.12 107.76,2403.12 98.4,2402.64 
		97.2,2402.64 95.76,2402.4 94.32,2402.4 102.24,2401.92 98.64,2401.92 98.4,2401.68 101.52,2401.68 100.08,2401.2 95.52,2401.2 
		92.88,2400.96 94.8,2400.96 97.92,2400.48 92.88,2400.48 92.88,2400.24 95.04,2400.24 95.52,2399.76 92.88,2399.76 90.48,2399.52 
		96.96,2399.52 95.04,2399.04 92.16,2399.04 91.92,2398.8 95.04,2398.8 92.64,2398.32 98.4,2398.08 91.2,2398.08 92.88,2397.6 
		98.4,2397.6 97.2,2397.36 96.48,2396.88 92.88,2396.88 95.04,2396.64 91.92,2396.64 94.8,2396.16 97.2,2396.16 99.84,2395.92 
		96.96,2395.92 90,2395.44 91.92,2395.44 93.36,2395.2 94.32,2395.2 91.2,2394.72 90.72,2394.72 100.56,2394.48 99.36,2394.48 
		95.04,2394 100.56,2394 93.36,2393.76 95.52,2393.76 91.44,2393.28 96.96,2393.28 92.88,2393.04 100.56,2393.04 92.16,2393.04 
		94.08,2392.56 95.04,2392.56 97.92,2392.32 92.16,2392.32 91.2,2391.84 92.16,2391.84 89.28,2391.6 102.24,2391.6 100.56,2391.12 
		94.08,2391.12 94.8,2390.88 96.24,2390.88 87.6,2390.4 92.64,2390.4 94.32,2390.16 97.68,2390.16 96.24,2389.68 95.04,2389.68 
		98.4,2389.44 93.6,2389.44 92.64,2388.96 95.76,2388.96 97.68,2388.72 98.4,2388.72 96.48,2388.24 97.92,2388.24 91.2,2388 
		94.32,2388 96.96,2387.52 94.08,2387.28 91.44,2387.28 96.24,2386.8 98.4,2386.8 89.28,2386.56 94.8,2386.56 96.24,2386.08 
		96.24,2385.84 94.32,2385.84 95.52,2385.36 98.64,2385.36 93.6,2385.12 99.84,2385.12 95.76,2384.64 89.76,2384.64 91.92,2384.4 
		95.52,2384.4 99.36,2383.92 92.16,2383.92 94.32,2383.68 95.76,2383.68 94.32,2383.2 90.48,2383.2 97.92,2382.96 97.68,2382.96 
		96.24,2382.48 96.96,2382.48 92.88,2382.24 91.2,2382.24 95.52,2381.76 100.8,2381.76 98.64,2381.76 95.76,2381.52 95.04,2381.52 
		96.96,2381.04 94.8,2381.04 95.04,2380.8 96.48,2380.8 93.36,2380.32 100.08,2380.32 101.28,2380.08 97.2,2380.08 92.88,2379.6 
		96.48,2379.6 97.68,2379.36 93.36,2379.36 88.32,2378.88 91.2,2378.88 93.36,2378.64 91.44,2378.64 97.92,2378.16 93.6,2378.16 
		94.08,2377.92 96.48,2377.92 92.64,2377.44 99.36,2377.44 94.32,2377.2 99.12,2377.2 99.12,2376.72 94.08,2376.72 96.24,2376.48 
		93.36,2376.48 95.04,2376 93.36,2376 92.88,2375.76 90.72,2375.76 94.08,2375.28 92.64,2375.28 94.32,2375.04 92.88,2375.04 
		90.48,2374.56 95.76,2374.56 95.52,2374.32 94.8,2374.32 114.48,2373.84 88.56,2373.84 96.48,2373.6 96.96,2373.6 100.56,2373.12 
		93.6,2373.12 95.76,2372.88 99.36,2372.88 97.2,2372.4 99.36,2372.4 92.16,2372.16 99.12,2372.16 92.16,2371.68 93.36,2371.68 
		92.88,2371.44 94.08,2371.44 92.16,2370.96 98.4,2370.96 91.92,2370.72 97.92,2370.72 93.6,2370.24 94.32,2370.24 94.08,2370 
		95.04,2370 89.28,2369.52 96.24,2369.52 91.44,2369.28 92.88,2369.28 96.24,2368.8 92.88,2368.8 95.52,2368.56 92.64,2368.56 
		92.88,2368.08 95.52,2368.08 98.4,2367.84 99.84,2367.84 98.4,2367.36 98.64,2367.36 96.48,2367.12 95.76,2367.12 95.04,2366.64 
		94.32,2366.64 97.92,2366.4 91.44,2366.4 96.96,2365.92 95.04,2365.92 92.16,2365.68 95.76,2365.68 97.92,2365.2 93.6,2365.2 
		96.24,2364.96 92.88,2364.48 92.64,2364.48 95.52,2364.24 94.8,2364.24 102.24,2363.76 91.92,2363.76 92.64,2363.52 94.08,2363.52 
		97.2,2363.04 102,2363.04 94.8,2362.8 97.68,2362.8 94.32,2362.32 97.2,2362.32 98.64,2362.08 94.08,2362.08 98.4,2361.6 
		96.48,2361.6 	"/>
</g>
</svg>
